%
M48
M72
T01C0.0120
T02C0.0160
T03C0.0180
T04C0.0190
T05C0.0200
T06C0.0236
T07C0.0315
T08C0.0320
T09C0.0360
T10C0.0374
T11C0.0394
T12C0.0400
T13C0.0551
T14C0.0600
T15C0.0630
T16C0.0650
T17C0.0650
T18C0.0709
T19C0.0866
T20C0.1260
T21C0.1300
T22C0.1496
%
T01
X21199Y24143
X21799Y25193
X21499Y26243
X24349Y28443
X26049Y30493
X26674Y30493
X26674Y30093
X27324Y30093
X22799Y30843
X22399Y30803
X20849Y30793
X19449Y31143
X19249Y31493
X19049Y31843
X19399Y32143
X18999Y32443
X16799Y33543
X16449Y33843
X14399Y34393
X14049Y34943
X14149Y38143
X8999Y35243
X8299Y35243
X2999Y40243
X3049Y40643
X5649Y51743
X6649Y51693
X22649Y34493
X18399Y30843
T02
X21599Y23193
X12799Y30343
X6899Y30693
X6849Y34543
X6499Y36143
X11299Y36443
X5049Y39993
X4599Y39893
X20519Y33173
X23899Y32193
X22819Y36273
X22439Y37453
X34549Y31493
X39349Y32243
X50199Y32993
X54999Y25293
X9083Y56359
X9949Y55643
T03
X16322Y17010
X16361Y15608
X25309Y17513
T04
X67949Y13443
X63399Y18493
X63349Y22843
X59824Y24893
X59899Y26993
X61899Y26993
X62679Y28863
X64899Y26993
X64099Y25793
X66899Y26993
X67549Y31043
X69749Y31043
X72949Y34893
X72499Y35293
X72049Y35693
X71599Y36093
X71149Y36493
X70699Y36993
X67709Y39333
X68349Y39833
X66949Y40693
X65899Y41493
X70249Y39833
X73449Y34493
X65049Y33393
X62749Y31043
X59099Y34043
X58349Y36493
X63149Y36943
X61599Y40693
X60899Y41493
X56899Y40693
X55899Y41493
X52829Y39333
X52149Y40693
X50899Y41493
X46849Y40693
X45899Y41493
X41949Y40693
X40899Y41493
X36849Y40693
X35899Y41493
X32099Y40693
X30899Y41493
X25399Y44493
X22809Y44503
X22209Y44503
X22209Y43503
X22809Y43503
X20209Y44753
X20209Y45803
X20209Y46603
X20209Y47553
X18609Y46553
X18659Y48803
X17759Y48803
X17759Y49703
X14959Y49703
X14959Y48803
X13109Y47053
X11009Y48803
X11009Y49703
X9959Y46853
X10509Y46153
X10909Y44803
X8809Y43453
X8809Y42653
X7909Y43453
X9539Y41403
X9539Y40603
X9689Y39053
X9689Y38053
X11139Y38053
X11839Y38053
X11459Y38803
X11459Y39653
X13409Y39103
X14379Y38913
X13689Y38023
X12789Y37003
X11689Y37003
X11689Y35953
X10939Y36053
X11689Y34853
X10889Y34353
X9309Y34553
X8159Y34353
X7259Y34153
X5609Y34503
X5609Y35653
X5609Y36703
X4309Y36703
X6189Y38053
X6189Y38653
X6139Y39803
X7689Y40103
X8259Y36703
X12839Y35953
X12839Y34853
X13839Y34353
X14739Y35953
X14699Y36933
X15989Y37153
X16639Y35803
X16469Y35063
X16469Y34363
X16119Y32513
X16899Y31343
X18449Y31743
X20699Y32243
X22849Y30243
X25399Y28993
X23949Y26993
X22899Y26993
X20799Y26993
X19449Y25793
X18449Y25143
X18959Y24153
X18959Y23353
X18959Y22403
X18959Y20853
X21809Y21203
X23159Y20603
X22949Y23193
X24049Y23193
X23059Y24503
X21659Y24503
X17499Y25793
X16599Y25143
X15549Y25793
X14049Y24593
X11249Y24443
X8499Y26643
X7059Y25703
X5709Y25753
X4759Y27603
X3159Y28503
X2949Y56493
X6449Y53933
X8399Y61993
X67999Y61993
X73449Y19293
X72949Y19643
X72499Y20043
X72049Y20443
X71599Y20843
X71149Y21243
X70699Y21643
X70249Y22043
X69799Y22443
X58449Y23243
X57299Y22443
X56774Y22043
X56249Y22843
X55699Y21643
X54624Y21243
X53499Y20843
X52474Y20443
X51374Y20043
X50299Y19643
X49749Y19243
X48549Y22443
X50049Y24143
X50399Y26993
X51899Y26993
X52839Y28853
X55399Y26993
X56899Y26993
X57759Y28853
X57699Y31043
X55024Y32593
X52799Y31043
X47849Y31043
X44499Y31843
X42949Y31043
X38049Y31043
X38059Y28853
X36899Y26993
X35399Y26993
X33149Y28853
X32399Y26993
X30899Y26993
X35299Y23643
X36158Y22793
X36699Y22043
X37249Y22443
X35599Y21643
X34449Y21243
X33399Y20843
X32374Y20443
X31299Y20068
X30199Y19643
X29674Y19243
X29349Y22593
X20959Y17753
X19249Y15153
X19209Y13403
X12309Y15203
X12309Y16003
X11509Y16003
X11459Y19053
X12309Y19053
X15909Y19053
X16709Y19053
X8399Y13443
X3309Y29403
X3309Y30203
X3309Y30853
X4209Y31503
X3309Y31703
X4409Y32503
X6059Y31153
X6059Y29853
X4959Y29553
X4209Y29553
X6809Y27703
X8559Y28153
X7409Y30103
X7409Y31153
X8259Y31053
X10159Y30703
X9309Y32703
X13609Y29953
X14109Y28753
X15009Y28753
X17089Y28993
X17549Y28443
X17999Y29003
X14619Y31113
X14119Y32713
X12659Y28753
X19889Y37053
X22109Y40803
X24449Y41193
X24449Y40193
X24424Y39193
X25399Y36993
X26839Y34853
X23889Y33553
X28659Y31313
X33199Y31043
X33549Y34493
X30124Y35343
X38549Y34893
X43399Y35293
X48499Y35693
X53499Y36093
X46899Y26993
X45399Y26993
X45124Y24543
X43699Y22843
X40249Y23243
X40399Y26993
X41899Y26993
X43399Y18493
X55199Y23193
X69749Y46843
X67749Y46843
X65899Y50993
X63299Y52393
X60899Y50993
X58199Y51943
X55899Y50993
X53399Y51493
X52799Y52793
X51749Y52393
X50649Y51943
X49549Y51493
X50899Y50993
X52859Y49043
X52852Y46843
X57681Y46843
X57689Y49013
X62560Y46843
X68549Y52793
X70249Y53193
X70699Y53543
X71149Y53993
X71599Y54393
X72049Y54793
X72499Y55193
X72949Y55593
X73449Y55993
X62899Y56493
X57149Y55993
X56699Y55593
X55549Y55193
X54299Y54793
X53249Y54393
X52249Y53993
X51149Y53593
X49999Y53193
X48399Y52793
X45899Y50993
X43399Y52393
X40899Y50993
X38549Y51993
X35899Y50993
X33549Y51493
X33099Y52793
X32049Y52393
X30949Y52043
X30899Y50993
X29849Y51493
X29159Y53003
X30399Y53193
X31449Y53593
X32549Y53993
X33649Y54393
X34749Y54793
X35799Y55193
X36849Y55593
X37449Y55993
X43399Y56493
X42799Y49033
X42795Y46843
X37866Y46843
X37869Y49023
X32879Y49013
X32887Y46843
X27859Y52103
X27859Y53903
X22209Y46503
X22209Y45903
X22809Y45903
X17509Y44453
X16559Y45253
X15709Y45253
X16259Y46603
X15209Y43803
X13459Y43453
X13459Y42653
X14559Y41003
X14559Y40053
X13759Y40053
X17559Y40853
X17509Y43603
X16159Y52153
X14709Y53003
X16159Y53853
X5659Y48803
X5259Y50153
X4159Y50153
X5259Y43503
X47749Y46843
X2949Y18943
T05
X21599Y15893
X21599Y16793
X22599Y16793
X22599Y15893
T06
X34428Y27543
X38699Y27543
X8959Y53693
T07
X21699Y47793
X22699Y47793
X21699Y49793
X27699Y49793
X27699Y47793
X18748Y59686
X20638Y60867
T08
X18502Y28007
X16602Y28007
T09
X3599Y48643
X3599Y49643
X3599Y50643
T10
X14937Y57986
X14937Y58774
X13953Y58774
X13953Y57986
T11
X20638Y58505
T12
X29678Y18448
X30758Y18448
X31838Y18448
X32918Y18448
X33998Y18448
X35078Y18448
X36158Y18448
X37238Y18448
X36698Y17448
X35618Y17448
X34538Y17448
X33458Y17448
X32378Y17448
X31298Y17448
X30218Y17448
X25849Y23993
X24849Y23993
X24849Y24993
X25849Y24993
X25849Y25993
X24849Y25993
X24849Y26993
X25849Y26993
X25849Y27993
X24849Y27993
X24799Y31343
X25799Y31343
X25799Y32343
X25799Y33343
X24799Y33343
X24799Y32343
X24799Y34343
X25799Y34343
X25799Y35343
X24799Y35343
X22049Y38293
X22049Y39293
X21049Y39293
X20049Y39293
X19049Y39293
X18049Y39293
X17049Y39293
X16049Y39293
X15049Y39293
X15049Y38293
X16049Y38293
X17049Y38293
X18049Y38293
X19049Y38293
X20049Y38293
X21049Y38293
X24899Y38693
X25899Y38693
X25899Y39693
X25899Y40693
X24899Y40693
X24899Y39693
X24899Y41693
X25899Y41693
X25899Y42693
X24899Y42693
X20329Y42598
X18915Y44013
X12349Y41243
X10349Y41243
X8349Y46343
X6349Y46343
X3449Y38143
X3449Y37143
X3449Y36143
X3449Y35143
X3449Y34143
X3449Y33143
X11899Y33193
X12899Y33193
X12899Y32193
X12899Y31193
X11899Y31193
X11899Y32193
X11609Y28373
X13389Y28373
X13389Y25813
X11609Y25813
X49758Y18448
X50838Y18448
X51918Y18448
X52998Y18448
X54078Y18448
X55158Y18448
X56238Y18448
X57318Y18448
X56778Y17448
X55698Y17448
X54618Y17448
X53538Y17448
X52458Y17448
X51378Y17448
X50298Y17448
X57100Y56924
X56020Y56924
X54940Y56924
X53860Y56924
X52780Y56924
X51700Y56924
X50620Y56924
X49540Y56924
X50080Y57924
X51160Y57924
X52240Y57924
X53320Y57924
X54400Y57924
X55480Y57924
X56560Y57924
X37413Y56924
X36333Y56924
X35253Y56924
X34173Y56924
X33093Y56924
X32013Y56924
X30933Y56924
X29853Y56924
X30393Y57924
X31473Y57924
X32553Y57924
X33633Y57924
X34713Y57924
X35793Y57924
X36873Y57924
T13
X24043Y55429
X24043Y61531
T14
X12722Y17390
X15422Y16740
X16322Y17740
T15
X19239Y16853
T16
X18491Y15672
X19987Y15672
T17
X15397Y14090
T18
X18491Y13802
X19987Y13802
T19
X12083Y59841
X16807Y59841
T20
X10511Y18037
T21
X26898Y17948
X40018Y17948
X46978Y17948
X60098Y17948
X59880Y57424
X46760Y57424
X40193Y57424
X27073Y57424
T22
X66125Y18021
X66125Y57391
X10416Y57391
M30
