G75*
%MOIN*%
%OFA0B0*%
%FSLAX24Y24*%
%IPPOS*%
%LPD*%
%AMOC8*
5,1,8,0,0,1.08239X$1,22.5*
%
%ADD10C,0.0000*%
%ADD11C,0.0050*%
%ADD12C,0.0060*%
%ADD13C,0.0320*%
%ADD14R,0.0600X0.0400*%
%ADD15C,0.0070*%
%ADD16C,0.0020*%
%ADD17C,0.0160*%
%ADD18C,0.0040*%
%ADD19C,0.0100*%
%ADD20C,0.0080*%
%ADD21R,1.0550X0.0300*%
%ADD22R,1.5450X0.0200*%
%ADD23R,0.0320X0.2850*%
%ADD24R,0.0320X0.1850*%
%ADD25C,0.0039*%
%ADD26C,0.0030*%
%ADD27R,0.0250X0.1000*%
%ADD28C,0.0394*%
%ADD29R,0.0827X0.0118*%
%ADD30C,0.0120*%
D10*
X013322Y011440D02*
X013322Y012940D01*
X015622Y012940D01*
X015622Y011440D01*
X013322Y011440D01*
X013322Y012940D02*
X012122Y012940D01*
X012122Y017640D01*
X016822Y017640D01*
X016822Y012940D01*
X015622Y012940D01*
X018137Y013802D02*
X018139Y013839D01*
X018145Y013876D01*
X018154Y013911D01*
X018168Y013946D01*
X018184Y013979D01*
X018205Y014010D01*
X018228Y014039D01*
X018254Y014065D01*
X018283Y014088D01*
X018314Y014109D01*
X018347Y014125D01*
X018382Y014139D01*
X018417Y014148D01*
X018454Y014154D01*
X018491Y014156D01*
X018528Y014154D01*
X018565Y014148D01*
X018600Y014139D01*
X018635Y014125D01*
X018668Y014109D01*
X018699Y014088D01*
X018728Y014065D01*
X018754Y014039D01*
X018777Y014010D01*
X018798Y013979D01*
X018814Y013946D01*
X018828Y013911D01*
X018837Y013876D01*
X018843Y013839D01*
X018845Y013802D01*
X018843Y013765D01*
X018837Y013728D01*
X018828Y013693D01*
X018814Y013658D01*
X018798Y013625D01*
X018777Y013594D01*
X018754Y013565D01*
X018728Y013539D01*
X018699Y013516D01*
X018668Y013495D01*
X018635Y013479D01*
X018600Y013465D01*
X018565Y013456D01*
X018528Y013450D01*
X018491Y013448D01*
X018454Y013450D01*
X018417Y013456D01*
X018382Y013465D01*
X018347Y013479D01*
X018314Y013495D01*
X018283Y013516D01*
X018254Y013539D01*
X018228Y013565D01*
X018205Y013594D01*
X018184Y013625D01*
X018168Y013658D01*
X018154Y013693D01*
X018145Y013728D01*
X018139Y013765D01*
X018137Y013802D01*
X019633Y013802D02*
X019635Y013839D01*
X019641Y013876D01*
X019650Y013911D01*
X019664Y013946D01*
X019680Y013979D01*
X019701Y014010D01*
X019724Y014039D01*
X019750Y014065D01*
X019779Y014088D01*
X019810Y014109D01*
X019843Y014125D01*
X019878Y014139D01*
X019913Y014148D01*
X019950Y014154D01*
X019987Y014156D01*
X020024Y014154D01*
X020061Y014148D01*
X020096Y014139D01*
X020131Y014125D01*
X020164Y014109D01*
X020195Y014088D01*
X020224Y014065D01*
X020250Y014039D01*
X020273Y014010D01*
X020294Y013979D01*
X020310Y013946D01*
X020324Y013911D01*
X020333Y013876D01*
X020339Y013839D01*
X020341Y013802D01*
X020339Y013765D01*
X020333Y013728D01*
X020324Y013693D01*
X020310Y013658D01*
X020294Y013625D01*
X020273Y013594D01*
X020250Y013565D01*
X020224Y013539D01*
X020195Y013516D01*
X020164Y013495D01*
X020131Y013479D01*
X020096Y013465D01*
X020061Y013456D01*
X020024Y013450D01*
X019987Y013448D01*
X019950Y013450D01*
X019913Y013456D01*
X019878Y013465D01*
X019843Y013479D01*
X019810Y013495D01*
X019779Y013516D01*
X019750Y013539D01*
X019724Y013565D01*
X019701Y013594D01*
X019680Y013625D01*
X019664Y013658D01*
X019650Y013693D01*
X019641Y013728D01*
X019635Y013765D01*
X019633Y013802D01*
X020917Y012925D02*
X021508Y012925D01*
X021508Y012256D01*
X021587Y012295D02*
X021587Y012925D01*
X021606Y012925D01*
X022591Y012925D01*
X022610Y012925D01*
X022610Y012256D01*
X022689Y012256D02*
X022689Y012925D01*
X023181Y012925D01*
X023181Y016862D01*
X020917Y016862D01*
X020917Y012925D01*
X021508Y012925D02*
X021587Y012925D01*
X021587Y012295D02*
X021588Y012250D01*
X021592Y012206D01*
X021600Y012162D01*
X021612Y012119D01*
X021627Y012077D01*
X021646Y012036D01*
X021669Y011998D01*
X021694Y011961D01*
X021723Y011927D01*
X021755Y011896D01*
X021789Y011867D01*
X021826Y011842D01*
X021865Y011820D01*
X021906Y011801D01*
X021948Y011786D01*
X021991Y011775D01*
X022035Y011767D01*
X022079Y011763D01*
X022124Y011764D01*
X022168Y011768D01*
X022212Y011776D01*
X022255Y011788D01*
X022297Y011803D01*
X022338Y011822D01*
X022376Y011845D01*
X022413Y011870D01*
X022447Y011899D01*
X022478Y011931D01*
X022507Y011965D01*
X022532Y012002D01*
X022554Y012041D01*
X022573Y012082D01*
X022588Y012124D01*
X022599Y012167D01*
X022607Y012211D01*
X022611Y012255D01*
X022690Y012256D02*
X022688Y012208D01*
X022682Y012161D01*
X022673Y012115D01*
X022660Y012069D01*
X022643Y012024D01*
X022622Y011981D01*
X022599Y011940D01*
X022571Y011901D01*
X022541Y011864D01*
X022508Y011830D01*
X022473Y011798D01*
X022435Y011770D01*
X022394Y011744D01*
X022352Y011722D01*
X022309Y011703D01*
X022263Y011688D01*
X022217Y011677D01*
X022170Y011669D01*
X022123Y011665D01*
X022075Y011665D01*
X022028Y011669D01*
X021981Y011677D01*
X021935Y011688D01*
X021889Y011703D01*
X021846Y011722D01*
X021804Y011744D01*
X021763Y011770D01*
X021725Y011798D01*
X021690Y011830D01*
X021657Y011864D01*
X021627Y011901D01*
X021599Y011940D01*
X021576Y011981D01*
X021555Y012024D01*
X021538Y012069D01*
X021525Y012115D01*
X021516Y012161D01*
X021510Y012208D01*
X021508Y012256D01*
X022610Y012925D02*
X022689Y012925D01*
X020416Y018350D02*
X018645Y018350D01*
X018645Y021302D01*
X020416Y021302D01*
X020416Y018350D01*
X009881Y018037D02*
X009883Y018087D01*
X009889Y018137D01*
X009899Y018186D01*
X009913Y018234D01*
X009930Y018281D01*
X009951Y018326D01*
X009976Y018370D01*
X010004Y018411D01*
X010036Y018450D01*
X010070Y018487D01*
X010107Y018521D01*
X010147Y018551D01*
X010189Y018578D01*
X010233Y018602D01*
X010279Y018623D01*
X010326Y018639D01*
X010374Y018652D01*
X010424Y018661D01*
X010473Y018666D01*
X010524Y018667D01*
X010574Y018664D01*
X010623Y018657D01*
X010672Y018646D01*
X010720Y018631D01*
X010766Y018613D01*
X010811Y018591D01*
X010854Y018565D01*
X010895Y018536D01*
X010934Y018504D01*
X010970Y018469D01*
X011002Y018431D01*
X011032Y018391D01*
X011059Y018348D01*
X011082Y018304D01*
X011101Y018258D01*
X011117Y018210D01*
X011129Y018161D01*
X011137Y018112D01*
X011141Y018062D01*
X011141Y018012D01*
X011137Y017962D01*
X011129Y017913D01*
X011117Y017864D01*
X011101Y017816D01*
X011082Y017770D01*
X011059Y017726D01*
X011032Y017683D01*
X011002Y017643D01*
X010970Y017605D01*
X010934Y017570D01*
X010895Y017538D01*
X010854Y017509D01*
X010811Y017483D01*
X010766Y017461D01*
X010720Y017443D01*
X010672Y017428D01*
X010623Y017417D01*
X010574Y017410D01*
X010524Y017407D01*
X010473Y017408D01*
X010424Y017413D01*
X010374Y017422D01*
X010326Y017435D01*
X010279Y017451D01*
X010233Y017472D01*
X010189Y017496D01*
X010147Y017523D01*
X010107Y017553D01*
X010070Y017587D01*
X010036Y017624D01*
X010004Y017663D01*
X009976Y017704D01*
X009951Y017748D01*
X009930Y017793D01*
X009913Y017840D01*
X009899Y017888D01*
X009889Y017937D01*
X009883Y017987D01*
X009881Y018037D01*
X007949Y012893D02*
X068499Y012893D01*
X068501Y013039D01*
X068507Y013186D01*
X068517Y013332D01*
X068530Y013478D01*
X068548Y013623D01*
X068569Y013768D01*
X068594Y013912D01*
X068623Y014056D01*
X068656Y014198D01*
X068693Y014340D01*
X068733Y014481D01*
X068777Y014620D01*
X068825Y014759D01*
X068877Y014896D01*
X068932Y015032D01*
X068991Y015166D01*
X069053Y015298D01*
X069119Y015429D01*
X069188Y015558D01*
X069260Y015685D01*
X069336Y015810D01*
X069416Y015933D01*
X069498Y016054D01*
X069584Y016173D01*
X069673Y016289D01*
X069765Y016403D01*
X069860Y016515D01*
X069958Y016624D01*
X070058Y016730D01*
X070162Y016834D01*
X070268Y016934D01*
X070377Y017032D01*
X070489Y017127D01*
X070603Y017219D01*
X070719Y017308D01*
X070838Y017394D01*
X070959Y017476D01*
X071082Y017556D01*
X071207Y017632D01*
X071334Y017704D01*
X071463Y017773D01*
X071594Y017839D01*
X071726Y017901D01*
X071860Y017960D01*
X071996Y018015D01*
X072133Y018067D01*
X072272Y018115D01*
X072411Y018159D01*
X072552Y018199D01*
X072694Y018236D01*
X072836Y018269D01*
X072980Y018298D01*
X073124Y018323D01*
X073269Y018344D01*
X073414Y018362D01*
X073560Y018375D01*
X073706Y018385D01*
X073853Y018391D01*
X073999Y018393D01*
X073999Y056993D01*
X073999Y056994D02*
X073855Y056990D01*
X073712Y056989D01*
X073569Y056993D01*
X073426Y057001D01*
X073283Y057012D01*
X073140Y057028D01*
X072998Y057047D01*
X072857Y057070D01*
X072716Y057097D01*
X072576Y057128D01*
X072437Y057162D01*
X072299Y057200D01*
X072162Y057242D01*
X072026Y057288D01*
X071892Y057337D01*
X071759Y057390D01*
X071627Y057447D01*
X071497Y057507D01*
X071369Y057571D01*
X071242Y057638D01*
X071117Y057708D01*
X070994Y057782D01*
X070874Y057859D01*
X070755Y057940D01*
X070639Y058023D01*
X070525Y058110D01*
X070413Y058200D01*
X070304Y058292D01*
X070197Y058388D01*
X070093Y058487D01*
X069992Y058588D01*
X069893Y058692D01*
X069797Y058799D01*
X069705Y058908D01*
X069615Y059020D01*
X069528Y059134D01*
X069445Y059250D01*
X069364Y059369D01*
X069287Y059489D01*
X069213Y059612D01*
X069143Y059737D01*
X069076Y059864D01*
X069012Y059992D01*
X068952Y060122D01*
X068895Y060254D01*
X068842Y060387D01*
X068793Y060521D01*
X068747Y060657D01*
X068705Y060794D01*
X068667Y060932D01*
X068633Y061071D01*
X068602Y061211D01*
X068575Y061352D01*
X068552Y061493D01*
X068533Y061635D01*
X068517Y061778D01*
X068506Y061921D01*
X068498Y062064D01*
X068494Y062207D01*
X068495Y062350D01*
X068499Y062494D01*
X068499Y062493D02*
X007849Y062493D01*
X007848Y062494D02*
X007847Y062348D01*
X007842Y062203D01*
X007834Y062058D01*
X007821Y061913D01*
X007805Y061769D01*
X007785Y061625D01*
X007761Y061481D01*
X007733Y061339D01*
X007701Y061197D01*
X007666Y061056D01*
X007627Y060916D01*
X007584Y060777D01*
X007538Y060639D01*
X007487Y060503D01*
X007434Y060368D01*
X007376Y060234D01*
X007316Y060102D01*
X007251Y059972D01*
X007183Y059843D01*
X007112Y059716D01*
X007038Y059592D01*
X006960Y059469D01*
X006879Y059348D01*
X006794Y059230D01*
X006707Y059114D01*
X006617Y059000D01*
X006523Y058889D01*
X006427Y058780D01*
X006327Y058674D01*
X006225Y058570D01*
X006121Y058469D01*
X006013Y058371D01*
X005903Y058276D01*
X005791Y058184D01*
X005676Y058095D01*
X005559Y058009D01*
X005439Y057926D01*
X005318Y057847D01*
X005194Y057770D01*
X005068Y057697D01*
X004941Y057628D01*
X004811Y057561D01*
X004680Y057498D01*
X004548Y057439D01*
X004413Y057384D01*
X004278Y057331D01*
X004141Y057283D01*
X004002Y057238D01*
X003863Y057197D01*
X003722Y057160D01*
X003581Y057126D01*
X003439Y057096D01*
X003296Y057070D01*
X003152Y057048D01*
X003008Y057029D01*
X002863Y057015D01*
X002718Y057004D01*
X002573Y056997D01*
X002428Y056994D01*
X002428Y056993D02*
X002449Y032493D01*
X002749Y032193D01*
X002749Y028893D01*
X002449Y028593D01*
X002449Y018393D01*
X002595Y018391D01*
X002742Y018385D01*
X002888Y018375D01*
X003034Y018362D01*
X003179Y018344D01*
X003324Y018323D01*
X003468Y018298D01*
X003612Y018269D01*
X003754Y018236D01*
X003896Y018199D01*
X004037Y018159D01*
X004176Y018115D01*
X004315Y018067D01*
X004452Y018015D01*
X004588Y017960D01*
X004722Y017901D01*
X004854Y017839D01*
X004985Y017773D01*
X005114Y017704D01*
X005241Y017632D01*
X005366Y017556D01*
X005489Y017476D01*
X005610Y017394D01*
X005729Y017308D01*
X005845Y017219D01*
X005959Y017127D01*
X006071Y017032D01*
X006180Y016934D01*
X006286Y016834D01*
X006390Y016730D01*
X006490Y016624D01*
X006588Y016515D01*
X006683Y016403D01*
X006775Y016289D01*
X006864Y016173D01*
X006950Y016054D01*
X007032Y015933D01*
X007112Y015810D01*
X007188Y015685D01*
X007260Y015558D01*
X007329Y015429D01*
X007395Y015298D01*
X007457Y015166D01*
X007516Y015032D01*
X007571Y014896D01*
X007623Y014759D01*
X007671Y014620D01*
X007715Y014481D01*
X007755Y014340D01*
X007792Y014198D01*
X007825Y014056D01*
X007854Y013912D01*
X007879Y013768D01*
X007900Y013623D01*
X007918Y013478D01*
X007931Y013332D01*
X007941Y013186D01*
X007947Y013039D01*
X007949Y012893D01*
X015054Y044774D02*
X015057Y044753D01*
X015063Y044733D01*
X015073Y044715D01*
X015085Y044698D01*
X015101Y044684D01*
X015118Y044673D01*
X015138Y044665D01*
X015158Y044660D01*
X015179Y044659D01*
X015200Y044662D01*
X015220Y044668D01*
X015238Y044678D01*
X015255Y044690D01*
X015269Y044706D01*
X015280Y044723D01*
X015288Y044743D01*
X015293Y044763D01*
X015294Y044784D01*
X009668Y057391D02*
X009670Y057446D01*
X009676Y057500D01*
X009686Y057554D01*
X009700Y057606D01*
X009717Y057658D01*
X009739Y057708D01*
X009764Y057757D01*
X009792Y057804D01*
X009824Y057848D01*
X009859Y057890D01*
X009897Y057929D01*
X009938Y057966D01*
X009981Y057999D01*
X010026Y058029D01*
X010074Y058056D01*
X010123Y058079D01*
X010174Y058099D01*
X010227Y058115D01*
X010280Y058127D01*
X010334Y058135D01*
X010389Y058139D01*
X010443Y058139D01*
X010498Y058135D01*
X010552Y058127D01*
X010605Y058115D01*
X010658Y058099D01*
X010709Y058079D01*
X010758Y058056D01*
X010806Y058029D01*
X010851Y057999D01*
X010894Y057966D01*
X010935Y057929D01*
X010973Y057890D01*
X011008Y057848D01*
X011040Y057804D01*
X011068Y057757D01*
X011093Y057708D01*
X011115Y057658D01*
X011132Y057606D01*
X011146Y057554D01*
X011156Y057500D01*
X011162Y057446D01*
X011164Y057391D01*
X011162Y057336D01*
X011156Y057282D01*
X011146Y057228D01*
X011132Y057176D01*
X011115Y057124D01*
X011093Y057074D01*
X011068Y057025D01*
X011040Y056978D01*
X011008Y056934D01*
X010973Y056892D01*
X010935Y056853D01*
X010894Y056816D01*
X010851Y056783D01*
X010806Y056753D01*
X010758Y056726D01*
X010709Y056703D01*
X010658Y056683D01*
X010605Y056667D01*
X010552Y056655D01*
X010498Y056647D01*
X010443Y056643D01*
X010389Y056643D01*
X010334Y056647D01*
X010280Y056655D01*
X010227Y056667D01*
X010174Y056683D01*
X010123Y056703D01*
X010074Y056726D01*
X010026Y056753D01*
X009981Y056783D01*
X009938Y056816D01*
X009897Y056853D01*
X009859Y056892D01*
X009824Y056934D01*
X009792Y056978D01*
X009764Y057025D01*
X009739Y057074D01*
X009717Y057124D01*
X009700Y057176D01*
X009686Y057228D01*
X009676Y057282D01*
X009670Y057336D01*
X009668Y057391D01*
X065377Y057391D02*
X065379Y057446D01*
X065385Y057500D01*
X065395Y057554D01*
X065409Y057606D01*
X065426Y057658D01*
X065448Y057708D01*
X065473Y057757D01*
X065501Y057804D01*
X065533Y057848D01*
X065568Y057890D01*
X065606Y057929D01*
X065647Y057966D01*
X065690Y057999D01*
X065735Y058029D01*
X065783Y058056D01*
X065832Y058079D01*
X065883Y058099D01*
X065936Y058115D01*
X065989Y058127D01*
X066043Y058135D01*
X066098Y058139D01*
X066152Y058139D01*
X066207Y058135D01*
X066261Y058127D01*
X066314Y058115D01*
X066367Y058099D01*
X066418Y058079D01*
X066467Y058056D01*
X066515Y058029D01*
X066560Y057999D01*
X066603Y057966D01*
X066644Y057929D01*
X066682Y057890D01*
X066717Y057848D01*
X066749Y057804D01*
X066777Y057757D01*
X066802Y057708D01*
X066824Y057658D01*
X066841Y057606D01*
X066855Y057554D01*
X066865Y057500D01*
X066871Y057446D01*
X066873Y057391D01*
X066871Y057336D01*
X066865Y057282D01*
X066855Y057228D01*
X066841Y057176D01*
X066824Y057124D01*
X066802Y057074D01*
X066777Y057025D01*
X066749Y056978D01*
X066717Y056934D01*
X066682Y056892D01*
X066644Y056853D01*
X066603Y056816D01*
X066560Y056783D01*
X066515Y056753D01*
X066467Y056726D01*
X066418Y056703D01*
X066367Y056683D01*
X066314Y056667D01*
X066261Y056655D01*
X066207Y056647D01*
X066152Y056643D01*
X066098Y056643D01*
X066043Y056647D01*
X065989Y056655D01*
X065936Y056667D01*
X065883Y056683D01*
X065832Y056703D01*
X065783Y056726D01*
X065735Y056753D01*
X065690Y056783D01*
X065647Y056816D01*
X065606Y056853D01*
X065568Y056892D01*
X065533Y056934D01*
X065501Y056978D01*
X065473Y057025D01*
X065448Y057074D01*
X065426Y057124D01*
X065409Y057176D01*
X065395Y057228D01*
X065385Y057282D01*
X065379Y057336D01*
X065377Y057391D01*
X065377Y018021D02*
X065379Y018076D01*
X065385Y018130D01*
X065395Y018184D01*
X065409Y018236D01*
X065426Y018288D01*
X065448Y018338D01*
X065473Y018387D01*
X065501Y018434D01*
X065533Y018478D01*
X065568Y018520D01*
X065606Y018559D01*
X065647Y018596D01*
X065690Y018629D01*
X065735Y018659D01*
X065783Y018686D01*
X065832Y018709D01*
X065883Y018729D01*
X065936Y018745D01*
X065989Y018757D01*
X066043Y018765D01*
X066098Y018769D01*
X066152Y018769D01*
X066207Y018765D01*
X066261Y018757D01*
X066314Y018745D01*
X066367Y018729D01*
X066418Y018709D01*
X066467Y018686D01*
X066515Y018659D01*
X066560Y018629D01*
X066603Y018596D01*
X066644Y018559D01*
X066682Y018520D01*
X066717Y018478D01*
X066749Y018434D01*
X066777Y018387D01*
X066802Y018338D01*
X066824Y018288D01*
X066841Y018236D01*
X066855Y018184D01*
X066865Y018130D01*
X066871Y018076D01*
X066873Y018021D01*
X066871Y017966D01*
X066865Y017912D01*
X066855Y017858D01*
X066841Y017806D01*
X066824Y017754D01*
X066802Y017704D01*
X066777Y017655D01*
X066749Y017608D01*
X066717Y017564D01*
X066682Y017522D01*
X066644Y017483D01*
X066603Y017446D01*
X066560Y017413D01*
X066515Y017383D01*
X066467Y017356D01*
X066418Y017333D01*
X066367Y017313D01*
X066314Y017297D01*
X066261Y017285D01*
X066207Y017277D01*
X066152Y017273D01*
X066098Y017273D01*
X066043Y017277D01*
X065989Y017285D01*
X065936Y017297D01*
X065883Y017313D01*
X065832Y017333D01*
X065783Y017356D01*
X065735Y017383D01*
X065690Y017413D01*
X065647Y017446D01*
X065606Y017483D01*
X065568Y017522D01*
X065533Y017564D01*
X065501Y017608D01*
X065473Y017655D01*
X065448Y017704D01*
X065426Y017754D01*
X065409Y017806D01*
X065395Y017858D01*
X065385Y017912D01*
X065379Y017966D01*
X065377Y018021D01*
D11*
X058053Y018223D02*
X057753Y018223D01*
X057903Y018223D02*
X057903Y018673D01*
X057753Y018523D01*
X057828Y017673D02*
X057753Y017598D01*
X057753Y017523D01*
X057828Y017448D01*
X058053Y017448D01*
X058053Y017298D02*
X058053Y017598D01*
X057978Y017673D01*
X057828Y017673D01*
X057753Y017298D02*
X057828Y017223D01*
X057978Y017223D01*
X058053Y017298D01*
X058053Y014573D02*
X057753Y014573D01*
X057753Y014348D01*
X057903Y014423D01*
X057978Y014423D01*
X058053Y014348D01*
X058053Y014198D01*
X057978Y014123D01*
X057828Y014123D01*
X057753Y014198D01*
X057593Y014123D02*
X057292Y014123D01*
X057443Y014123D02*
X057443Y014573D01*
X057292Y014423D01*
X057132Y014573D02*
X056832Y014573D01*
X056832Y014123D01*
X056832Y014348D02*
X056982Y014348D01*
X049053Y017298D02*
X048978Y017223D01*
X048828Y017223D01*
X048753Y017298D01*
X048753Y017448D02*
X048903Y017523D01*
X048978Y017523D01*
X049053Y017448D01*
X049053Y017298D01*
X048753Y017448D02*
X048753Y017673D01*
X049053Y017673D01*
X048978Y018223D02*
X048828Y018223D01*
X048753Y018298D01*
X048753Y018373D01*
X048828Y018448D01*
X048978Y018448D01*
X049053Y018373D01*
X049053Y018298D01*
X048978Y018223D01*
X048978Y018448D02*
X049053Y018523D01*
X049053Y018598D01*
X048978Y018673D01*
X048828Y018673D01*
X048753Y018598D01*
X048753Y018523D01*
X048828Y018448D01*
X048443Y017673D02*
X048292Y017523D01*
X048443Y017673D02*
X048443Y017223D01*
X048593Y017223D02*
X048292Y017223D01*
X046513Y016738D02*
X046063Y016738D01*
X046288Y016513D01*
X046288Y016813D01*
X046288Y016352D02*
X046438Y016352D01*
X046513Y016277D01*
X046513Y016127D01*
X046438Y016052D01*
X046288Y016052D02*
X046213Y016202D01*
X046213Y016277D01*
X046288Y016352D01*
X046063Y016352D02*
X046063Y016052D01*
X046288Y016052D01*
X046438Y015895D02*
X046438Y015820D01*
X046513Y015820D01*
X046513Y015895D01*
X046438Y015895D01*
X046513Y015895D02*
X046663Y015745D01*
X046513Y015585D02*
X046513Y015285D01*
X046213Y015585D01*
X046138Y015585D01*
X046063Y015510D01*
X046063Y015360D01*
X046138Y015285D01*
X037972Y014573D02*
X037672Y014573D01*
X037672Y014348D01*
X037822Y014423D01*
X037897Y014423D01*
X037972Y014348D01*
X037972Y014198D01*
X037897Y014123D01*
X037747Y014123D01*
X037672Y014198D01*
X037512Y014123D02*
X037212Y014123D01*
X037362Y014123D02*
X037362Y014573D01*
X037212Y014423D01*
X037052Y014573D02*
X036751Y014573D01*
X036751Y014123D01*
X036751Y014348D02*
X036902Y014348D01*
X037747Y017223D02*
X037897Y017223D01*
X037972Y017298D01*
X037972Y017598D01*
X037897Y017673D01*
X037747Y017673D01*
X037672Y017598D01*
X037672Y017523D01*
X037747Y017448D01*
X037972Y017448D01*
X037747Y017223D02*
X037672Y017298D01*
X037672Y018223D02*
X037972Y018223D01*
X037822Y018223D02*
X037822Y018673D01*
X037672Y018523D01*
X028972Y018523D02*
X028897Y018448D01*
X028747Y018448D01*
X028672Y018523D01*
X028672Y018598D01*
X028747Y018673D01*
X028897Y018673D01*
X028972Y018598D01*
X028972Y018523D01*
X028897Y018448D02*
X028972Y018373D01*
X028972Y018298D01*
X028897Y018223D01*
X028747Y018223D01*
X028672Y018298D01*
X028672Y018373D01*
X028747Y018448D01*
X028672Y017673D02*
X028672Y017448D01*
X028822Y017523D01*
X028897Y017523D01*
X028972Y017448D01*
X028972Y017298D01*
X028897Y017223D01*
X028747Y017223D01*
X028672Y017298D01*
X028512Y017223D02*
X028212Y017223D01*
X028362Y017223D02*
X028362Y017673D01*
X028212Y017523D01*
X028672Y017673D02*
X028972Y017673D01*
X026433Y016738D02*
X025982Y016738D01*
X026207Y016513D01*
X026207Y016813D01*
X026207Y016352D02*
X026357Y016352D01*
X026433Y016277D01*
X026433Y016127D01*
X026357Y016052D01*
X026207Y016052D02*
X026132Y016202D01*
X026132Y016277D01*
X026207Y016352D01*
X025982Y016352D02*
X025982Y016052D01*
X026207Y016052D01*
X026357Y015895D02*
X026357Y015820D01*
X026433Y015820D01*
X026433Y015895D01*
X026357Y015895D01*
X026433Y015895D02*
X026583Y015745D01*
X026433Y015585D02*
X026433Y015285D01*
X026132Y015585D01*
X026057Y015585D01*
X025982Y015510D01*
X025982Y015360D01*
X026057Y015285D01*
X020420Y017443D02*
X020420Y012916D01*
X018058Y012916D01*
X018058Y017443D01*
X020420Y017443D01*
X020553Y019408D02*
X020928Y019408D01*
X021004Y019483D01*
X021004Y019633D01*
X020928Y019708D01*
X020553Y019708D01*
X020553Y019868D02*
X020778Y019868D01*
X020703Y020018D01*
X020703Y020093D01*
X020778Y020168D01*
X020928Y020168D01*
X021004Y020093D01*
X021004Y019943D01*
X020928Y019868D01*
X020553Y019868D02*
X020553Y020168D01*
X023998Y023518D02*
X024074Y023593D01*
X024074Y023668D01*
X023998Y023743D01*
X023623Y023743D01*
X023623Y023668D02*
X023623Y023819D01*
X023623Y023979D02*
X023623Y024204D01*
X023698Y024279D01*
X023848Y024279D01*
X023923Y024204D01*
X023923Y023979D01*
X024074Y023979D02*
X023623Y023979D01*
X023698Y024439D02*
X023773Y024439D01*
X023848Y024514D01*
X023848Y024739D01*
X023998Y024739D02*
X023698Y024739D01*
X023623Y024664D01*
X023623Y024514D01*
X023698Y024439D01*
X023998Y024439D02*
X024074Y024514D01*
X024074Y024664D01*
X023998Y024739D01*
X020240Y027658D02*
X020165Y027583D01*
X019865Y027583D01*
X019789Y027658D01*
X019789Y027808D01*
X019865Y027883D01*
X020165Y027883D01*
X020240Y027808D01*
X020240Y027658D01*
X020090Y027733D02*
X020240Y027883D01*
X020240Y028044D02*
X019940Y028344D01*
X019865Y028344D01*
X019789Y028269D01*
X019789Y028119D01*
X019865Y028044D01*
X020240Y028044D02*
X020240Y028344D01*
X023873Y031018D02*
X023873Y031169D01*
X023873Y031093D02*
X024248Y031093D01*
X024324Y031018D01*
X024324Y030943D01*
X024248Y030868D01*
X024173Y031329D02*
X024173Y031554D01*
X024098Y031629D01*
X023948Y031629D01*
X023873Y031554D01*
X023873Y031329D01*
X024324Y031329D01*
X024248Y031789D02*
X024173Y031789D01*
X024098Y031864D01*
X024098Y032014D01*
X024173Y032089D01*
X024248Y032089D01*
X024324Y032014D01*
X024324Y031864D01*
X024248Y031789D01*
X024098Y031864D02*
X024023Y031789D01*
X023948Y031789D01*
X023873Y031864D01*
X023873Y032014D01*
X023948Y032089D01*
X024023Y032089D01*
X024098Y032014D01*
X030149Y031033D02*
X030149Y027633D01*
X032579Y027633D01*
X032579Y031033D01*
X030149Y031033D01*
X030849Y031033D02*
X030848Y030989D01*
X030852Y030946D01*
X030859Y030903D01*
X030870Y030860D01*
X030885Y030819D01*
X030903Y030779D01*
X030925Y030741D01*
X030950Y030706D01*
X030977Y030672D01*
X031008Y030641D01*
X031042Y030612D01*
X031077Y030587D01*
X031115Y030565D01*
X031154Y030546D01*
X031195Y030531D01*
X031237Y030520D01*
X031280Y030512D01*
X031324Y030508D01*
X031368Y030507D01*
X031411Y030511D01*
X031454Y030518D01*
X031497Y030529D01*
X031538Y030544D01*
X031578Y030562D01*
X031616Y030584D01*
X031651Y030609D01*
X031685Y030636D01*
X031716Y030667D01*
X031745Y030701D01*
X031770Y030736D01*
X031792Y030774D01*
X031811Y030813D01*
X031826Y030854D01*
X031837Y030896D01*
X031845Y030939D01*
X031849Y030983D01*
X035070Y031033D02*
X037500Y031033D01*
X037500Y027633D01*
X035070Y027633D01*
X035070Y031033D01*
X035770Y031033D02*
X035769Y030989D01*
X035773Y030946D01*
X035780Y030903D01*
X035791Y030860D01*
X035806Y030819D01*
X035824Y030779D01*
X035846Y030741D01*
X035871Y030706D01*
X035898Y030672D01*
X035929Y030641D01*
X035963Y030612D01*
X035998Y030587D01*
X036036Y030565D01*
X036075Y030546D01*
X036116Y030531D01*
X036158Y030520D01*
X036201Y030512D01*
X036245Y030508D01*
X036289Y030507D01*
X036332Y030511D01*
X036375Y030518D01*
X036418Y030529D01*
X036459Y030544D01*
X036499Y030562D01*
X036537Y030584D01*
X036572Y030609D01*
X036606Y030636D01*
X036637Y030667D01*
X036666Y030701D01*
X036691Y030736D01*
X036713Y030774D01*
X036732Y030813D01*
X036747Y030854D01*
X036758Y030896D01*
X036766Y030939D01*
X036770Y030983D01*
X039991Y031033D02*
X042421Y031033D01*
X042421Y027633D01*
X039991Y027633D01*
X039991Y031033D01*
X040691Y031033D02*
X040690Y030989D01*
X040694Y030946D01*
X040701Y030903D01*
X040712Y030860D01*
X040727Y030819D01*
X040745Y030779D01*
X040767Y030741D01*
X040792Y030706D01*
X040819Y030672D01*
X040850Y030641D01*
X040884Y030612D01*
X040919Y030587D01*
X040957Y030565D01*
X040996Y030546D01*
X041037Y030531D01*
X041079Y030520D01*
X041122Y030512D01*
X041166Y030508D01*
X041210Y030507D01*
X041253Y030511D01*
X041296Y030518D01*
X041339Y030529D01*
X041380Y030544D01*
X041420Y030562D01*
X041458Y030584D01*
X041493Y030609D01*
X041527Y030636D01*
X041558Y030667D01*
X041587Y030701D01*
X041612Y030736D01*
X041634Y030774D01*
X041653Y030813D01*
X041668Y030854D01*
X041679Y030896D01*
X041687Y030939D01*
X041691Y030983D01*
X044912Y031033D02*
X047342Y031033D01*
X047342Y027633D01*
X044912Y027633D01*
X044912Y031033D01*
X045612Y031033D02*
X045611Y030989D01*
X045615Y030946D01*
X045622Y030903D01*
X045633Y030860D01*
X045648Y030819D01*
X045666Y030779D01*
X045688Y030741D01*
X045713Y030706D01*
X045740Y030672D01*
X045771Y030641D01*
X045805Y030612D01*
X045840Y030587D01*
X045878Y030565D01*
X045917Y030546D01*
X045958Y030531D01*
X046000Y030520D01*
X046043Y030512D01*
X046087Y030508D01*
X046131Y030507D01*
X046174Y030511D01*
X046217Y030518D01*
X046260Y030529D01*
X046301Y030544D01*
X046341Y030562D01*
X046379Y030584D01*
X046414Y030609D01*
X046448Y030636D01*
X046479Y030667D01*
X046508Y030701D01*
X046533Y030736D01*
X046555Y030774D01*
X046574Y030813D01*
X046589Y030854D01*
X046600Y030896D01*
X046608Y030939D01*
X046612Y030983D01*
X049834Y031033D02*
X052264Y031033D01*
X052264Y027633D01*
X049834Y027633D01*
X049834Y031033D01*
X050534Y031033D02*
X050533Y030989D01*
X050537Y030946D01*
X050544Y030903D01*
X050555Y030860D01*
X050570Y030819D01*
X050588Y030779D01*
X050610Y030741D01*
X050635Y030706D01*
X050662Y030672D01*
X050693Y030641D01*
X050727Y030612D01*
X050762Y030587D01*
X050800Y030565D01*
X050839Y030546D01*
X050880Y030531D01*
X050922Y030520D01*
X050965Y030512D01*
X051009Y030508D01*
X051053Y030507D01*
X051096Y030511D01*
X051139Y030518D01*
X051182Y030529D01*
X051223Y030544D01*
X051263Y030562D01*
X051301Y030584D01*
X051336Y030609D01*
X051370Y030636D01*
X051401Y030667D01*
X051430Y030701D01*
X051455Y030736D01*
X051477Y030774D01*
X051496Y030813D01*
X051511Y030854D01*
X051522Y030896D01*
X051530Y030939D01*
X051534Y030983D01*
X054755Y031033D02*
X057185Y031033D01*
X057185Y027633D01*
X054755Y027633D01*
X054755Y031033D01*
X055455Y031033D02*
X055454Y030989D01*
X055458Y030946D01*
X055465Y030903D01*
X055476Y030860D01*
X055491Y030819D01*
X055509Y030779D01*
X055531Y030741D01*
X055556Y030706D01*
X055583Y030672D01*
X055614Y030641D01*
X055648Y030612D01*
X055683Y030587D01*
X055721Y030565D01*
X055760Y030546D01*
X055801Y030531D01*
X055843Y030520D01*
X055886Y030512D01*
X055930Y030508D01*
X055974Y030507D01*
X056017Y030511D01*
X056060Y030518D01*
X056103Y030529D01*
X056144Y030544D01*
X056184Y030562D01*
X056222Y030584D01*
X056257Y030609D01*
X056291Y030636D01*
X056322Y030667D01*
X056351Y030701D01*
X056376Y030736D01*
X056398Y030774D01*
X056417Y030813D01*
X056432Y030854D01*
X056443Y030896D01*
X056451Y030939D01*
X056455Y030983D01*
X059676Y031033D02*
X062106Y031033D01*
X062106Y027633D01*
X059676Y027633D01*
X059676Y031033D01*
X060376Y031033D02*
X060375Y030989D01*
X060379Y030946D01*
X060386Y030903D01*
X060397Y030860D01*
X060412Y030819D01*
X060430Y030779D01*
X060452Y030741D01*
X060477Y030706D01*
X060504Y030672D01*
X060535Y030641D01*
X060569Y030612D01*
X060604Y030587D01*
X060642Y030565D01*
X060681Y030546D01*
X060722Y030531D01*
X060764Y030520D01*
X060807Y030512D01*
X060851Y030508D01*
X060895Y030507D01*
X060938Y030511D01*
X060981Y030518D01*
X061024Y030529D01*
X061065Y030544D01*
X061105Y030562D01*
X061143Y030584D01*
X061178Y030609D01*
X061212Y030636D01*
X061243Y030667D01*
X061272Y030701D01*
X061297Y030736D01*
X061319Y030774D01*
X061338Y030813D01*
X061353Y030854D01*
X061364Y030896D01*
X061372Y030939D01*
X061376Y030983D01*
X064597Y031033D02*
X067027Y031033D01*
X067027Y027633D01*
X064597Y027633D01*
X064597Y031033D01*
X065297Y031033D02*
X065296Y030989D01*
X065300Y030946D01*
X065307Y030903D01*
X065318Y030860D01*
X065333Y030819D01*
X065351Y030779D01*
X065373Y030741D01*
X065398Y030706D01*
X065425Y030672D01*
X065456Y030641D01*
X065490Y030612D01*
X065525Y030587D01*
X065563Y030565D01*
X065602Y030546D01*
X065643Y030531D01*
X065685Y030520D01*
X065728Y030512D01*
X065772Y030508D01*
X065816Y030507D01*
X065859Y030511D01*
X065902Y030518D01*
X065945Y030529D01*
X065986Y030544D01*
X066026Y030562D01*
X066064Y030584D01*
X066099Y030609D01*
X066133Y030636D01*
X066164Y030667D01*
X066193Y030701D01*
X066218Y030736D01*
X066240Y030774D01*
X066259Y030813D01*
X066274Y030854D01*
X066285Y030896D01*
X066293Y030939D01*
X066297Y030983D01*
X067126Y037133D02*
X064696Y037133D01*
X064696Y040533D01*
X067126Y040533D01*
X067126Y037133D01*
X066396Y040483D02*
X066392Y040439D01*
X066384Y040396D01*
X066373Y040354D01*
X066358Y040313D01*
X066339Y040274D01*
X066317Y040236D01*
X066292Y040201D01*
X066263Y040167D01*
X066232Y040136D01*
X066198Y040109D01*
X066163Y040084D01*
X066125Y040062D01*
X066085Y040044D01*
X066044Y040029D01*
X066001Y040018D01*
X065958Y040011D01*
X065915Y040007D01*
X065871Y040008D01*
X065827Y040012D01*
X065784Y040020D01*
X065742Y040031D01*
X065701Y040046D01*
X065662Y040065D01*
X065624Y040087D01*
X065589Y040112D01*
X065555Y040141D01*
X065524Y040172D01*
X065497Y040206D01*
X065472Y040241D01*
X065450Y040279D01*
X065432Y040319D01*
X065417Y040360D01*
X065406Y040403D01*
X065399Y040446D01*
X065395Y040489D01*
X065396Y040533D01*
X061955Y040533D02*
X061955Y037133D01*
X059525Y037133D01*
X059525Y040533D01*
X061955Y040533D01*
X061225Y040483D02*
X061221Y040439D01*
X061213Y040396D01*
X061202Y040354D01*
X061187Y040313D01*
X061168Y040274D01*
X061146Y040236D01*
X061121Y040201D01*
X061092Y040167D01*
X061061Y040136D01*
X061027Y040109D01*
X060992Y040084D01*
X060954Y040062D01*
X060914Y040044D01*
X060873Y040029D01*
X060830Y040018D01*
X060787Y040011D01*
X060744Y040007D01*
X060700Y040008D01*
X060656Y040012D01*
X060613Y040020D01*
X060571Y040031D01*
X060530Y040046D01*
X060491Y040065D01*
X060453Y040087D01*
X060418Y040112D01*
X060384Y040141D01*
X060353Y040172D01*
X060326Y040206D01*
X060301Y040241D01*
X060279Y040279D01*
X060261Y040319D01*
X060246Y040360D01*
X060235Y040403D01*
X060228Y040446D01*
X060224Y040489D01*
X060225Y040533D01*
X057134Y040533D02*
X057134Y037133D01*
X054704Y037133D01*
X054704Y040533D01*
X057134Y040533D01*
X056404Y040483D02*
X056400Y040439D01*
X056392Y040396D01*
X056381Y040354D01*
X056366Y040313D01*
X056347Y040274D01*
X056325Y040236D01*
X056300Y040201D01*
X056271Y040167D01*
X056240Y040136D01*
X056206Y040109D01*
X056171Y040084D01*
X056133Y040062D01*
X056093Y040044D01*
X056052Y040029D01*
X056009Y040018D01*
X055966Y040011D01*
X055923Y040007D01*
X055879Y040008D01*
X055835Y040012D01*
X055792Y040020D01*
X055750Y040031D01*
X055709Y040046D01*
X055670Y040065D01*
X055632Y040087D01*
X055597Y040112D01*
X055563Y040141D01*
X055532Y040172D01*
X055505Y040206D01*
X055480Y040241D01*
X055458Y040279D01*
X055440Y040319D01*
X055425Y040360D01*
X055414Y040403D01*
X055407Y040446D01*
X055403Y040489D01*
X055404Y040533D01*
X052262Y040533D02*
X052262Y037133D01*
X049832Y037133D01*
X049832Y040533D01*
X052262Y040533D01*
X051532Y040483D02*
X051528Y040439D01*
X051520Y040396D01*
X051509Y040354D01*
X051494Y040313D01*
X051475Y040274D01*
X051453Y040236D01*
X051428Y040201D01*
X051399Y040167D01*
X051368Y040136D01*
X051334Y040109D01*
X051299Y040084D01*
X051261Y040062D01*
X051221Y040044D01*
X051180Y040029D01*
X051137Y040018D01*
X051094Y040011D01*
X051051Y040007D01*
X051007Y040008D01*
X050963Y040012D01*
X050920Y040020D01*
X050878Y040031D01*
X050837Y040046D01*
X050798Y040065D01*
X050760Y040087D01*
X050725Y040112D01*
X050691Y040141D01*
X050660Y040172D01*
X050633Y040206D01*
X050608Y040241D01*
X050586Y040279D01*
X050568Y040319D01*
X050553Y040360D01*
X050542Y040403D01*
X050535Y040446D01*
X050531Y040489D01*
X050532Y040533D01*
X047191Y040533D02*
X047191Y037133D01*
X044761Y037133D01*
X044761Y040533D01*
X047191Y040533D01*
X046461Y040483D02*
X046457Y040439D01*
X046449Y040396D01*
X046438Y040354D01*
X046423Y040313D01*
X046404Y040274D01*
X046382Y040236D01*
X046357Y040201D01*
X046328Y040167D01*
X046297Y040136D01*
X046263Y040109D01*
X046228Y040084D01*
X046190Y040062D01*
X046150Y040044D01*
X046109Y040029D01*
X046066Y040018D01*
X046023Y040011D01*
X045980Y040007D01*
X045936Y040008D01*
X045892Y040012D01*
X045849Y040020D01*
X045807Y040031D01*
X045766Y040046D01*
X045727Y040065D01*
X045689Y040087D01*
X045654Y040112D01*
X045620Y040141D01*
X045589Y040172D01*
X045562Y040206D01*
X045537Y040241D01*
X045515Y040279D01*
X045497Y040319D01*
X045482Y040360D01*
X045471Y040403D01*
X045464Y040446D01*
X045460Y040489D01*
X045461Y040533D01*
X042220Y040533D02*
X042220Y037133D01*
X039790Y037133D01*
X039790Y040533D01*
X042220Y040533D01*
X041490Y040483D02*
X041486Y040439D01*
X041478Y040396D01*
X041467Y040354D01*
X041452Y040313D01*
X041433Y040274D01*
X041411Y040236D01*
X041386Y040201D01*
X041357Y040167D01*
X041326Y040136D01*
X041292Y040109D01*
X041257Y040084D01*
X041219Y040062D01*
X041179Y040044D01*
X041138Y040029D01*
X041095Y040018D01*
X041052Y040011D01*
X041009Y040007D01*
X040965Y040008D01*
X040921Y040012D01*
X040878Y040020D01*
X040836Y040031D01*
X040795Y040046D01*
X040756Y040065D01*
X040718Y040087D01*
X040683Y040112D01*
X040649Y040141D01*
X040618Y040172D01*
X040591Y040206D01*
X040566Y040241D01*
X040544Y040279D01*
X040526Y040319D01*
X040511Y040360D01*
X040500Y040403D01*
X040493Y040446D01*
X040489Y040489D01*
X040490Y040533D01*
X037249Y040533D02*
X037249Y037133D01*
X034819Y037133D01*
X034819Y040533D01*
X037249Y040533D01*
X036519Y040483D02*
X036515Y040439D01*
X036507Y040396D01*
X036496Y040354D01*
X036481Y040313D01*
X036462Y040274D01*
X036440Y040236D01*
X036415Y040201D01*
X036386Y040167D01*
X036355Y040136D01*
X036321Y040109D01*
X036286Y040084D01*
X036248Y040062D01*
X036208Y040044D01*
X036167Y040029D01*
X036124Y040018D01*
X036081Y040011D01*
X036038Y040007D01*
X035994Y040008D01*
X035950Y040012D01*
X035907Y040020D01*
X035865Y040031D01*
X035824Y040046D01*
X035785Y040065D01*
X035747Y040087D01*
X035712Y040112D01*
X035678Y040141D01*
X035647Y040172D01*
X035620Y040206D01*
X035595Y040241D01*
X035573Y040279D01*
X035555Y040319D01*
X035540Y040360D01*
X035529Y040403D01*
X035522Y040446D01*
X035518Y040489D01*
X035519Y040533D01*
X032347Y040533D02*
X032347Y037133D01*
X029917Y037133D01*
X029917Y040533D01*
X032347Y040533D01*
X031617Y040483D02*
X031613Y040439D01*
X031605Y040396D01*
X031594Y040354D01*
X031579Y040313D01*
X031560Y040274D01*
X031538Y040236D01*
X031513Y040201D01*
X031484Y040167D01*
X031453Y040136D01*
X031419Y040109D01*
X031384Y040084D01*
X031346Y040062D01*
X031306Y040044D01*
X031265Y040029D01*
X031222Y040018D01*
X031179Y040011D01*
X031136Y040007D01*
X031092Y040008D01*
X031048Y040012D01*
X031005Y040020D01*
X030963Y040031D01*
X030922Y040046D01*
X030883Y040065D01*
X030845Y040087D01*
X030810Y040112D01*
X030776Y040141D01*
X030745Y040172D01*
X030718Y040206D01*
X030693Y040241D01*
X030671Y040279D01*
X030653Y040319D01*
X030638Y040360D01*
X030627Y040403D01*
X030620Y040446D01*
X030616Y040489D01*
X030617Y040533D01*
X024124Y039139D02*
X024048Y039139D01*
X023748Y039439D01*
X023673Y039439D01*
X023673Y039139D01*
X023748Y038979D02*
X023673Y038904D01*
X023673Y038679D01*
X024124Y038679D01*
X023973Y038679D02*
X023973Y038904D01*
X023898Y038979D01*
X023748Y038979D01*
X023673Y038519D02*
X023673Y038368D01*
X023673Y038443D02*
X024048Y038443D01*
X024124Y038368D01*
X024124Y038293D01*
X024048Y038218D01*
X022154Y037689D02*
X021974Y037689D01*
X021974Y037553D01*
X022064Y037598D01*
X022109Y037598D01*
X022154Y037553D01*
X022154Y037463D01*
X022109Y037418D01*
X022019Y037418D01*
X021974Y037463D01*
X021154Y037553D02*
X020974Y037553D01*
X021109Y037689D01*
X021109Y037418D01*
X020154Y037463D02*
X020109Y037418D01*
X020019Y037418D01*
X019974Y037463D01*
X020064Y037553D02*
X020109Y037553D01*
X020154Y037508D01*
X020154Y037463D01*
X020109Y037553D02*
X020154Y037598D01*
X020154Y037643D01*
X020109Y037689D01*
X020019Y037689D01*
X019974Y037643D01*
X019154Y037643D02*
X019154Y037598D01*
X018974Y037418D01*
X019154Y037418D01*
X019154Y037643D02*
X019109Y037689D01*
X019019Y037689D01*
X018974Y037643D01*
X018154Y037418D02*
X017974Y037418D01*
X018064Y037418D02*
X018064Y037689D01*
X017974Y037598D01*
X017654Y037839D02*
X017474Y037839D01*
X017564Y037839D02*
X017564Y037568D01*
X016654Y037613D02*
X016654Y037793D01*
X016609Y037839D01*
X016474Y037839D01*
X016474Y037568D01*
X016609Y037568D01*
X016654Y037613D01*
X014654Y037613D02*
X014609Y037568D01*
X014519Y037568D01*
X014474Y037613D01*
X014474Y037793D01*
X014519Y037839D01*
X014609Y037839D01*
X014654Y037793D01*
X014224Y038243D02*
X014224Y038318D01*
X014148Y038393D01*
X013773Y038393D01*
X013773Y038318D02*
X013773Y038469D01*
X013773Y038629D02*
X013773Y038854D01*
X013848Y038929D01*
X013998Y038929D01*
X014073Y038854D01*
X014073Y038629D01*
X014224Y038629D02*
X013773Y038629D01*
X013848Y039089D02*
X013773Y039164D01*
X013773Y039314D01*
X013848Y039389D01*
X013923Y039389D01*
X013998Y039314D01*
X014073Y039389D01*
X014148Y039389D01*
X014224Y039314D01*
X014224Y039164D01*
X014148Y039089D01*
X013998Y039239D02*
X013998Y039314D01*
X014824Y039963D02*
X014869Y039918D01*
X014959Y039918D01*
X015004Y039963D01*
X015004Y040053D01*
X014959Y040098D01*
X014914Y040098D01*
X014824Y040053D01*
X014824Y040189D01*
X015004Y040189D01*
X015118Y040189D02*
X015118Y040008D01*
X015208Y039918D01*
X015298Y040008D01*
X015298Y040189D01*
X015974Y040143D02*
X015974Y039963D01*
X016019Y039918D01*
X016109Y039918D01*
X016154Y039963D01*
X016154Y040053D01*
X016064Y040053D01*
X016154Y040143D02*
X016109Y040189D01*
X016019Y040189D01*
X015974Y040143D01*
X016974Y040189D02*
X017109Y040189D01*
X017154Y040143D01*
X017154Y040053D01*
X017109Y040008D01*
X016974Y040008D01*
X017064Y040008D02*
X017154Y039918D01*
X016974Y039918D02*
X016974Y040189D01*
X017974Y040143D02*
X017974Y039963D01*
X018019Y039918D01*
X018109Y039918D01*
X018154Y039963D01*
X018154Y040053D01*
X018064Y040053D01*
X018154Y040143D02*
X018109Y040189D01*
X018019Y040189D01*
X017974Y040143D01*
X018974Y040143D02*
X018974Y039963D01*
X019019Y039918D01*
X019109Y039918D01*
X019154Y039963D01*
X019154Y040053D01*
X019064Y040053D01*
X019154Y040143D02*
X019109Y040189D01*
X019019Y040189D01*
X018974Y040143D01*
X019974Y040143D02*
X019974Y039963D01*
X020019Y039918D01*
X020109Y039918D01*
X020154Y039963D01*
X020154Y040053D01*
X020064Y040053D01*
X020154Y040143D02*
X020109Y040189D01*
X020019Y040189D01*
X019974Y040143D01*
X020974Y040143D02*
X020974Y039963D01*
X021019Y039918D01*
X021109Y039918D01*
X021154Y039963D01*
X021154Y040053D01*
X021064Y040053D01*
X021154Y040143D02*
X021109Y040189D01*
X021019Y040189D01*
X020974Y040143D01*
X021527Y040771D02*
X021633Y040771D01*
X021527Y040771D02*
X021421Y040877D01*
X021421Y040983D01*
X021633Y041196D01*
X021739Y041196D01*
X021846Y041090D01*
X021846Y040983D01*
X022012Y040923D02*
X021853Y040764D01*
X022012Y040711D01*
X022065Y040658D01*
X022065Y040552D01*
X021959Y040446D01*
X021853Y040446D01*
X021746Y040552D01*
X021746Y040658D01*
X022012Y040923D02*
X022224Y040711D01*
X022109Y040189D02*
X022019Y040189D01*
X021974Y040143D01*
X021974Y039963D01*
X022019Y039918D01*
X022109Y039918D01*
X022154Y039963D01*
X022154Y040053D01*
X022064Y040053D01*
X022154Y040143D02*
X022109Y040189D01*
X014224Y038243D02*
X014148Y038168D01*
X013940Y033488D02*
X014824Y033488D01*
X014735Y033389D02*
X014555Y033389D01*
X014645Y033389D02*
X014645Y033118D01*
X014440Y033163D02*
X014395Y033118D01*
X014305Y033118D01*
X014260Y033163D01*
X014305Y033253D02*
X014395Y033253D01*
X014440Y033208D01*
X014440Y033163D01*
X014305Y033253D02*
X014260Y033298D01*
X014260Y033343D01*
X014305Y033389D01*
X014395Y033389D01*
X014440Y033343D01*
X014146Y033343D02*
X014146Y033253D01*
X014101Y033208D01*
X013965Y033208D01*
X013965Y033118D02*
X013965Y033389D01*
X014101Y033389D01*
X014146Y033343D01*
X014056Y033208D02*
X014146Y033118D01*
X013863Y033118D02*
X013818Y033118D01*
X013818Y033163D01*
X013863Y033163D01*
X013863Y033118D01*
X013704Y033163D02*
X013659Y033118D01*
X013569Y033118D01*
X013524Y033163D01*
X013524Y033253D02*
X013614Y033298D01*
X013659Y033298D01*
X013704Y033253D01*
X013704Y033163D01*
X013524Y033253D02*
X013524Y033389D01*
X013704Y033389D01*
X013659Y032389D02*
X013704Y032343D01*
X013704Y032298D01*
X013659Y032253D01*
X013704Y032208D01*
X013704Y032163D01*
X013659Y032118D01*
X013569Y032118D01*
X013524Y032163D01*
X013614Y032253D02*
X013659Y032253D01*
X013659Y032389D02*
X013569Y032389D01*
X013524Y032343D01*
X013818Y032163D02*
X013863Y032163D01*
X013863Y032118D01*
X013818Y032118D01*
X013818Y032163D01*
X013965Y032163D02*
X014011Y032118D01*
X014101Y032118D01*
X014146Y032163D01*
X014146Y032208D01*
X014101Y032253D01*
X014011Y032253D01*
X013965Y032298D01*
X013965Y032343D01*
X014011Y032389D01*
X014101Y032389D01*
X014146Y032343D01*
X014260Y032343D02*
X014260Y032163D01*
X014305Y032118D01*
X014395Y032118D01*
X014440Y032163D01*
X014555Y032118D02*
X014555Y032389D01*
X014440Y032343D02*
X014395Y032389D01*
X014305Y032389D01*
X014260Y032343D01*
X014555Y032208D02*
X014735Y032389D01*
X014600Y032253D02*
X014735Y032118D01*
X014350Y031389D02*
X014260Y031389D01*
X014305Y031389D02*
X014305Y031118D01*
X014260Y031118D02*
X014350Y031118D01*
X014146Y031118D02*
X014146Y031389D01*
X014056Y031298D01*
X013965Y031389D01*
X013965Y031118D01*
X013863Y031118D02*
X013818Y031118D01*
X013818Y031163D01*
X013863Y031163D01*
X013863Y031118D01*
X013704Y031118D02*
X013524Y031118D01*
X013614Y031118D02*
X013614Y031389D01*
X013524Y031298D01*
X011259Y031273D02*
X011214Y031319D01*
X011124Y031319D01*
X011079Y031273D01*
X011259Y031273D02*
X011259Y031228D01*
X011079Y031048D01*
X011259Y031048D01*
X010977Y031048D02*
X010932Y031048D01*
X010932Y031093D01*
X010977Y031093D01*
X010977Y031048D01*
X010817Y031093D02*
X010772Y031048D01*
X010682Y031048D01*
X010637Y031093D01*
X010637Y031273D01*
X010682Y031319D01*
X010772Y031319D01*
X010817Y031273D01*
X010522Y031273D02*
X010477Y031319D01*
X010387Y031319D01*
X010342Y031273D01*
X010342Y031093D01*
X010387Y031048D01*
X010477Y031048D01*
X010522Y031093D01*
X010228Y031138D02*
X010228Y031319D01*
X010048Y031319D02*
X010048Y031138D01*
X010138Y031048D01*
X010228Y031138D01*
X010485Y032048D02*
X010440Y032093D01*
X010485Y032048D02*
X010576Y032048D01*
X010621Y032093D01*
X010621Y032138D01*
X010576Y032183D01*
X010485Y032183D01*
X010440Y032228D01*
X010440Y032273D01*
X010485Y032319D01*
X010576Y032319D01*
X010621Y032273D01*
X010735Y032319D02*
X010825Y032319D01*
X010780Y032319D02*
X010780Y032048D01*
X010735Y032048D02*
X010825Y032048D01*
X010932Y032048D02*
X010977Y032048D01*
X010977Y032093D01*
X010932Y032093D01*
X010932Y032048D01*
X011079Y032183D02*
X011259Y032183D01*
X011214Y032048D02*
X011214Y032319D01*
X011079Y032183D01*
X011124Y032998D02*
X011214Y032998D01*
X011259Y033043D01*
X011259Y033088D01*
X011214Y033133D01*
X011079Y033133D01*
X011079Y033043D01*
X011124Y032998D01*
X011079Y033133D02*
X011169Y033223D01*
X011259Y033269D01*
X010977Y033043D02*
X010977Y032998D01*
X010932Y032998D01*
X010932Y033043D01*
X010977Y033043D01*
X010817Y033043D02*
X010817Y033223D01*
X010772Y033269D01*
X010637Y033269D01*
X010637Y032998D01*
X010772Y032998D01*
X010817Y033043D01*
X010522Y032998D02*
X010522Y033269D01*
X010342Y033269D02*
X010522Y032998D01*
X010342Y032998D02*
X010342Y033269D01*
X010228Y033223D02*
X010183Y033269D01*
X010093Y033269D01*
X010048Y033223D01*
X010048Y033043D01*
X010093Y032998D01*
X010183Y032998D01*
X010228Y033043D01*
X010228Y033133D01*
X010138Y033133D01*
X005435Y034113D02*
X005435Y034293D01*
X005390Y034339D01*
X005255Y034339D01*
X005255Y034068D01*
X005390Y034068D01*
X005435Y034113D01*
X005140Y034068D02*
X004960Y034339D01*
X004846Y034293D02*
X004846Y034203D01*
X004801Y034158D01*
X004665Y034158D01*
X004665Y034068D02*
X004665Y034339D01*
X004801Y034339D01*
X004846Y034293D01*
X004756Y034158D02*
X004846Y034068D01*
X004960Y034068D02*
X005140Y034339D01*
X004563Y034113D02*
X004563Y034068D01*
X004518Y034068D01*
X004518Y034113D01*
X004563Y034113D01*
X004404Y034113D02*
X004359Y034068D01*
X004269Y034068D01*
X004224Y034113D01*
X004224Y034203D02*
X004314Y034248D01*
X004359Y034248D01*
X004404Y034203D01*
X004404Y034113D01*
X004224Y034203D02*
X004224Y034339D01*
X004404Y034339D01*
X004359Y035068D02*
X004359Y035339D01*
X004224Y035203D01*
X004404Y035203D01*
X004518Y035113D02*
X004563Y035113D01*
X004563Y035068D01*
X004518Y035068D01*
X004518Y035113D01*
X004756Y035068D02*
X004756Y035339D01*
X004846Y035339D02*
X004665Y035339D01*
X004960Y035339D02*
X005140Y035068D01*
X005255Y035068D02*
X005390Y035068D01*
X005435Y035113D01*
X005435Y035293D01*
X005390Y035339D01*
X005255Y035339D01*
X005255Y035068D01*
X005140Y035339D02*
X004960Y035068D01*
X005005Y036068D02*
X005095Y036068D01*
X005140Y036113D01*
X005255Y036113D02*
X005300Y036068D01*
X005390Y036068D01*
X005435Y036113D01*
X005255Y036113D02*
X005255Y036293D01*
X005300Y036339D01*
X005390Y036339D01*
X005435Y036293D01*
X005140Y036293D02*
X005095Y036339D01*
X005005Y036339D01*
X004960Y036293D01*
X004960Y036113D01*
X005005Y036068D01*
X004846Y036158D02*
X004846Y036339D01*
X004665Y036339D02*
X004665Y036158D01*
X004756Y036068D01*
X004846Y036158D01*
X004563Y036113D02*
X004563Y036068D01*
X004518Y036068D01*
X004518Y036113D01*
X004563Y036113D01*
X004404Y036113D02*
X004359Y036068D01*
X004269Y036068D01*
X004224Y036113D01*
X004314Y036203D02*
X004359Y036203D01*
X004404Y036158D01*
X004404Y036113D01*
X004359Y036203D02*
X004404Y036248D01*
X004404Y036293D01*
X004359Y036339D01*
X004269Y036339D01*
X004224Y036293D01*
X004264Y038018D02*
X004264Y038289D01*
X004174Y038198D01*
X004174Y038018D02*
X004354Y038018D01*
X004468Y038018D02*
X004513Y038018D01*
X004513Y038063D01*
X004468Y038063D01*
X004468Y038018D01*
X004615Y038063D02*
X004661Y038018D01*
X004751Y038018D01*
X004796Y038063D01*
X004796Y038153D01*
X004706Y038153D01*
X004796Y038243D02*
X004751Y038289D01*
X004661Y038289D01*
X004615Y038243D01*
X004615Y038063D01*
X004910Y038018D02*
X004910Y038289D01*
X005090Y038018D01*
X005090Y038289D01*
X005205Y038289D02*
X005340Y038289D01*
X005385Y038243D01*
X005385Y038063D01*
X005340Y038018D01*
X005205Y038018D01*
X005205Y038289D01*
X003654Y038813D02*
X003654Y038888D01*
X003578Y038963D01*
X003203Y038963D01*
X003203Y038888D02*
X003203Y039039D01*
X003203Y039199D02*
X003203Y039424D01*
X003278Y039499D01*
X003428Y039499D01*
X003503Y039424D01*
X003503Y039199D01*
X003654Y039199D02*
X003203Y039199D01*
X003278Y039659D02*
X003203Y039734D01*
X003203Y039884D01*
X003278Y039959D01*
X003353Y039959D01*
X003654Y039659D01*
X003654Y039959D01*
X003654Y038813D02*
X003578Y038738D01*
X005712Y040630D02*
X005712Y042957D01*
X008285Y042957D02*
X008285Y040630D01*
X008151Y039953D02*
X008151Y039653D01*
X008151Y039803D02*
X007700Y039803D01*
X007850Y039653D01*
X007775Y039493D02*
X007925Y039493D01*
X008000Y039418D01*
X008000Y039193D01*
X008151Y039193D02*
X007700Y039193D01*
X007700Y039418D01*
X007775Y039493D01*
X007700Y039032D02*
X007700Y038732D01*
X007700Y038882D02*
X008151Y038882D01*
X004604Y032020D02*
X003797Y032020D01*
X004604Y032020D02*
X004604Y031921D01*
X002813Y032020D02*
X002467Y032020D01*
X002467Y029067D01*
X002813Y029067D01*
X003797Y029067D02*
X004604Y029067D01*
X004604Y029165D01*
X007649Y027443D02*
X008449Y027443D01*
X008449Y027143D01*
X008549Y027143D02*
X008549Y027443D01*
X009349Y027443D01*
X009349Y027143D01*
X007649Y027143D02*
X007649Y027443D01*
X012133Y025601D02*
X012133Y025526D01*
X012208Y025451D01*
X012358Y025451D01*
X012433Y025376D01*
X012433Y025301D01*
X012358Y025226D01*
X012208Y025226D01*
X012133Y025301D01*
X012133Y025601D02*
X012208Y025676D01*
X012358Y025676D01*
X012433Y025601D01*
X012593Y025526D02*
X012744Y025676D01*
X012744Y025226D01*
X012894Y025226D02*
X012593Y025226D01*
X014149Y025243D02*
X014149Y024943D01*
X014949Y024943D01*
X014949Y025243D01*
X014974Y025528D02*
X015274Y025528D01*
X014974Y025528D02*
X014974Y025979D01*
X016008Y046479D02*
X016008Y046704D01*
X016083Y046779D01*
X016383Y046779D01*
X016458Y046704D01*
X016458Y046479D01*
X016008Y046479D01*
X016008Y046939D02*
X016233Y046939D01*
X016158Y047089D01*
X016158Y047165D01*
X016233Y047240D01*
X016383Y047240D01*
X016458Y047165D01*
X016458Y047014D01*
X016383Y046939D01*
X016008Y046939D02*
X016008Y047240D01*
X005435Y048563D02*
X005435Y048743D01*
X005390Y048789D01*
X005255Y048789D01*
X005255Y048518D01*
X005390Y048518D01*
X005435Y048563D01*
X005140Y048518D02*
X005140Y048789D01*
X004960Y048789D02*
X005140Y048518D01*
X004960Y048518D02*
X004960Y048789D01*
X004846Y048743D02*
X004801Y048789D01*
X004711Y048789D01*
X004665Y048743D01*
X004665Y048563D01*
X004711Y048518D01*
X004801Y048518D01*
X004846Y048563D01*
X004846Y048653D01*
X004756Y048653D01*
X004563Y048563D02*
X004563Y048518D01*
X004518Y048518D01*
X004518Y048563D01*
X004563Y048563D01*
X004404Y048563D02*
X004359Y048518D01*
X004269Y048518D01*
X004224Y048563D01*
X004314Y048653D02*
X004359Y048653D01*
X004404Y048608D01*
X004404Y048563D01*
X004359Y048653D02*
X004404Y048698D01*
X004404Y048743D01*
X004359Y048789D01*
X004269Y048789D01*
X004224Y048743D01*
X004174Y049518D02*
X004354Y049698D01*
X004354Y049743D01*
X004309Y049789D01*
X004219Y049789D01*
X004174Y049743D01*
X004174Y049518D02*
X004354Y049518D01*
X004468Y049518D02*
X004513Y049518D01*
X004513Y049563D01*
X004468Y049563D01*
X004468Y049518D01*
X004706Y049518D02*
X004706Y049789D01*
X004796Y049789D02*
X004615Y049789D01*
X004910Y049789D02*
X005090Y049518D01*
X005205Y049518D02*
X005340Y049518D01*
X005385Y049563D01*
X005385Y049743D01*
X005340Y049789D01*
X005205Y049789D01*
X005205Y049518D01*
X005090Y049789D02*
X004910Y049518D01*
X004910Y050518D02*
X005090Y050789D01*
X005205Y050789D02*
X005340Y050789D01*
X005385Y050743D01*
X005385Y050563D01*
X005340Y050518D01*
X005205Y050518D01*
X005205Y050789D01*
X005090Y050518D02*
X004910Y050789D01*
X004796Y050743D02*
X004796Y050653D01*
X004751Y050608D01*
X004615Y050608D01*
X004615Y050518D02*
X004615Y050789D01*
X004751Y050789D01*
X004796Y050743D01*
X004706Y050608D02*
X004796Y050518D01*
X004513Y050518D02*
X004468Y050518D01*
X004468Y050563D01*
X004513Y050563D01*
X004513Y050518D01*
X004354Y050518D02*
X004174Y050518D01*
X004264Y050518D02*
X004264Y050789D01*
X004174Y050698D01*
X002914Y050505D02*
X002574Y050505D01*
X002574Y050618D02*
X002574Y050391D01*
X002800Y050618D02*
X002914Y050505D01*
X002857Y049618D02*
X002914Y049562D01*
X002914Y049448D01*
X002857Y049391D01*
X002800Y049391D01*
X002574Y049618D01*
X002574Y049391D01*
X002630Y048618D02*
X002574Y048562D01*
X002574Y048448D01*
X002630Y048391D01*
X002687Y048391D01*
X002744Y048448D01*
X002744Y048505D01*
X002744Y048448D02*
X002800Y048391D01*
X002857Y048391D01*
X002914Y048448D01*
X002914Y048562D01*
X002857Y048618D01*
X003449Y048068D02*
X003374Y047993D01*
X003374Y047918D01*
X003449Y047843D01*
X003824Y047843D01*
X003824Y047918D02*
X003824Y047768D01*
X003824Y047608D02*
X003374Y047608D01*
X003524Y047608D02*
X003524Y047383D01*
X003599Y047308D01*
X003749Y047308D01*
X003824Y047383D01*
X003824Y047608D01*
X003674Y047148D02*
X003824Y046997D01*
X003374Y046997D01*
X003374Y046847D02*
X003374Y047148D01*
X003600Y054179D02*
X003600Y054479D01*
X004400Y054479D01*
X004400Y054179D01*
X004600Y054179D02*
X004600Y054479D01*
X005400Y054479D01*
X005400Y054179D01*
X005168Y054860D02*
X004717Y054860D01*
X004717Y054710D02*
X004717Y055010D01*
X004717Y055170D02*
X005168Y055470D01*
X005168Y055170D02*
X004717Y055470D01*
X004178Y055460D02*
X003727Y055160D01*
X003802Y055000D02*
X003952Y055000D01*
X004028Y054925D01*
X004028Y054700D01*
X004178Y054700D02*
X003727Y054700D01*
X003727Y054925D01*
X003802Y055000D01*
X004028Y054850D02*
X004178Y055000D01*
X004178Y055160D02*
X003727Y055460D01*
X023059Y056807D02*
X023059Y060153D01*
X025027Y060153D01*
X025027Y056807D01*
X023059Y056807D01*
X029008Y056699D02*
X029308Y056699D01*
X029158Y056699D02*
X029158Y057150D01*
X029008Y057000D01*
X029083Y057699D02*
X029233Y057699D01*
X029308Y057774D01*
X029308Y058075D01*
X029233Y058150D01*
X029083Y058150D01*
X029008Y058075D01*
X029008Y058000D01*
X029083Y057925D01*
X029308Y057925D01*
X029083Y057699D02*
X029008Y057774D01*
X029008Y060799D02*
X029008Y061250D01*
X029308Y061250D01*
X029468Y061100D02*
X029618Y061250D01*
X029618Y060799D01*
X029468Y060799D02*
X029768Y060799D01*
X029929Y060874D02*
X030004Y060799D01*
X030154Y060799D01*
X030229Y060874D01*
X030229Y061025D01*
X030154Y061100D01*
X030079Y061100D01*
X029929Y061025D01*
X029929Y061250D01*
X030229Y061250D01*
X029158Y061025D02*
X029008Y061025D01*
X038008Y058000D02*
X038158Y058150D01*
X038158Y057699D01*
X038008Y057699D02*
X038308Y057699D01*
X038468Y057774D02*
X038543Y057699D01*
X038693Y057699D01*
X038768Y057774D01*
X038768Y057925D01*
X038693Y058000D01*
X038618Y058000D01*
X038468Y057925D01*
X038468Y058150D01*
X038768Y058150D01*
X038233Y057150D02*
X038308Y057075D01*
X038308Y057000D01*
X038233Y056925D01*
X038083Y056925D01*
X038008Y057000D01*
X038008Y057075D01*
X038083Y057150D01*
X038233Y057150D01*
X038233Y056925D02*
X038308Y056850D01*
X038308Y056774D01*
X038233Y056699D01*
X038083Y056699D01*
X038008Y056774D01*
X038008Y056850D01*
X038083Y056925D01*
X040657Y058524D02*
X040732Y058449D01*
X040657Y058524D02*
X040657Y058675D01*
X040732Y058750D01*
X040808Y058750D01*
X041108Y058449D01*
X041108Y058750D01*
X041258Y058910D02*
X041108Y059060D01*
X041108Y058985D01*
X041033Y058985D01*
X041033Y059060D01*
X041108Y059060D01*
X041033Y059217D02*
X041108Y059292D01*
X041108Y059442D01*
X041033Y059517D01*
X040883Y059517D01*
X040808Y059442D01*
X040808Y059367D01*
X040883Y059217D01*
X040657Y059217D01*
X040657Y059517D01*
X040883Y059677D02*
X040883Y059977D01*
X041108Y059902D02*
X040657Y059902D01*
X040883Y059677D01*
X048695Y060799D02*
X048695Y061250D01*
X048995Y061250D01*
X049155Y061100D02*
X049305Y061250D01*
X049305Y060799D01*
X049155Y060799D02*
X049455Y060799D01*
X049616Y060874D02*
X049691Y060799D01*
X049841Y060799D01*
X049916Y060874D01*
X049916Y061025D01*
X049841Y061100D01*
X049766Y061100D01*
X049616Y061025D01*
X049616Y061250D01*
X049916Y061250D01*
X048845Y061025D02*
X048695Y061025D01*
X048770Y058150D02*
X048695Y058075D01*
X048695Y058000D01*
X048770Y057925D01*
X048995Y057925D01*
X048995Y058075D02*
X048920Y058150D01*
X048770Y058150D01*
X048995Y058075D02*
X048995Y057774D01*
X048920Y057699D01*
X048770Y057699D01*
X048695Y057774D01*
X048845Y057150D02*
X048845Y056699D01*
X048695Y056699D02*
X048995Y056699D01*
X048695Y057000D02*
X048845Y057150D01*
X057695Y057075D02*
X057695Y057000D01*
X057770Y056925D01*
X057920Y056925D01*
X057995Y056850D01*
X057995Y056774D01*
X057920Y056699D01*
X057770Y056699D01*
X057695Y056774D01*
X057695Y056850D01*
X057770Y056925D01*
X057920Y056925D02*
X057995Y057000D01*
X057995Y057075D01*
X057920Y057150D01*
X057770Y057150D01*
X057695Y057075D01*
X057695Y057699D02*
X057995Y057699D01*
X057845Y057699D02*
X057845Y058150D01*
X057695Y058000D01*
X058155Y057925D02*
X058305Y058000D01*
X058380Y058000D01*
X058455Y057925D01*
X058455Y057774D01*
X058380Y057699D01*
X058230Y057699D01*
X058155Y057774D01*
X058155Y057925D02*
X058155Y058150D01*
X058455Y058150D01*
X060344Y058524D02*
X060419Y058449D01*
X060344Y058524D02*
X060344Y058675D01*
X060419Y058750D01*
X060495Y058750D01*
X060795Y058449D01*
X060795Y058750D01*
X060945Y058910D02*
X060795Y059060D01*
X060795Y058985D01*
X060720Y058985D01*
X060720Y059060D01*
X060795Y059060D01*
X060720Y059217D02*
X060795Y059292D01*
X060795Y059442D01*
X060720Y059517D01*
X060570Y059517D01*
X060495Y059442D01*
X060495Y059367D01*
X060570Y059217D01*
X060344Y059217D01*
X060344Y059517D01*
X060570Y059677D02*
X060570Y059977D01*
X060795Y059902D02*
X060344Y059902D01*
X060570Y059677D01*
X060260Y050233D02*
X060259Y050189D01*
X060263Y050146D01*
X060270Y050103D01*
X060281Y050060D01*
X060296Y050019D01*
X060314Y049979D01*
X060336Y049941D01*
X060361Y049906D01*
X060388Y049872D01*
X060419Y049841D01*
X060453Y049812D01*
X060488Y049787D01*
X060526Y049765D01*
X060565Y049746D01*
X060606Y049731D01*
X060648Y049720D01*
X060691Y049712D01*
X060735Y049708D01*
X060779Y049707D01*
X060822Y049711D01*
X060865Y049718D01*
X060908Y049729D01*
X060949Y049744D01*
X060989Y049762D01*
X061027Y049784D01*
X061062Y049809D01*
X061096Y049836D01*
X061127Y049867D01*
X061156Y049901D01*
X061181Y049936D01*
X061203Y049974D01*
X061222Y050013D01*
X061237Y050054D01*
X061248Y050096D01*
X061256Y050139D01*
X061260Y050183D01*
X061990Y050233D02*
X061990Y046833D01*
X059560Y046833D01*
X059560Y050233D01*
X061990Y050233D01*
X064739Y050233D02*
X067169Y050233D01*
X067169Y046833D01*
X064739Y046833D01*
X064739Y050233D01*
X065439Y050233D02*
X065438Y050189D01*
X065442Y050146D01*
X065449Y050103D01*
X065460Y050060D01*
X065475Y050019D01*
X065493Y049979D01*
X065515Y049941D01*
X065540Y049906D01*
X065567Y049872D01*
X065598Y049841D01*
X065632Y049812D01*
X065667Y049787D01*
X065705Y049765D01*
X065744Y049746D01*
X065785Y049731D01*
X065827Y049720D01*
X065870Y049712D01*
X065914Y049708D01*
X065958Y049707D01*
X066001Y049711D01*
X066044Y049718D01*
X066087Y049729D01*
X066128Y049744D01*
X066168Y049762D01*
X066206Y049784D01*
X066241Y049809D01*
X066275Y049836D01*
X066306Y049867D01*
X066335Y049901D01*
X066360Y049936D01*
X066382Y049974D01*
X066401Y050013D01*
X066416Y050054D01*
X066427Y050096D01*
X066435Y050139D01*
X066439Y050183D01*
X057111Y050233D02*
X057111Y046833D01*
X054681Y046833D01*
X054681Y050233D01*
X057111Y050233D01*
X056381Y050183D02*
X056377Y050139D01*
X056369Y050096D01*
X056358Y050054D01*
X056343Y050013D01*
X056324Y049974D01*
X056302Y049936D01*
X056277Y049901D01*
X056248Y049867D01*
X056217Y049836D01*
X056183Y049809D01*
X056148Y049784D01*
X056110Y049762D01*
X056070Y049744D01*
X056029Y049729D01*
X055986Y049718D01*
X055943Y049711D01*
X055900Y049707D01*
X055856Y049708D01*
X055812Y049712D01*
X055769Y049720D01*
X055727Y049731D01*
X055686Y049746D01*
X055647Y049765D01*
X055609Y049787D01*
X055574Y049812D01*
X055540Y049841D01*
X055509Y049872D01*
X055482Y049906D01*
X055457Y049941D01*
X055435Y049979D01*
X055417Y050019D01*
X055402Y050060D01*
X055391Y050103D01*
X055384Y050146D01*
X055380Y050189D01*
X055381Y050233D01*
X052282Y050233D02*
X052282Y046833D01*
X049852Y046833D01*
X049852Y050233D01*
X052282Y050233D01*
X051552Y050183D02*
X051548Y050139D01*
X051540Y050096D01*
X051529Y050054D01*
X051514Y050013D01*
X051495Y049974D01*
X051473Y049936D01*
X051448Y049901D01*
X051419Y049867D01*
X051388Y049836D01*
X051354Y049809D01*
X051319Y049784D01*
X051281Y049762D01*
X051241Y049744D01*
X051200Y049729D01*
X051157Y049718D01*
X051114Y049711D01*
X051071Y049707D01*
X051027Y049708D01*
X050983Y049712D01*
X050940Y049720D01*
X050898Y049731D01*
X050857Y049746D01*
X050818Y049765D01*
X050780Y049787D01*
X050745Y049812D01*
X050711Y049841D01*
X050680Y049872D01*
X050653Y049906D01*
X050628Y049941D01*
X050606Y049979D01*
X050588Y050019D01*
X050573Y050060D01*
X050562Y050103D01*
X050555Y050146D01*
X050551Y050189D01*
X050552Y050233D01*
X047204Y050233D02*
X047204Y046833D01*
X044774Y046833D01*
X044774Y050233D01*
X047204Y050233D01*
X046474Y050183D02*
X046470Y050139D01*
X046462Y050096D01*
X046451Y050054D01*
X046436Y050013D01*
X046417Y049974D01*
X046395Y049936D01*
X046370Y049901D01*
X046341Y049867D01*
X046310Y049836D01*
X046276Y049809D01*
X046241Y049784D01*
X046203Y049762D01*
X046163Y049744D01*
X046122Y049729D01*
X046079Y049718D01*
X046036Y049711D01*
X045993Y049707D01*
X045949Y049708D01*
X045905Y049712D01*
X045862Y049720D01*
X045820Y049731D01*
X045779Y049746D01*
X045740Y049765D01*
X045702Y049787D01*
X045667Y049812D01*
X045633Y049841D01*
X045602Y049872D01*
X045575Y049906D01*
X045550Y049941D01*
X045528Y049979D01*
X045510Y050019D01*
X045495Y050060D01*
X045484Y050103D01*
X045477Y050146D01*
X045473Y050189D01*
X045474Y050233D01*
X042225Y050233D02*
X042225Y046833D01*
X039795Y046833D01*
X039795Y050233D01*
X042225Y050233D01*
X041495Y050183D02*
X041491Y050139D01*
X041483Y050096D01*
X041472Y050054D01*
X041457Y050013D01*
X041438Y049974D01*
X041416Y049936D01*
X041391Y049901D01*
X041362Y049867D01*
X041331Y049836D01*
X041297Y049809D01*
X041262Y049784D01*
X041224Y049762D01*
X041184Y049744D01*
X041143Y049729D01*
X041100Y049718D01*
X041057Y049711D01*
X041014Y049707D01*
X040970Y049708D01*
X040926Y049712D01*
X040883Y049720D01*
X040841Y049731D01*
X040800Y049746D01*
X040761Y049765D01*
X040723Y049787D01*
X040688Y049812D01*
X040654Y049841D01*
X040623Y049872D01*
X040596Y049906D01*
X040571Y049941D01*
X040549Y049979D01*
X040531Y050019D01*
X040516Y050060D01*
X040505Y050103D01*
X040498Y050146D01*
X040494Y050189D01*
X040495Y050233D01*
X037296Y050233D02*
X037296Y046833D01*
X034866Y046833D01*
X034866Y050233D01*
X037296Y050233D01*
X036566Y050183D02*
X036562Y050139D01*
X036554Y050096D01*
X036543Y050054D01*
X036528Y050013D01*
X036509Y049974D01*
X036487Y049936D01*
X036462Y049901D01*
X036433Y049867D01*
X036402Y049836D01*
X036368Y049809D01*
X036333Y049784D01*
X036295Y049762D01*
X036255Y049744D01*
X036214Y049729D01*
X036171Y049718D01*
X036128Y049711D01*
X036085Y049707D01*
X036041Y049708D01*
X035997Y049712D01*
X035954Y049720D01*
X035912Y049731D01*
X035871Y049746D01*
X035832Y049765D01*
X035794Y049787D01*
X035759Y049812D01*
X035725Y049841D01*
X035694Y049872D01*
X035667Y049906D01*
X035642Y049941D01*
X035620Y049979D01*
X035602Y050019D01*
X035587Y050060D01*
X035576Y050103D01*
X035569Y050146D01*
X035565Y050189D01*
X035566Y050233D01*
X032317Y050233D02*
X032317Y046833D01*
X029887Y046833D01*
X029887Y050233D01*
X032317Y050233D01*
X031587Y050183D02*
X031583Y050139D01*
X031575Y050096D01*
X031564Y050054D01*
X031549Y050013D01*
X031530Y049974D01*
X031508Y049936D01*
X031483Y049901D01*
X031454Y049867D01*
X031423Y049836D01*
X031389Y049809D01*
X031354Y049784D01*
X031316Y049762D01*
X031276Y049744D01*
X031235Y049729D01*
X031192Y049718D01*
X031149Y049711D01*
X031106Y049707D01*
X031062Y049708D01*
X031018Y049712D01*
X030975Y049720D01*
X030933Y049731D01*
X030892Y049746D01*
X030853Y049765D01*
X030815Y049787D01*
X030780Y049812D01*
X030746Y049841D01*
X030715Y049872D01*
X030688Y049906D01*
X030663Y049941D01*
X030641Y049979D01*
X030623Y050019D01*
X030608Y050060D01*
X030597Y050103D01*
X030590Y050146D01*
X030586Y050189D01*
X030587Y050233D01*
D12*
X028199Y051693D02*
X028199Y052713D01*
X028199Y053273D02*
X028199Y054293D01*
X025599Y054293D01*
X025599Y053273D01*
X025599Y053643D02*
X026249Y054293D01*
X024859Y053143D02*
X024859Y052843D01*
X025009Y052993D02*
X024709Y052993D01*
X025599Y052713D02*
X025599Y052343D01*
X026249Y051693D01*
X025599Y051693D02*
X028199Y051693D01*
X025599Y051693D02*
X025599Y052343D01*
X023899Y052173D02*
X023899Y051493D01*
X020899Y051493D01*
X020899Y052173D01*
X020979Y052173D02*
X021649Y051493D01*
X020019Y052993D02*
X019719Y052993D01*
X019869Y052843D02*
X019869Y053143D01*
X019069Y053343D02*
X019069Y053833D01*
X018239Y054663D01*
X019069Y054663D02*
X019069Y053833D01*
X019069Y054663D02*
X015729Y054663D01*
X015729Y053343D01*
X015729Y052643D02*
X015729Y051323D01*
X019069Y051323D01*
X019069Y052643D01*
X019069Y052153D02*
X018239Y051323D01*
X020899Y053813D02*
X020899Y054493D01*
X023899Y054493D01*
X023899Y053813D01*
X021649Y054493D02*
X020979Y053813D01*
X025883Y056424D02*
X025883Y060374D01*
X025883Y060424D01*
X025883Y061624D01*
X025883Y061824D01*
X026883Y061824D01*
X027883Y061824D01*
X039333Y061824D01*
X039333Y061624D01*
X039283Y061624D01*
X039283Y060674D01*
X039281Y060644D01*
X039276Y060614D01*
X039267Y060585D01*
X039254Y060558D01*
X039239Y060532D01*
X039220Y060508D01*
X039199Y060487D01*
X039175Y060468D01*
X039149Y060453D01*
X039122Y060440D01*
X039093Y060431D01*
X039063Y060426D01*
X039033Y060424D01*
X038983Y060424D02*
X038983Y056374D01*
X039183Y056174D01*
X041133Y056174D01*
X041333Y056374D01*
X041333Y060374D01*
X041333Y060424D01*
X039333Y060424D01*
X038983Y060424D01*
X038883Y060424D01*
X038883Y060124D01*
X028333Y060124D01*
X028333Y060424D01*
X038883Y060424D01*
X039333Y061824D02*
X040333Y061824D01*
X041333Y061824D01*
X041333Y061624D01*
X041333Y060424D01*
X041333Y061824D02*
X041333Y062024D01*
X038283Y062024D01*
X028933Y062024D01*
X025883Y062024D01*
X025883Y061824D01*
X025883Y060424D02*
X027883Y060424D01*
X028233Y060424D01*
X028233Y056374D01*
X028033Y056174D01*
X026133Y056174D01*
X025883Y056424D01*
X026423Y057424D02*
X026425Y057474D01*
X026431Y057524D01*
X026441Y057574D01*
X026454Y057622D01*
X026471Y057670D01*
X026492Y057716D01*
X026516Y057760D01*
X026544Y057802D01*
X026575Y057842D01*
X026609Y057879D01*
X026646Y057914D01*
X026685Y057945D01*
X026726Y057974D01*
X026770Y057999D01*
X026816Y058021D01*
X026863Y058039D01*
X026911Y058053D01*
X026960Y058064D01*
X027010Y058071D01*
X027060Y058074D01*
X027111Y058073D01*
X027161Y058068D01*
X027211Y058059D01*
X027259Y058047D01*
X027307Y058030D01*
X027353Y058010D01*
X027398Y057987D01*
X027441Y057960D01*
X027481Y057930D01*
X027519Y057897D01*
X027554Y057861D01*
X027587Y057822D01*
X027616Y057781D01*
X027642Y057738D01*
X027665Y057693D01*
X027684Y057646D01*
X027699Y057598D01*
X027711Y057549D01*
X027719Y057499D01*
X027723Y057449D01*
X027723Y057399D01*
X027719Y057349D01*
X027711Y057299D01*
X027699Y057250D01*
X027684Y057202D01*
X027665Y057155D01*
X027642Y057110D01*
X027616Y057067D01*
X027587Y057026D01*
X027554Y056987D01*
X027519Y056951D01*
X027481Y056918D01*
X027441Y056888D01*
X027398Y056861D01*
X027353Y056838D01*
X027307Y056818D01*
X027259Y056801D01*
X027211Y056789D01*
X027161Y056780D01*
X027111Y056775D01*
X027060Y056774D01*
X027010Y056777D01*
X026960Y056784D01*
X026911Y056795D01*
X026863Y056809D01*
X026816Y056827D01*
X026770Y056849D01*
X026726Y056874D01*
X026685Y056903D01*
X026646Y056934D01*
X026609Y056969D01*
X026575Y057006D01*
X026544Y057046D01*
X026516Y057088D01*
X026492Y057132D01*
X026471Y057178D01*
X026454Y057226D01*
X026441Y057274D01*
X026431Y057324D01*
X026425Y057374D01*
X026423Y057424D01*
X028233Y060424D02*
X028333Y060424D01*
X028183Y060424D02*
X028153Y060426D01*
X028123Y060431D01*
X028094Y060440D01*
X028067Y060453D01*
X028041Y060468D01*
X028017Y060487D01*
X027996Y060508D01*
X027977Y060532D01*
X027962Y060558D01*
X027949Y060585D01*
X027940Y060614D01*
X027935Y060644D01*
X027933Y060674D01*
X027933Y061624D01*
X027883Y061624D01*
X027883Y061824D01*
X028533Y062024D02*
X028563Y062026D01*
X028593Y062031D01*
X028622Y062040D01*
X028649Y062053D01*
X028675Y062068D01*
X028699Y062087D01*
X028720Y062108D01*
X028739Y062132D01*
X028754Y062158D01*
X028767Y062185D01*
X028776Y062214D01*
X028781Y062244D01*
X028783Y062274D01*
X028783Y064274D01*
X028785Y064300D01*
X028790Y064326D01*
X028798Y064351D01*
X028810Y064374D01*
X028824Y064396D01*
X028842Y064415D01*
X028861Y064433D01*
X028883Y064447D01*
X028906Y064459D01*
X028931Y064467D01*
X028957Y064472D01*
X028983Y064474D01*
X029083Y064474D01*
X038133Y064474D01*
X038233Y064474D01*
X038259Y064472D01*
X038285Y064467D01*
X038310Y064459D01*
X038333Y064447D01*
X038355Y064433D01*
X038374Y064415D01*
X038392Y064396D01*
X038406Y064374D01*
X038418Y064351D01*
X038426Y064326D01*
X038431Y064300D01*
X038433Y064274D01*
X038433Y062274D01*
X038435Y062244D01*
X038440Y062214D01*
X038449Y062185D01*
X038462Y062158D01*
X038477Y062132D01*
X038496Y062108D01*
X038517Y062087D01*
X038541Y062068D01*
X038567Y062053D01*
X038594Y062040D01*
X038623Y062031D01*
X038653Y062026D01*
X038683Y062024D01*
X039543Y057424D02*
X039545Y057474D01*
X039551Y057524D01*
X039561Y057574D01*
X039574Y057622D01*
X039591Y057670D01*
X039612Y057716D01*
X039636Y057760D01*
X039664Y057802D01*
X039695Y057842D01*
X039729Y057879D01*
X039766Y057914D01*
X039805Y057945D01*
X039846Y057974D01*
X039890Y057999D01*
X039936Y058021D01*
X039983Y058039D01*
X040031Y058053D01*
X040080Y058064D01*
X040130Y058071D01*
X040180Y058074D01*
X040231Y058073D01*
X040281Y058068D01*
X040331Y058059D01*
X040379Y058047D01*
X040427Y058030D01*
X040473Y058010D01*
X040518Y057987D01*
X040561Y057960D01*
X040601Y057930D01*
X040639Y057897D01*
X040674Y057861D01*
X040707Y057822D01*
X040736Y057781D01*
X040762Y057738D01*
X040785Y057693D01*
X040804Y057646D01*
X040819Y057598D01*
X040831Y057549D01*
X040839Y057499D01*
X040843Y057449D01*
X040843Y057399D01*
X040839Y057349D01*
X040831Y057299D01*
X040819Y057250D01*
X040804Y057202D01*
X040785Y057155D01*
X040762Y057110D01*
X040736Y057067D01*
X040707Y057026D01*
X040674Y056987D01*
X040639Y056951D01*
X040601Y056918D01*
X040561Y056888D01*
X040518Y056861D01*
X040473Y056838D01*
X040427Y056818D01*
X040379Y056801D01*
X040331Y056789D01*
X040281Y056780D01*
X040231Y056775D01*
X040180Y056774D01*
X040130Y056777D01*
X040080Y056784D01*
X040031Y056795D01*
X039983Y056809D01*
X039936Y056827D01*
X039890Y056849D01*
X039846Y056874D01*
X039805Y056903D01*
X039766Y056934D01*
X039729Y056969D01*
X039695Y057006D01*
X039664Y057046D01*
X039636Y057088D01*
X039612Y057132D01*
X039591Y057178D01*
X039574Y057226D01*
X039561Y057274D01*
X039551Y057324D01*
X039545Y057374D01*
X039543Y057424D01*
X045570Y056424D02*
X045570Y060374D01*
X045570Y060424D01*
X045570Y061624D01*
X045570Y061824D01*
X046570Y061824D01*
X047570Y061824D01*
X059020Y061824D01*
X059020Y061624D01*
X058970Y061624D01*
X058970Y060674D01*
X058968Y060644D01*
X058963Y060614D01*
X058954Y060585D01*
X058941Y060558D01*
X058926Y060532D01*
X058907Y060508D01*
X058886Y060487D01*
X058862Y060468D01*
X058836Y060453D01*
X058809Y060440D01*
X058780Y060431D01*
X058750Y060426D01*
X058720Y060424D01*
X058670Y060424D02*
X058670Y056374D01*
X058870Y056174D01*
X060820Y056174D01*
X061020Y056374D01*
X061020Y060374D01*
X061020Y060424D01*
X059020Y060424D01*
X058670Y060424D01*
X058570Y060424D01*
X058570Y060124D01*
X048020Y060124D01*
X048020Y060424D01*
X058570Y060424D01*
X059020Y061824D02*
X060020Y061824D01*
X061020Y061824D01*
X061020Y061624D01*
X061020Y060424D01*
X061020Y061824D02*
X061020Y062024D01*
X057970Y062024D01*
X048620Y062024D01*
X045570Y062024D01*
X045570Y061824D01*
X045570Y060424D02*
X047570Y060424D01*
X047920Y060424D01*
X047920Y056374D01*
X047720Y056174D01*
X045820Y056174D01*
X045570Y056424D01*
X046110Y057424D02*
X046112Y057474D01*
X046118Y057524D01*
X046128Y057574D01*
X046141Y057622D01*
X046158Y057670D01*
X046179Y057716D01*
X046203Y057760D01*
X046231Y057802D01*
X046262Y057842D01*
X046296Y057879D01*
X046333Y057914D01*
X046372Y057945D01*
X046413Y057974D01*
X046457Y057999D01*
X046503Y058021D01*
X046550Y058039D01*
X046598Y058053D01*
X046647Y058064D01*
X046697Y058071D01*
X046747Y058074D01*
X046798Y058073D01*
X046848Y058068D01*
X046898Y058059D01*
X046946Y058047D01*
X046994Y058030D01*
X047040Y058010D01*
X047085Y057987D01*
X047128Y057960D01*
X047168Y057930D01*
X047206Y057897D01*
X047241Y057861D01*
X047274Y057822D01*
X047303Y057781D01*
X047329Y057738D01*
X047352Y057693D01*
X047371Y057646D01*
X047386Y057598D01*
X047398Y057549D01*
X047406Y057499D01*
X047410Y057449D01*
X047410Y057399D01*
X047406Y057349D01*
X047398Y057299D01*
X047386Y057250D01*
X047371Y057202D01*
X047352Y057155D01*
X047329Y057110D01*
X047303Y057067D01*
X047274Y057026D01*
X047241Y056987D01*
X047206Y056951D01*
X047168Y056918D01*
X047128Y056888D01*
X047085Y056861D01*
X047040Y056838D01*
X046994Y056818D01*
X046946Y056801D01*
X046898Y056789D01*
X046848Y056780D01*
X046798Y056775D01*
X046747Y056774D01*
X046697Y056777D01*
X046647Y056784D01*
X046598Y056795D01*
X046550Y056809D01*
X046503Y056827D01*
X046457Y056849D01*
X046413Y056874D01*
X046372Y056903D01*
X046333Y056934D01*
X046296Y056969D01*
X046262Y057006D01*
X046231Y057046D01*
X046203Y057088D01*
X046179Y057132D01*
X046158Y057178D01*
X046141Y057226D01*
X046128Y057274D01*
X046118Y057324D01*
X046112Y057374D01*
X046110Y057424D01*
X047920Y060424D02*
X048020Y060424D01*
X047870Y060424D02*
X047840Y060426D01*
X047810Y060431D01*
X047781Y060440D01*
X047754Y060453D01*
X047728Y060468D01*
X047704Y060487D01*
X047683Y060508D01*
X047664Y060532D01*
X047649Y060558D01*
X047636Y060585D01*
X047627Y060614D01*
X047622Y060644D01*
X047620Y060674D01*
X047620Y061624D01*
X047570Y061624D01*
X047570Y061824D01*
X048220Y062024D02*
X048250Y062026D01*
X048280Y062031D01*
X048309Y062040D01*
X048336Y062053D01*
X048362Y062068D01*
X048386Y062087D01*
X048407Y062108D01*
X048426Y062132D01*
X048441Y062158D01*
X048454Y062185D01*
X048463Y062214D01*
X048468Y062244D01*
X048470Y062274D01*
X048470Y064274D01*
X048472Y064300D01*
X048477Y064326D01*
X048485Y064351D01*
X048497Y064374D01*
X048511Y064396D01*
X048529Y064415D01*
X048548Y064433D01*
X048570Y064447D01*
X048593Y064459D01*
X048618Y064467D01*
X048644Y064472D01*
X048670Y064474D01*
X048770Y064474D01*
X057820Y064474D01*
X057920Y064474D01*
X057946Y064472D01*
X057972Y064467D01*
X057997Y064459D01*
X058020Y064447D01*
X058042Y064433D01*
X058061Y064415D01*
X058079Y064396D01*
X058093Y064374D01*
X058105Y064351D01*
X058113Y064326D01*
X058118Y064300D01*
X058120Y064274D01*
X058120Y062274D01*
X058122Y062244D01*
X058127Y062214D01*
X058136Y062185D01*
X058149Y062158D01*
X058164Y062132D01*
X058183Y062108D01*
X058204Y062087D01*
X058228Y062068D01*
X058254Y062053D01*
X058281Y062040D01*
X058310Y062031D01*
X058340Y062026D01*
X058370Y062024D01*
X059230Y057424D02*
X059232Y057474D01*
X059238Y057524D01*
X059248Y057574D01*
X059261Y057622D01*
X059278Y057670D01*
X059299Y057716D01*
X059323Y057760D01*
X059351Y057802D01*
X059382Y057842D01*
X059416Y057879D01*
X059453Y057914D01*
X059492Y057945D01*
X059533Y057974D01*
X059577Y057999D01*
X059623Y058021D01*
X059670Y058039D01*
X059718Y058053D01*
X059767Y058064D01*
X059817Y058071D01*
X059867Y058074D01*
X059918Y058073D01*
X059968Y058068D01*
X060018Y058059D01*
X060066Y058047D01*
X060114Y058030D01*
X060160Y058010D01*
X060205Y057987D01*
X060248Y057960D01*
X060288Y057930D01*
X060326Y057897D01*
X060361Y057861D01*
X060394Y057822D01*
X060423Y057781D01*
X060449Y057738D01*
X060472Y057693D01*
X060491Y057646D01*
X060506Y057598D01*
X060518Y057549D01*
X060526Y057499D01*
X060530Y057449D01*
X060530Y057399D01*
X060526Y057349D01*
X060518Y057299D01*
X060506Y057250D01*
X060491Y057202D01*
X060472Y057155D01*
X060449Y057110D01*
X060423Y057067D01*
X060394Y057026D01*
X060361Y056987D01*
X060326Y056951D01*
X060288Y056918D01*
X060248Y056888D01*
X060205Y056861D01*
X060160Y056838D01*
X060114Y056818D01*
X060066Y056801D01*
X060018Y056789D01*
X059968Y056780D01*
X059918Y056775D01*
X059867Y056774D01*
X059817Y056777D01*
X059767Y056784D01*
X059718Y056795D01*
X059670Y056809D01*
X059623Y056827D01*
X059577Y056849D01*
X059533Y056874D01*
X059492Y056903D01*
X059453Y056934D01*
X059416Y056969D01*
X059382Y057006D01*
X059351Y057046D01*
X059323Y057088D01*
X059299Y057132D01*
X059278Y057178D01*
X059261Y057226D01*
X059248Y057274D01*
X059238Y057324D01*
X059232Y057374D01*
X059230Y057424D01*
X026399Y042943D02*
X026399Y042443D01*
X026149Y042193D01*
X024649Y042193D01*
X024399Y042443D01*
X024399Y042943D01*
X024649Y043193D01*
X026149Y043193D01*
X026399Y042943D01*
X026149Y042193D02*
X026399Y041943D01*
X026399Y041443D01*
X026149Y041193D01*
X024649Y041193D01*
X024399Y041443D01*
X024399Y041943D01*
X024649Y042193D01*
X024649Y041193D02*
X024399Y040943D01*
X024399Y040443D01*
X024649Y040193D01*
X026149Y040193D01*
X026399Y040443D01*
X026399Y040943D01*
X026149Y041193D01*
X026149Y040193D02*
X026399Y039943D01*
X026399Y039443D01*
X026149Y039193D01*
X024649Y039193D01*
X024399Y039443D01*
X024399Y039943D01*
X024649Y040193D01*
X024649Y039193D02*
X024399Y038943D01*
X024399Y038443D01*
X024649Y038193D01*
X026149Y038193D01*
X026399Y038443D01*
X026399Y038943D01*
X026149Y039193D01*
X022549Y039543D02*
X022549Y038043D01*
X022299Y037793D01*
X021799Y037793D01*
X021549Y038043D01*
X021549Y039543D01*
X021799Y039793D01*
X022299Y039793D01*
X022549Y039543D01*
X021549Y039543D02*
X021299Y039793D01*
X020799Y039793D01*
X020549Y039543D01*
X020549Y038043D01*
X020799Y037793D01*
X021299Y037793D01*
X021549Y038043D01*
X020549Y038043D02*
X020299Y037793D01*
X019799Y037793D01*
X019549Y038043D01*
X019549Y039543D01*
X019799Y039793D01*
X020299Y039793D01*
X020549Y039543D01*
X019549Y039543D02*
X019299Y039793D01*
X018799Y039793D01*
X018549Y039543D01*
X018549Y038043D01*
X018799Y037793D01*
X019299Y037793D01*
X019549Y038043D01*
X018549Y038043D02*
X018299Y037793D01*
X017799Y037793D01*
X017549Y038043D01*
X017549Y039543D01*
X017799Y039793D01*
X018299Y039793D01*
X018549Y039543D01*
X017549Y039543D02*
X017299Y039793D01*
X016799Y039793D01*
X016549Y039543D01*
X016549Y038043D01*
X016799Y037793D01*
X017299Y037793D01*
X017549Y038043D01*
X016549Y038043D02*
X016299Y037793D01*
X015799Y037793D01*
X015549Y038043D01*
X015549Y039543D01*
X015799Y039793D01*
X016299Y039793D01*
X016549Y039543D01*
X015549Y039543D02*
X015299Y039793D01*
X014799Y039793D01*
X014549Y039543D01*
X014549Y038043D01*
X014799Y037793D01*
X015299Y037793D01*
X015549Y038043D01*
X014849Y034643D02*
X014849Y030393D01*
X009949Y030393D01*
X009949Y034643D01*
X014849Y034643D01*
X013399Y033443D02*
X013399Y032943D01*
X013149Y032693D01*
X011649Y032693D01*
X011399Y032943D01*
X011399Y033443D01*
X011649Y033693D01*
X013149Y033693D01*
X013399Y033443D01*
X013149Y032693D02*
X013399Y032443D01*
X013399Y031943D01*
X013149Y031693D01*
X011649Y031693D01*
X011399Y031943D01*
X011399Y032443D01*
X011649Y032693D01*
X011649Y031693D02*
X011399Y031443D01*
X011399Y030943D01*
X011649Y030693D01*
X013149Y030693D01*
X013399Y030943D01*
X013399Y031443D01*
X013149Y031693D01*
X010999Y029943D02*
X010999Y028843D01*
X010997Y028826D01*
X010993Y028809D01*
X010986Y028793D01*
X010976Y028779D01*
X010963Y028766D01*
X010949Y028756D01*
X010933Y028749D01*
X010916Y028745D01*
X010899Y028743D01*
X010299Y028743D01*
X010282Y028745D01*
X010265Y028749D01*
X010249Y028756D01*
X010235Y028766D01*
X010222Y028779D01*
X010212Y028793D01*
X010205Y028809D01*
X010201Y028826D01*
X010199Y028843D01*
X010199Y029943D01*
X010201Y029960D01*
X010205Y029977D01*
X010212Y029993D01*
X010222Y030007D01*
X010235Y030020D01*
X010249Y030030D01*
X010265Y030037D01*
X010282Y030041D01*
X010299Y030043D01*
X010899Y030043D01*
X010916Y030041D01*
X010933Y030037D01*
X010949Y030030D01*
X010963Y030020D01*
X010976Y030007D01*
X010986Y029993D01*
X010993Y029977D01*
X010997Y029960D01*
X010999Y029943D01*
X012199Y028393D02*
X012199Y028293D01*
X012099Y028293D01*
X012199Y028393D02*
X012799Y028393D01*
X012799Y028293D01*
X012899Y028293D01*
X013699Y027943D02*
X013699Y027543D01*
X013699Y026593D01*
X013699Y026243D01*
X012899Y025893D02*
X012799Y025893D01*
X012799Y025793D01*
X012199Y025793D01*
X012199Y025893D01*
X012099Y025893D01*
X011299Y026243D02*
X011299Y026593D01*
X011299Y027593D01*
X011299Y027943D01*
X012399Y027093D02*
X012401Y027113D01*
X012407Y027131D01*
X012416Y027149D01*
X012428Y027164D01*
X012443Y027176D01*
X012461Y027185D01*
X012479Y027191D01*
X012499Y027193D01*
X012519Y027191D01*
X012537Y027185D01*
X012555Y027176D01*
X012570Y027164D01*
X012582Y027149D01*
X012591Y027131D01*
X012597Y027113D01*
X012599Y027093D01*
X012597Y027073D01*
X012591Y027055D01*
X012582Y027037D01*
X012570Y027022D01*
X012555Y027010D01*
X012537Y027001D01*
X012519Y026995D01*
X012499Y026993D01*
X012479Y026995D01*
X012461Y027001D01*
X012443Y027010D01*
X012428Y027022D01*
X012416Y027037D01*
X012407Y027055D01*
X012401Y027073D01*
X012399Y027093D01*
X011799Y027093D02*
X011801Y027145D01*
X011807Y027197D01*
X011817Y027249D01*
X011830Y027299D01*
X011847Y027349D01*
X011868Y027397D01*
X011893Y027443D01*
X011921Y027487D01*
X011952Y027529D01*
X011986Y027569D01*
X012023Y027606D01*
X012063Y027640D01*
X012105Y027671D01*
X012149Y027699D01*
X012195Y027724D01*
X012243Y027745D01*
X012293Y027762D01*
X012343Y027775D01*
X012395Y027785D01*
X012447Y027791D01*
X012499Y027793D01*
X012551Y027791D01*
X012603Y027785D01*
X012655Y027775D01*
X012705Y027762D01*
X012755Y027745D01*
X012803Y027724D01*
X012849Y027699D01*
X012893Y027671D01*
X012935Y027640D01*
X012975Y027606D01*
X013012Y027569D01*
X013046Y027529D01*
X013077Y027487D01*
X013105Y027443D01*
X013130Y027397D01*
X013151Y027349D01*
X013168Y027299D01*
X013181Y027249D01*
X013191Y027197D01*
X013197Y027145D01*
X013199Y027093D01*
X013197Y027041D01*
X013191Y026989D01*
X013181Y026937D01*
X013168Y026887D01*
X013151Y026837D01*
X013130Y026789D01*
X013105Y026743D01*
X013077Y026699D01*
X013046Y026657D01*
X013012Y026617D01*
X012975Y026580D01*
X012935Y026546D01*
X012893Y026515D01*
X012849Y026487D01*
X012803Y026462D01*
X012755Y026441D01*
X012705Y026424D01*
X012655Y026411D01*
X012603Y026401D01*
X012551Y026395D01*
X012499Y026393D01*
X012447Y026395D01*
X012395Y026401D01*
X012343Y026411D01*
X012293Y026424D01*
X012243Y026441D01*
X012195Y026462D01*
X012149Y026487D01*
X012105Y026515D01*
X012063Y026546D01*
X012023Y026580D01*
X011986Y026617D01*
X011952Y026657D01*
X011921Y026699D01*
X011893Y026743D01*
X011868Y026789D01*
X011847Y026837D01*
X011830Y026887D01*
X011817Y026937D01*
X011807Y026989D01*
X011801Y027041D01*
X011799Y027093D01*
X016352Y027357D02*
X018752Y027357D01*
X018802Y027359D01*
X018851Y027365D01*
X018900Y027374D01*
X018948Y027387D01*
X018995Y027404D01*
X019040Y027424D01*
X019084Y027448D01*
X019126Y027475D01*
X019166Y027506D01*
X019203Y027539D01*
X019237Y027575D01*
X019269Y027613D01*
X019298Y027654D01*
X019323Y027696D01*
X019345Y027741D01*
X019364Y027787D01*
X019379Y027835D01*
X019390Y027883D01*
X019398Y027932D01*
X019402Y027982D01*
X019402Y028032D01*
X019398Y028082D01*
X019390Y028131D01*
X019379Y028179D01*
X019364Y028227D01*
X019345Y028273D01*
X019323Y028318D01*
X019298Y028360D01*
X019269Y028401D01*
X019237Y028439D01*
X019203Y028475D01*
X019166Y028508D01*
X019126Y028539D01*
X019084Y028566D01*
X019040Y028590D01*
X018995Y028610D01*
X018948Y028627D01*
X018900Y028640D01*
X018851Y028649D01*
X018802Y028655D01*
X018752Y028657D01*
X016352Y028657D01*
X016302Y028655D01*
X016253Y028649D01*
X016204Y028640D01*
X016156Y028627D01*
X016109Y028610D01*
X016064Y028590D01*
X016020Y028566D01*
X015978Y028539D01*
X015938Y028508D01*
X015901Y028475D01*
X015867Y028439D01*
X015835Y028401D01*
X015806Y028360D01*
X015781Y028318D01*
X015759Y028273D01*
X015740Y028227D01*
X015725Y028179D01*
X015714Y028131D01*
X015706Y028082D01*
X015702Y028032D01*
X015702Y027982D01*
X015706Y027932D01*
X015714Y027883D01*
X015725Y027835D01*
X015740Y027787D01*
X015759Y027741D01*
X015781Y027696D01*
X015806Y027654D01*
X015835Y027613D01*
X015867Y027575D01*
X015901Y027539D01*
X015938Y027506D01*
X015978Y027475D01*
X016020Y027448D01*
X016064Y027424D01*
X016109Y027404D01*
X016156Y027387D01*
X016204Y027374D01*
X016253Y027365D01*
X016302Y027359D01*
X016352Y027357D01*
X017052Y028007D02*
X017302Y028007D01*
X017302Y028307D01*
X017452Y028307D02*
X017652Y028307D01*
X017652Y027707D01*
X017452Y027707D01*
X017452Y028307D01*
X017302Y028007D02*
X017302Y027707D01*
X017802Y027707D02*
X017802Y028007D01*
X018052Y028007D01*
X017802Y028007D02*
X017802Y028307D01*
X024349Y028243D02*
X024349Y027743D01*
X024599Y027493D01*
X026099Y027493D01*
X026349Y027743D01*
X026349Y028243D01*
X026099Y028493D01*
X024599Y028493D01*
X024349Y028243D01*
X024599Y027493D02*
X024349Y027243D01*
X024349Y026743D01*
X024599Y026493D01*
X026099Y026493D01*
X026349Y026743D01*
X026349Y027243D01*
X026099Y027493D01*
X026099Y026493D02*
X026349Y026243D01*
X026349Y025743D01*
X026099Y025493D01*
X024599Y025493D01*
X024349Y025743D01*
X024349Y026243D01*
X024599Y026493D01*
X024599Y025493D02*
X024349Y025243D01*
X024349Y024743D01*
X024599Y024493D01*
X026099Y024493D01*
X026349Y024743D01*
X026349Y025243D01*
X026099Y025493D01*
X026099Y024493D02*
X026349Y024243D01*
X026349Y023743D01*
X026099Y023493D01*
X024599Y023493D01*
X024349Y023743D01*
X024349Y024243D01*
X024599Y024493D01*
X025958Y019198D02*
X025758Y018998D01*
X025758Y014998D01*
X025758Y014948D01*
X027758Y014948D01*
X028108Y014948D01*
X028108Y018998D01*
X027908Y019198D01*
X025958Y019198D01*
X026248Y017948D02*
X026250Y017998D01*
X026256Y018048D01*
X026266Y018098D01*
X026279Y018146D01*
X026296Y018194D01*
X026317Y018240D01*
X026341Y018284D01*
X026369Y018326D01*
X026400Y018366D01*
X026434Y018403D01*
X026471Y018438D01*
X026510Y018469D01*
X026551Y018498D01*
X026595Y018523D01*
X026641Y018545D01*
X026688Y018563D01*
X026736Y018577D01*
X026785Y018588D01*
X026835Y018595D01*
X026885Y018598D01*
X026936Y018597D01*
X026986Y018592D01*
X027036Y018583D01*
X027084Y018571D01*
X027132Y018554D01*
X027178Y018534D01*
X027223Y018511D01*
X027266Y018484D01*
X027306Y018454D01*
X027344Y018421D01*
X027379Y018385D01*
X027412Y018346D01*
X027441Y018305D01*
X027467Y018262D01*
X027490Y018217D01*
X027509Y018170D01*
X027524Y018122D01*
X027536Y018073D01*
X027544Y018023D01*
X027548Y017973D01*
X027548Y017923D01*
X027544Y017873D01*
X027536Y017823D01*
X027524Y017774D01*
X027509Y017726D01*
X027490Y017679D01*
X027467Y017634D01*
X027441Y017591D01*
X027412Y017550D01*
X027379Y017511D01*
X027344Y017475D01*
X027306Y017442D01*
X027266Y017412D01*
X027223Y017385D01*
X027178Y017362D01*
X027132Y017342D01*
X027084Y017325D01*
X027036Y017313D01*
X026986Y017304D01*
X026936Y017299D01*
X026885Y017298D01*
X026835Y017301D01*
X026785Y017308D01*
X026736Y017319D01*
X026688Y017333D01*
X026641Y017351D01*
X026595Y017373D01*
X026551Y017398D01*
X026510Y017427D01*
X026471Y017458D01*
X026434Y017493D01*
X026400Y017530D01*
X026369Y017570D01*
X026341Y017612D01*
X026317Y017656D01*
X026296Y017702D01*
X026279Y017750D01*
X026266Y017798D01*
X026256Y017848D01*
X026250Y017898D01*
X026248Y017948D01*
X025758Y014948D02*
X025758Y013748D01*
X025758Y013548D01*
X026758Y013548D01*
X027758Y013548D01*
X027758Y013748D01*
X027808Y013748D01*
X027808Y014698D01*
X027810Y014728D01*
X027815Y014758D01*
X027824Y014787D01*
X027837Y014814D01*
X027852Y014840D01*
X027871Y014864D01*
X027892Y014885D01*
X027916Y014904D01*
X027942Y014919D01*
X027969Y014932D01*
X027998Y014941D01*
X028028Y014946D01*
X028058Y014948D01*
X028108Y014948D02*
X028208Y014948D01*
X028208Y015248D01*
X038758Y015248D01*
X038758Y014948D01*
X028208Y014948D01*
X027758Y013548D02*
X039208Y013548D01*
X039208Y013748D01*
X039158Y013748D01*
X039158Y014698D01*
X039156Y014728D01*
X039151Y014758D01*
X039142Y014787D01*
X039129Y014814D01*
X039114Y014840D01*
X039095Y014864D01*
X039074Y014885D01*
X039050Y014904D01*
X039024Y014919D01*
X038997Y014932D01*
X038968Y014941D01*
X038938Y014946D01*
X038908Y014948D01*
X038858Y014948D02*
X038858Y018998D01*
X039058Y019198D01*
X040958Y019198D01*
X041208Y018948D01*
X041208Y014998D01*
X041208Y014948D01*
X041208Y013748D01*
X041208Y013548D01*
X040208Y013548D01*
X039208Y013548D01*
X038558Y013348D02*
X038528Y013346D01*
X038498Y013341D01*
X038469Y013332D01*
X038442Y013319D01*
X038416Y013304D01*
X038392Y013285D01*
X038371Y013264D01*
X038352Y013240D01*
X038337Y013214D01*
X038324Y013187D01*
X038315Y013158D01*
X038310Y013128D01*
X038308Y013098D01*
X038308Y011098D01*
X038306Y011072D01*
X038301Y011046D01*
X038293Y011021D01*
X038281Y010998D01*
X038267Y010976D01*
X038249Y010957D01*
X038230Y010939D01*
X038208Y010925D01*
X038185Y010913D01*
X038160Y010905D01*
X038134Y010900D01*
X038108Y010898D01*
X038008Y010898D01*
X028958Y010898D01*
X028858Y010898D01*
X028832Y010900D01*
X028806Y010905D01*
X028781Y010913D01*
X028758Y010925D01*
X028736Y010939D01*
X028717Y010957D01*
X028699Y010976D01*
X028685Y010998D01*
X028673Y011021D01*
X028665Y011046D01*
X028660Y011072D01*
X028658Y011098D01*
X028658Y013098D01*
X028656Y013128D01*
X028651Y013158D01*
X028642Y013187D01*
X028629Y013214D01*
X028614Y013240D01*
X028595Y013264D01*
X028574Y013285D01*
X028550Y013304D01*
X028524Y013319D01*
X028497Y013332D01*
X028468Y013341D01*
X028438Y013346D01*
X028408Y013348D01*
X028808Y013348D02*
X025758Y013348D01*
X025758Y013548D01*
X028808Y013348D02*
X038158Y013348D01*
X041208Y013348D01*
X041208Y013548D01*
X041208Y014948D02*
X039208Y014948D01*
X038858Y014948D01*
X038758Y014948D01*
X039368Y017948D02*
X039370Y017998D01*
X039376Y018048D01*
X039386Y018098D01*
X039399Y018146D01*
X039416Y018194D01*
X039437Y018240D01*
X039461Y018284D01*
X039489Y018326D01*
X039520Y018366D01*
X039554Y018403D01*
X039591Y018438D01*
X039630Y018469D01*
X039671Y018498D01*
X039715Y018523D01*
X039761Y018545D01*
X039808Y018563D01*
X039856Y018577D01*
X039905Y018588D01*
X039955Y018595D01*
X040005Y018598D01*
X040056Y018597D01*
X040106Y018592D01*
X040156Y018583D01*
X040204Y018571D01*
X040252Y018554D01*
X040298Y018534D01*
X040343Y018511D01*
X040386Y018484D01*
X040426Y018454D01*
X040464Y018421D01*
X040499Y018385D01*
X040532Y018346D01*
X040561Y018305D01*
X040587Y018262D01*
X040610Y018217D01*
X040629Y018170D01*
X040644Y018122D01*
X040656Y018073D01*
X040664Y018023D01*
X040668Y017973D01*
X040668Y017923D01*
X040664Y017873D01*
X040656Y017823D01*
X040644Y017774D01*
X040629Y017726D01*
X040610Y017679D01*
X040587Y017634D01*
X040561Y017591D01*
X040532Y017550D01*
X040499Y017511D01*
X040464Y017475D01*
X040426Y017442D01*
X040386Y017412D01*
X040343Y017385D01*
X040298Y017362D01*
X040252Y017342D01*
X040204Y017325D01*
X040156Y017313D01*
X040106Y017304D01*
X040056Y017299D01*
X040005Y017298D01*
X039955Y017301D01*
X039905Y017308D01*
X039856Y017319D01*
X039808Y017333D01*
X039761Y017351D01*
X039715Y017373D01*
X039671Y017398D01*
X039630Y017427D01*
X039591Y017458D01*
X039554Y017493D01*
X039520Y017530D01*
X039489Y017570D01*
X039461Y017612D01*
X039437Y017656D01*
X039416Y017702D01*
X039399Y017750D01*
X039386Y017798D01*
X039376Y017848D01*
X039370Y017898D01*
X039368Y017948D01*
X045838Y018998D02*
X045838Y014998D01*
X045838Y014948D01*
X047838Y014948D01*
X048188Y014948D01*
X048188Y018998D01*
X047988Y019198D01*
X046038Y019198D01*
X045838Y018998D01*
X046328Y017948D02*
X046330Y017998D01*
X046336Y018048D01*
X046346Y018098D01*
X046359Y018146D01*
X046376Y018194D01*
X046397Y018240D01*
X046421Y018284D01*
X046449Y018326D01*
X046480Y018366D01*
X046514Y018403D01*
X046551Y018438D01*
X046590Y018469D01*
X046631Y018498D01*
X046675Y018523D01*
X046721Y018545D01*
X046768Y018563D01*
X046816Y018577D01*
X046865Y018588D01*
X046915Y018595D01*
X046965Y018598D01*
X047016Y018597D01*
X047066Y018592D01*
X047116Y018583D01*
X047164Y018571D01*
X047212Y018554D01*
X047258Y018534D01*
X047303Y018511D01*
X047346Y018484D01*
X047386Y018454D01*
X047424Y018421D01*
X047459Y018385D01*
X047492Y018346D01*
X047521Y018305D01*
X047547Y018262D01*
X047570Y018217D01*
X047589Y018170D01*
X047604Y018122D01*
X047616Y018073D01*
X047624Y018023D01*
X047628Y017973D01*
X047628Y017923D01*
X047624Y017873D01*
X047616Y017823D01*
X047604Y017774D01*
X047589Y017726D01*
X047570Y017679D01*
X047547Y017634D01*
X047521Y017591D01*
X047492Y017550D01*
X047459Y017511D01*
X047424Y017475D01*
X047386Y017442D01*
X047346Y017412D01*
X047303Y017385D01*
X047258Y017362D01*
X047212Y017342D01*
X047164Y017325D01*
X047116Y017313D01*
X047066Y017304D01*
X047016Y017299D01*
X046965Y017298D01*
X046915Y017301D01*
X046865Y017308D01*
X046816Y017319D01*
X046768Y017333D01*
X046721Y017351D01*
X046675Y017373D01*
X046631Y017398D01*
X046590Y017427D01*
X046551Y017458D01*
X046514Y017493D01*
X046480Y017530D01*
X046449Y017570D01*
X046421Y017612D01*
X046397Y017656D01*
X046376Y017702D01*
X046359Y017750D01*
X046346Y017798D01*
X046336Y017848D01*
X046330Y017898D01*
X046328Y017948D01*
X045838Y014948D02*
X045838Y013748D01*
X045838Y013548D01*
X046838Y013548D01*
X047838Y013548D01*
X047838Y013748D01*
X047888Y013748D01*
X047888Y014698D01*
X047890Y014728D01*
X047895Y014758D01*
X047904Y014787D01*
X047917Y014814D01*
X047932Y014840D01*
X047951Y014864D01*
X047972Y014885D01*
X047996Y014904D01*
X048022Y014919D01*
X048049Y014932D01*
X048078Y014941D01*
X048108Y014946D01*
X048138Y014948D01*
X048188Y014948D02*
X048288Y014948D01*
X048288Y015248D01*
X058838Y015248D01*
X058838Y014948D01*
X048288Y014948D01*
X047838Y013548D02*
X059288Y013548D01*
X059288Y013748D01*
X059238Y013748D01*
X059238Y014698D01*
X059236Y014728D01*
X059231Y014758D01*
X059222Y014787D01*
X059209Y014814D01*
X059194Y014840D01*
X059175Y014864D01*
X059154Y014885D01*
X059130Y014904D01*
X059104Y014919D01*
X059077Y014932D01*
X059048Y014941D01*
X059018Y014946D01*
X058988Y014948D01*
X058938Y014948D02*
X058938Y018998D01*
X059138Y019198D01*
X061038Y019198D01*
X061288Y018948D01*
X061288Y014998D01*
X061288Y014948D01*
X061288Y013748D01*
X061288Y013548D01*
X060288Y013548D01*
X059288Y013548D01*
X058638Y013348D02*
X058608Y013346D01*
X058578Y013341D01*
X058549Y013332D01*
X058522Y013319D01*
X058496Y013304D01*
X058472Y013285D01*
X058451Y013264D01*
X058432Y013240D01*
X058417Y013214D01*
X058404Y013187D01*
X058395Y013158D01*
X058390Y013128D01*
X058388Y013098D01*
X058388Y011098D01*
X058386Y011072D01*
X058381Y011046D01*
X058373Y011021D01*
X058361Y010998D01*
X058347Y010976D01*
X058329Y010957D01*
X058310Y010939D01*
X058288Y010925D01*
X058265Y010913D01*
X058240Y010905D01*
X058214Y010900D01*
X058188Y010898D01*
X058088Y010898D01*
X049038Y010898D01*
X048938Y010898D01*
X048912Y010900D01*
X048886Y010905D01*
X048861Y010913D01*
X048838Y010925D01*
X048816Y010939D01*
X048797Y010957D01*
X048779Y010976D01*
X048765Y010998D01*
X048753Y011021D01*
X048745Y011046D01*
X048740Y011072D01*
X048738Y011098D01*
X048738Y013098D01*
X048736Y013128D01*
X048731Y013158D01*
X048722Y013187D01*
X048709Y013214D01*
X048694Y013240D01*
X048675Y013264D01*
X048654Y013285D01*
X048630Y013304D01*
X048604Y013319D01*
X048577Y013332D01*
X048548Y013341D01*
X048518Y013346D01*
X048488Y013348D01*
X048888Y013348D02*
X045838Y013348D01*
X045838Y013548D01*
X048888Y013348D02*
X058238Y013348D01*
X061288Y013348D01*
X061288Y013548D01*
X061288Y014948D02*
X059288Y014948D01*
X058938Y014948D01*
X058838Y014948D01*
X059448Y017948D02*
X059450Y017998D01*
X059456Y018048D01*
X059466Y018098D01*
X059479Y018146D01*
X059496Y018194D01*
X059517Y018240D01*
X059541Y018284D01*
X059569Y018326D01*
X059600Y018366D01*
X059634Y018403D01*
X059671Y018438D01*
X059710Y018469D01*
X059751Y018498D01*
X059795Y018523D01*
X059841Y018545D01*
X059888Y018563D01*
X059936Y018577D01*
X059985Y018588D01*
X060035Y018595D01*
X060085Y018598D01*
X060136Y018597D01*
X060186Y018592D01*
X060236Y018583D01*
X060284Y018571D01*
X060332Y018554D01*
X060378Y018534D01*
X060423Y018511D01*
X060466Y018484D01*
X060506Y018454D01*
X060544Y018421D01*
X060579Y018385D01*
X060612Y018346D01*
X060641Y018305D01*
X060667Y018262D01*
X060690Y018217D01*
X060709Y018170D01*
X060724Y018122D01*
X060736Y018073D01*
X060744Y018023D01*
X060748Y017973D01*
X060748Y017923D01*
X060744Y017873D01*
X060736Y017823D01*
X060724Y017774D01*
X060709Y017726D01*
X060690Y017679D01*
X060667Y017634D01*
X060641Y017591D01*
X060612Y017550D01*
X060579Y017511D01*
X060544Y017475D01*
X060506Y017442D01*
X060466Y017412D01*
X060423Y017385D01*
X060378Y017362D01*
X060332Y017342D01*
X060284Y017325D01*
X060236Y017313D01*
X060186Y017304D01*
X060136Y017299D01*
X060085Y017298D01*
X060035Y017301D01*
X059985Y017308D01*
X059936Y017319D01*
X059888Y017333D01*
X059841Y017351D01*
X059795Y017373D01*
X059751Y017398D01*
X059710Y017427D01*
X059671Y017458D01*
X059634Y017493D01*
X059600Y017530D01*
X059569Y017570D01*
X059541Y017612D01*
X059517Y017656D01*
X059496Y017702D01*
X059479Y017750D01*
X059466Y017798D01*
X059456Y017848D01*
X059450Y017898D01*
X059448Y017948D01*
X026299Y031093D02*
X026049Y030843D01*
X024549Y030843D01*
X024299Y031093D01*
X024299Y031593D01*
X024549Y031843D01*
X026049Y031843D01*
X026299Y032093D01*
X026299Y032593D01*
X026049Y032843D01*
X024549Y032843D01*
X024299Y033093D01*
X024299Y033593D01*
X024549Y033843D01*
X026049Y033843D01*
X026299Y034093D01*
X026299Y034593D01*
X026049Y034843D01*
X026299Y035093D01*
X026299Y035593D01*
X026049Y035843D01*
X024549Y035843D01*
X024299Y035593D01*
X024299Y035093D01*
X024549Y034843D01*
X026049Y034843D01*
X026049Y033843D02*
X026299Y033593D01*
X026299Y033093D01*
X026049Y032843D01*
X026049Y031843D02*
X026299Y031593D01*
X026299Y031093D01*
X024549Y031843D02*
X024299Y032093D01*
X024299Y032593D01*
X024549Y032843D01*
X024549Y033843D02*
X024299Y034093D01*
X024299Y034593D01*
X024549Y034843D01*
X019941Y042987D02*
X019799Y043129D01*
X016872Y043306D02*
X016874Y043411D01*
X016880Y043515D01*
X016890Y043619D01*
X016904Y043723D01*
X016922Y043826D01*
X016943Y043929D01*
X016969Y044030D01*
X016999Y044131D01*
X017032Y044230D01*
X017069Y044328D01*
X017110Y044425D01*
X017154Y044519D01*
X017202Y044612D01*
X017254Y044704D01*
X017309Y044793D01*
X017367Y044880D01*
X017428Y044964D01*
X017493Y045047D01*
X017561Y045127D01*
X017632Y045204D01*
X017705Y045278D01*
X017782Y045350D01*
X017861Y045418D01*
X017943Y045484D01*
X018027Y045546D01*
X018113Y045605D01*
X018202Y045661D01*
X018293Y045713D01*
X018385Y045762D01*
X018480Y045807D01*
X018576Y045849D01*
X018673Y045887D01*
X018772Y045921D01*
X018872Y045952D01*
X018974Y045978D01*
X019076Y046001D01*
X019179Y046020D01*
X019283Y046035D01*
X019387Y046046D01*
X019491Y046053D01*
X019596Y046056D01*
X019701Y046055D01*
X019805Y046050D01*
X019909Y046041D01*
X020013Y046028D01*
X020117Y046011D01*
X020219Y045990D01*
X020321Y045966D01*
X020422Y045937D01*
X020521Y045905D01*
X020620Y045869D01*
X020717Y045829D01*
X020812Y045785D01*
X020905Y045738D01*
X020997Y045688D01*
X021087Y045633D01*
X021174Y045576D01*
X021260Y045515D01*
X021342Y045451D01*
X021423Y045384D01*
X021501Y045314D01*
X021576Y045241D01*
X021648Y045165D01*
X021717Y045087D01*
X021784Y045006D01*
X021847Y044922D01*
X021907Y044837D01*
X021963Y044748D01*
X022017Y044658D01*
X022066Y044566D01*
X022112Y044472D01*
X022155Y044376D01*
X022194Y044279D01*
X022229Y044181D01*
X022261Y044081D01*
X022288Y043980D01*
X022312Y043878D01*
X022332Y043775D01*
X022348Y043671D01*
X022360Y043567D01*
X022368Y043463D01*
X022372Y043358D01*
X022372Y043254D01*
X022368Y043149D01*
X022360Y043045D01*
X022348Y042941D01*
X022332Y042837D01*
X022312Y042734D01*
X022288Y042632D01*
X022261Y042531D01*
X022229Y042431D01*
X022194Y042333D01*
X022155Y042236D01*
X022112Y042140D01*
X022066Y042046D01*
X022017Y041954D01*
X021963Y041864D01*
X021907Y041775D01*
X021847Y041690D01*
X021784Y041606D01*
X021717Y041525D01*
X021648Y041447D01*
X021576Y041371D01*
X021501Y041298D01*
X021423Y041228D01*
X021342Y041161D01*
X021260Y041097D01*
X021174Y041036D01*
X021087Y040979D01*
X020997Y040924D01*
X020905Y040874D01*
X020812Y040827D01*
X020717Y040783D01*
X020620Y040743D01*
X020521Y040707D01*
X020422Y040675D01*
X020321Y040646D01*
X020219Y040622D01*
X020117Y040601D01*
X020013Y040584D01*
X019909Y040571D01*
X019805Y040562D01*
X019701Y040557D01*
X019596Y040556D01*
X019491Y040559D01*
X019387Y040566D01*
X019283Y040577D01*
X019179Y040592D01*
X019076Y040611D01*
X018974Y040634D01*
X018872Y040660D01*
X018772Y040691D01*
X018673Y040725D01*
X018576Y040763D01*
X018480Y040805D01*
X018385Y040850D01*
X018293Y040899D01*
X018202Y040951D01*
X018113Y041007D01*
X018027Y041066D01*
X017943Y041128D01*
X017861Y041194D01*
X017782Y041262D01*
X017705Y041334D01*
X017632Y041408D01*
X017561Y041485D01*
X017493Y041565D01*
X017428Y041648D01*
X017367Y041732D01*
X017309Y041819D01*
X017254Y041908D01*
X017202Y042000D01*
X017154Y042093D01*
X017110Y042187D01*
X017069Y042284D01*
X017032Y042382D01*
X016999Y042481D01*
X016969Y042582D01*
X016943Y042683D01*
X016922Y042786D01*
X016904Y042889D01*
X016890Y042993D01*
X016880Y043097D01*
X016874Y043201D01*
X016872Y043306D01*
X015714Y042814D02*
X014634Y042814D01*
X014634Y044774D02*
X015054Y044774D01*
X015714Y044774D01*
X018031Y044897D02*
X018385Y044543D01*
X018031Y044543D02*
X018385Y044897D01*
X019304Y043624D02*
X019375Y043553D01*
X019728Y043907D01*
X019905Y043730D01*
X019198Y043023D01*
X019021Y043199D01*
X019375Y043553D01*
X011799Y041243D02*
X011599Y041243D01*
X008599Y041243D02*
X008601Y041348D01*
X008607Y041452D01*
X008617Y041556D01*
X008631Y041660D01*
X008649Y041763D01*
X008670Y041866D01*
X008696Y041967D01*
X008726Y042068D01*
X008759Y042167D01*
X008796Y042265D01*
X008837Y042362D01*
X008881Y042456D01*
X008929Y042549D01*
X008981Y042641D01*
X009036Y042730D01*
X009094Y042817D01*
X009155Y042901D01*
X009220Y042984D01*
X009288Y043064D01*
X009359Y043141D01*
X009432Y043215D01*
X009509Y043287D01*
X009588Y043355D01*
X009670Y043421D01*
X009754Y043483D01*
X009840Y043542D01*
X009929Y043598D01*
X010020Y043650D01*
X010112Y043699D01*
X010207Y043744D01*
X010303Y043786D01*
X010400Y043824D01*
X010499Y043858D01*
X010599Y043889D01*
X010701Y043915D01*
X010803Y043938D01*
X010906Y043957D01*
X011010Y043972D01*
X011114Y043983D01*
X011218Y043990D01*
X011323Y043993D01*
X011428Y043992D01*
X011532Y043987D01*
X011636Y043978D01*
X011740Y043965D01*
X011844Y043948D01*
X011946Y043927D01*
X012048Y043903D01*
X012149Y043874D01*
X012248Y043842D01*
X012347Y043806D01*
X012444Y043766D01*
X012539Y043722D01*
X012632Y043675D01*
X012724Y043625D01*
X012814Y043570D01*
X012901Y043513D01*
X012987Y043452D01*
X013069Y043388D01*
X013150Y043321D01*
X013228Y043251D01*
X013303Y043178D01*
X013375Y043102D01*
X013444Y043024D01*
X013511Y042943D01*
X013574Y042859D01*
X013634Y042774D01*
X013690Y042685D01*
X013744Y042595D01*
X013793Y042503D01*
X013839Y042409D01*
X013882Y042313D01*
X013921Y042216D01*
X013956Y042118D01*
X013988Y042018D01*
X014015Y041917D01*
X014039Y041815D01*
X014059Y041712D01*
X014075Y041608D01*
X014087Y041504D01*
X014095Y041400D01*
X014099Y041295D01*
X014099Y041191D01*
X014095Y041086D01*
X014087Y040982D01*
X014075Y040878D01*
X014059Y040774D01*
X014039Y040671D01*
X014015Y040569D01*
X013988Y040468D01*
X013956Y040368D01*
X013921Y040270D01*
X013882Y040173D01*
X013839Y040077D01*
X013793Y039983D01*
X013744Y039891D01*
X013690Y039801D01*
X013634Y039712D01*
X013574Y039627D01*
X013511Y039543D01*
X013444Y039462D01*
X013375Y039384D01*
X013303Y039308D01*
X013228Y039235D01*
X013150Y039165D01*
X013069Y039098D01*
X012987Y039034D01*
X012901Y038973D01*
X012814Y038916D01*
X012724Y038861D01*
X012632Y038811D01*
X012539Y038764D01*
X012444Y038720D01*
X012347Y038680D01*
X012248Y038644D01*
X012149Y038612D01*
X012048Y038583D01*
X011946Y038559D01*
X011844Y038538D01*
X011740Y038521D01*
X011636Y038508D01*
X011532Y038499D01*
X011428Y038494D01*
X011323Y038493D01*
X011218Y038496D01*
X011114Y038503D01*
X011010Y038514D01*
X010906Y038529D01*
X010803Y038548D01*
X010701Y038571D01*
X010599Y038597D01*
X010499Y038628D01*
X010400Y038662D01*
X010303Y038700D01*
X010207Y038742D01*
X010112Y038787D01*
X010020Y038836D01*
X009929Y038888D01*
X009840Y038944D01*
X009754Y039003D01*
X009670Y039065D01*
X009588Y039131D01*
X009509Y039199D01*
X009432Y039271D01*
X009359Y039345D01*
X009288Y039422D01*
X009220Y039502D01*
X009155Y039585D01*
X009094Y039669D01*
X009036Y039756D01*
X008981Y039845D01*
X008929Y039937D01*
X008881Y040030D01*
X008837Y040124D01*
X008796Y040221D01*
X008759Y040319D01*
X008726Y040418D01*
X008696Y040519D01*
X008670Y040620D01*
X008649Y040723D01*
X008631Y040826D01*
X008617Y040930D01*
X008607Y041034D01*
X008601Y041138D01*
X008599Y041243D01*
X009099Y041243D02*
X009599Y041243D01*
X009349Y040993D02*
X009349Y041493D01*
X010899Y041243D02*
X010999Y041243D01*
X010999Y041743D01*
X011249Y041743D01*
X011249Y040743D01*
X010999Y040743D01*
X010999Y041243D01*
X005459Y039603D02*
X005459Y039383D01*
X005459Y039603D02*
X005139Y039603D01*
X005459Y038703D02*
X005459Y038483D01*
X005139Y038483D01*
X003949Y038393D02*
X003949Y037893D01*
X003699Y037643D01*
X003949Y037393D01*
X003949Y036893D01*
X003699Y036643D01*
X003199Y036643D01*
X002949Y036893D01*
X002949Y037393D01*
X003199Y037643D01*
X002949Y037893D01*
X002949Y038393D01*
X003199Y038643D01*
X003699Y038643D01*
X003949Y038393D01*
X003699Y037643D02*
X003199Y037643D01*
X003199Y036643D02*
X002949Y036393D01*
X002949Y035893D01*
X003199Y035643D01*
X002949Y035393D01*
X002949Y034893D01*
X003199Y034643D01*
X002949Y034393D01*
X002949Y033893D01*
X003199Y033643D01*
X002949Y033393D01*
X002949Y032893D01*
X003199Y032643D01*
X003699Y032643D01*
X003949Y032893D01*
X003949Y033393D01*
X003699Y033643D01*
X003199Y033643D01*
X003699Y033643D02*
X003949Y033893D01*
X003949Y034393D01*
X003699Y034643D01*
X003199Y034643D01*
X003699Y034643D02*
X003949Y034893D01*
X003949Y035393D01*
X003699Y035643D01*
X003199Y035643D01*
X003699Y035643D02*
X003949Y035893D01*
X003949Y036393D01*
X003699Y036643D01*
X007449Y045843D02*
X007699Y045843D01*
X007699Y046343D01*
X007699Y046843D01*
X007449Y046843D01*
X007449Y045843D01*
X004599Y046343D02*
X004601Y046448D01*
X004607Y046552D01*
X004617Y046656D01*
X004631Y046760D01*
X004649Y046863D01*
X004670Y046966D01*
X004696Y047067D01*
X004726Y047168D01*
X004759Y047267D01*
X004796Y047365D01*
X004837Y047462D01*
X004881Y047556D01*
X004929Y047649D01*
X004981Y047741D01*
X005036Y047830D01*
X005094Y047917D01*
X005155Y048001D01*
X005220Y048084D01*
X005288Y048164D01*
X005359Y048241D01*
X005432Y048315D01*
X005509Y048387D01*
X005588Y048455D01*
X005670Y048521D01*
X005754Y048583D01*
X005840Y048642D01*
X005929Y048698D01*
X006020Y048750D01*
X006112Y048799D01*
X006207Y048844D01*
X006303Y048886D01*
X006400Y048924D01*
X006499Y048958D01*
X006599Y048989D01*
X006701Y049015D01*
X006803Y049038D01*
X006906Y049057D01*
X007010Y049072D01*
X007114Y049083D01*
X007218Y049090D01*
X007323Y049093D01*
X007428Y049092D01*
X007532Y049087D01*
X007636Y049078D01*
X007740Y049065D01*
X007844Y049048D01*
X007946Y049027D01*
X008048Y049003D01*
X008149Y048974D01*
X008248Y048942D01*
X008347Y048906D01*
X008444Y048866D01*
X008539Y048822D01*
X008632Y048775D01*
X008724Y048725D01*
X008814Y048670D01*
X008901Y048613D01*
X008987Y048552D01*
X009069Y048488D01*
X009150Y048421D01*
X009228Y048351D01*
X009303Y048278D01*
X009375Y048202D01*
X009444Y048124D01*
X009511Y048043D01*
X009574Y047959D01*
X009634Y047874D01*
X009690Y047785D01*
X009744Y047695D01*
X009793Y047603D01*
X009839Y047509D01*
X009882Y047413D01*
X009921Y047316D01*
X009956Y047218D01*
X009988Y047118D01*
X010015Y047017D01*
X010039Y046915D01*
X010059Y046812D01*
X010075Y046708D01*
X010087Y046604D01*
X010095Y046500D01*
X010099Y046395D01*
X010099Y046291D01*
X010095Y046186D01*
X010087Y046082D01*
X010075Y045978D01*
X010059Y045874D01*
X010039Y045771D01*
X010015Y045669D01*
X009988Y045568D01*
X009956Y045468D01*
X009921Y045370D01*
X009882Y045273D01*
X009839Y045177D01*
X009793Y045083D01*
X009744Y044991D01*
X009690Y044901D01*
X009634Y044812D01*
X009574Y044727D01*
X009511Y044643D01*
X009444Y044562D01*
X009375Y044484D01*
X009303Y044408D01*
X009228Y044335D01*
X009150Y044265D01*
X009069Y044198D01*
X008987Y044134D01*
X008901Y044073D01*
X008814Y044016D01*
X008724Y043961D01*
X008632Y043911D01*
X008539Y043864D01*
X008444Y043820D01*
X008347Y043780D01*
X008248Y043744D01*
X008149Y043712D01*
X008048Y043683D01*
X007946Y043659D01*
X007844Y043638D01*
X007740Y043621D01*
X007636Y043608D01*
X007532Y043599D01*
X007428Y043594D01*
X007323Y043593D01*
X007218Y043596D01*
X007114Y043603D01*
X007010Y043614D01*
X006906Y043629D01*
X006803Y043648D01*
X006701Y043671D01*
X006599Y043697D01*
X006499Y043728D01*
X006400Y043762D01*
X006303Y043800D01*
X006207Y043842D01*
X006112Y043887D01*
X006020Y043936D01*
X005929Y043988D01*
X005840Y044044D01*
X005754Y044103D01*
X005670Y044165D01*
X005588Y044231D01*
X005509Y044299D01*
X005432Y044371D01*
X005359Y044445D01*
X005288Y044522D01*
X005220Y044602D01*
X005155Y044685D01*
X005094Y044769D01*
X005036Y044856D01*
X004981Y044945D01*
X004929Y045037D01*
X004881Y045130D01*
X004837Y045224D01*
X004796Y045321D01*
X004759Y045419D01*
X004726Y045518D01*
X004696Y045619D01*
X004670Y045720D01*
X004649Y045823D01*
X004631Y045926D01*
X004617Y046030D01*
X004607Y046134D01*
X004601Y046238D01*
X004599Y046343D01*
X006899Y046343D02*
X007099Y046343D01*
X007699Y046343D02*
X007799Y046343D01*
X009099Y046343D02*
X009599Y046343D01*
X009349Y046593D02*
X009349Y046093D01*
X004099Y048243D02*
X003999Y048143D01*
X003199Y048143D01*
X003099Y048243D01*
X003099Y049043D01*
X003199Y049143D01*
X003099Y049243D01*
X003099Y050043D01*
X003199Y050143D01*
X003099Y050243D01*
X003099Y051043D01*
X003199Y051143D01*
X003999Y051143D01*
X004099Y051043D01*
X004099Y050243D01*
X003999Y050143D01*
X004099Y050043D01*
X004099Y049243D01*
X003999Y049143D01*
X004099Y049043D01*
X004099Y048243D01*
D13*
X015669Y036093D02*
X015671Y036103D01*
X015676Y036112D01*
X015684Y036119D01*
X015694Y036123D01*
X015704Y036123D01*
X015714Y036119D01*
X015722Y036112D01*
X015727Y036103D01*
X015729Y036093D01*
X015727Y036083D01*
X015722Y036074D01*
X015714Y036067D01*
X015704Y036063D01*
X015694Y036063D01*
X015684Y036067D01*
X015676Y036074D01*
X015671Y036083D01*
X015669Y036093D01*
X022478Y040093D02*
X022480Y040109D01*
X022486Y040125D01*
X022495Y040139D01*
X022507Y040150D01*
X022521Y040158D01*
X022537Y040163D01*
X022553Y040164D01*
X022569Y040161D01*
X022584Y040154D01*
X022598Y040145D01*
X022608Y040132D01*
X022616Y040117D01*
X022620Y040101D01*
X022620Y040085D01*
X022616Y040069D01*
X022608Y040054D01*
X022598Y040041D01*
X022585Y040032D01*
X022569Y040025D01*
X022553Y040022D01*
X022537Y040023D01*
X022521Y040028D01*
X022507Y040036D01*
X022495Y040047D01*
X022486Y040061D01*
X022480Y040077D01*
X022478Y040093D01*
X020551Y046293D02*
X020553Y046317D01*
X020559Y046340D01*
X020568Y046362D01*
X020581Y046382D01*
X020596Y046400D01*
X020615Y046415D01*
X020636Y046427D01*
X020658Y046435D01*
X020681Y046440D01*
X020705Y046441D01*
X020729Y046438D01*
X020751Y046431D01*
X020773Y046421D01*
X020793Y046408D01*
X020810Y046391D01*
X020824Y046372D01*
X020835Y046351D01*
X020843Y046328D01*
X020847Y046305D01*
X020847Y046281D01*
X020843Y046258D01*
X020835Y046235D01*
X020824Y046214D01*
X020810Y046195D01*
X020793Y046178D01*
X020773Y046165D01*
X020751Y046155D01*
X020729Y046148D01*
X020705Y046145D01*
X020681Y046146D01*
X020658Y046151D01*
X020636Y046159D01*
X020615Y046171D01*
X020596Y046186D01*
X020581Y046204D01*
X020568Y046224D01*
X020559Y046246D01*
X020553Y046269D01*
X020551Y046293D01*
D14*
X018549Y040093D03*
D15*
X015358Y041224D02*
X014938Y040803D01*
X014938Y040698D01*
X014714Y040803D02*
X014609Y040698D01*
X014399Y040698D01*
X014294Y040803D01*
X014294Y041224D01*
X014399Y041329D01*
X014609Y041329D01*
X014714Y041224D01*
X014938Y041329D02*
X015358Y041329D01*
X015358Y041224D01*
X013129Y034354D02*
X013210Y034272D01*
X013210Y034109D01*
X013129Y034027D01*
X012883Y034027D01*
X012883Y033864D02*
X012883Y034354D01*
X013129Y034354D01*
X012695Y034272D02*
X012613Y034354D01*
X012449Y034354D01*
X012368Y034272D01*
X012368Y034191D01*
X012449Y034109D01*
X012613Y034109D01*
X012695Y034027D01*
X012695Y033945D01*
X012613Y033864D01*
X012449Y033864D01*
X012368Y033945D01*
X012179Y033945D02*
X012097Y033864D01*
X011934Y033864D01*
X011852Y033945D01*
X011852Y034272D01*
X011934Y034354D01*
X012097Y034354D01*
X012179Y034272D01*
X011672Y034354D02*
X011508Y034354D01*
X011590Y034354D02*
X011590Y033864D01*
X011508Y033864D02*
X011672Y033864D01*
X024334Y045933D02*
X024439Y045828D01*
X024649Y045828D01*
X024754Y045933D01*
X024754Y046459D01*
X024978Y046144D02*
X025293Y046144D01*
X025398Y046038D01*
X025398Y045933D01*
X025293Y045828D01*
X025083Y045828D01*
X024978Y045933D01*
X024978Y046144D01*
X025188Y046354D01*
X025398Y046459D01*
X024334Y046459D02*
X024334Y045933D01*
X028528Y055699D02*
X028948Y056330D01*
X029172Y056120D02*
X029382Y056330D01*
X029382Y055699D01*
X029172Y055699D02*
X029593Y055699D01*
X028948Y055699D02*
X028528Y056330D01*
X010658Y048929D02*
X010448Y048824D01*
X010238Y048614D01*
X010553Y048614D01*
X010658Y048508D01*
X010658Y048403D01*
X010553Y048298D01*
X010343Y048298D01*
X010238Y048403D01*
X010238Y048614D01*
X010014Y048824D02*
X009909Y048929D01*
X009699Y048929D01*
X009594Y048824D01*
X009594Y048403D01*
X009699Y048298D01*
X009909Y048298D01*
X010014Y048403D01*
X048085Y055769D02*
X048505Y056400D01*
X048729Y056400D02*
X048729Y056085D01*
X048939Y056190D01*
X049045Y056190D01*
X049150Y056085D01*
X049150Y055874D01*
X049045Y055769D01*
X048834Y055769D01*
X048729Y055874D01*
X048505Y055769D02*
X048085Y056400D01*
X048729Y056400D02*
X049150Y056400D01*
X057634Y019614D02*
X058054Y018984D01*
X058278Y019089D02*
X058383Y018984D01*
X058594Y018984D01*
X058699Y019089D01*
X058699Y019194D01*
X058594Y019299D01*
X058278Y019299D01*
X058278Y019089D01*
X058278Y019299D02*
X058488Y019509D01*
X058699Y019614D01*
X058054Y019614D02*
X057634Y018984D01*
X038839Y019579D02*
X038419Y019159D01*
X038419Y019054D01*
X038195Y019054D02*
X037774Y019684D01*
X038195Y019684D02*
X037774Y019054D01*
X038419Y019684D02*
X038839Y019684D01*
X038839Y019579D01*
D16*
X013699Y026593D02*
X013599Y026593D01*
X013599Y027543D01*
X013699Y027543D01*
X011399Y027593D02*
X011399Y026593D01*
X011299Y026593D01*
X011299Y027593D02*
X011399Y027593D01*
D17*
X016352Y027157D02*
X016295Y027159D01*
X016239Y027165D01*
X016183Y027174D01*
X016127Y027187D01*
X016073Y027204D01*
X016020Y027224D01*
X015969Y027248D01*
X015919Y027276D01*
X015871Y027306D01*
X015825Y027340D01*
X015782Y027377D01*
X015741Y027416D01*
X015703Y027458D01*
X015668Y027503D01*
X015636Y027550D01*
X015607Y027599D01*
X015581Y027649D01*
X015559Y027702D01*
X015540Y027755D01*
X015525Y027810D01*
X015514Y027866D01*
X015506Y027922D01*
X015502Y027979D01*
X015502Y028035D01*
X015506Y028092D01*
X015514Y028148D01*
X015525Y028204D01*
X015540Y028259D01*
X015559Y028312D01*
X015581Y028365D01*
X015607Y028415D01*
X015636Y028464D01*
X015668Y028511D01*
X015703Y028556D01*
X015741Y028598D01*
X015782Y028637D01*
X015825Y028674D01*
X015871Y028708D01*
X015919Y028738D01*
X015969Y028766D01*
X016020Y028790D01*
X016073Y028810D01*
X016127Y028827D01*
X016183Y028840D01*
X016239Y028849D01*
X016295Y028855D01*
X016352Y028857D01*
X018752Y028857D01*
X018809Y028855D01*
X018865Y028849D01*
X018921Y028840D01*
X018977Y028827D01*
X019031Y028810D01*
X019084Y028790D01*
X019135Y028766D01*
X019185Y028738D01*
X019233Y028708D01*
X019279Y028674D01*
X019322Y028637D01*
X019363Y028598D01*
X019401Y028556D01*
X019436Y028511D01*
X019468Y028464D01*
X019497Y028415D01*
X019523Y028365D01*
X019545Y028312D01*
X019564Y028259D01*
X019579Y028204D01*
X019590Y028148D01*
X019598Y028092D01*
X019602Y028035D01*
X019602Y027979D01*
X019598Y027922D01*
X019590Y027866D01*
X019579Y027810D01*
X019564Y027755D01*
X019545Y027702D01*
X019523Y027649D01*
X019497Y027599D01*
X019468Y027550D01*
X019436Y027503D01*
X019401Y027458D01*
X019363Y027416D01*
X019322Y027377D01*
X019279Y027340D01*
X019233Y027306D01*
X019185Y027276D01*
X019135Y027248D01*
X019084Y027224D01*
X019031Y027204D01*
X018977Y027187D01*
X018921Y027174D01*
X018865Y027165D01*
X018809Y027159D01*
X018752Y027157D01*
X016352Y027157D01*
D18*
X016051Y026560D02*
X016127Y026483D01*
X016127Y026330D01*
X016051Y026253D01*
X016051Y026099D02*
X016127Y026023D01*
X016127Y025869D01*
X016051Y025792D01*
X015744Y025792D01*
X015667Y025869D01*
X015667Y026023D01*
X015744Y026099D01*
X015744Y026253D02*
X015667Y026330D01*
X015667Y026483D01*
X015744Y026560D01*
X015820Y026560D01*
X015897Y026483D01*
X015974Y026560D01*
X016051Y026560D01*
X015897Y026483D02*
X015897Y026406D01*
X017527Y026350D02*
X017604Y026273D01*
X017527Y026350D02*
X017527Y026503D01*
X017604Y026580D01*
X017680Y026580D01*
X017987Y026273D01*
X017987Y026580D01*
X017911Y026119D02*
X017987Y026043D01*
X017987Y025889D01*
X017911Y025812D01*
X017604Y025812D01*
X017527Y025889D01*
X017527Y026043D01*
X017604Y026119D01*
X014767Y024845D02*
X014767Y024385D01*
X014920Y024385D02*
X014613Y024385D01*
X014460Y024385D02*
X014153Y024385D01*
X014307Y024385D02*
X014307Y024845D01*
X014153Y024691D01*
X014000Y024768D02*
X013923Y024845D01*
X013769Y024845D01*
X013693Y024768D01*
X013693Y024461D01*
X013769Y024385D01*
X013923Y024385D01*
X014000Y024461D01*
X014613Y024691D02*
X014767Y024845D01*
X014785Y028117D02*
X014325Y028117D01*
X014325Y028347D01*
X014401Y028424D01*
X014555Y028424D01*
X014632Y028347D01*
X014632Y028117D01*
X014632Y028270D02*
X014785Y028424D01*
X014785Y028577D02*
X014785Y028884D01*
X014785Y028731D02*
X014325Y028731D01*
X014478Y028577D01*
X014521Y029123D02*
X014521Y029584D01*
X014368Y029430D01*
X014214Y029507D02*
X014138Y029584D01*
X013984Y029584D01*
X013907Y029507D01*
X013907Y029200D01*
X013984Y029123D01*
X014138Y029123D01*
X014214Y029200D01*
X014368Y029123D02*
X014675Y029123D01*
X014828Y029200D02*
X015135Y029507D01*
X015135Y029200D01*
X015058Y029123D01*
X014905Y029123D01*
X014828Y029200D01*
X014828Y029507D01*
X014905Y029584D01*
X015058Y029584D01*
X015135Y029507D01*
X012843Y029354D02*
X012536Y029354D01*
X012536Y029124D01*
X012689Y029201D01*
X012766Y029201D01*
X012843Y029124D01*
X012843Y028970D01*
X012766Y028894D01*
X012613Y028894D01*
X012536Y028970D01*
X012383Y028894D02*
X012229Y029047D01*
X012306Y029047D02*
X012076Y029047D01*
X012076Y028894D02*
X012076Y029354D01*
X012306Y029354D01*
X012383Y029277D01*
X012383Y029124D01*
X012306Y029047D01*
X009179Y028791D02*
X009179Y028484D01*
X009179Y028331D02*
X008718Y028024D01*
X008795Y027870D02*
X008718Y027794D01*
X008718Y027563D01*
X009179Y027563D01*
X009025Y027563D02*
X009025Y027794D01*
X008948Y027870D01*
X008795Y027870D01*
X009025Y027717D02*
X009179Y027870D01*
X009179Y028024D02*
X008718Y028331D01*
X008872Y028484D02*
X008718Y028638D01*
X009179Y028638D01*
X008279Y028638D02*
X007818Y028638D01*
X007972Y028484D01*
X007818Y028331D02*
X008279Y028024D01*
X008279Y028331D02*
X007818Y028024D01*
X007818Y027870D02*
X007818Y027563D01*
X007818Y027717D02*
X008279Y027717D01*
X008279Y028484D02*
X008279Y028791D01*
X009174Y031178D02*
X009558Y031178D01*
X009634Y031255D01*
X009634Y031408D01*
X009558Y031485D01*
X009174Y031485D01*
X009251Y031638D02*
X009174Y031715D01*
X009174Y031869D01*
X009251Y031945D01*
X009327Y031945D01*
X009634Y031638D01*
X009634Y031945D01*
X004779Y032813D02*
X004318Y032813D01*
X004318Y033120D01*
X004395Y033274D02*
X004318Y033350D01*
X004318Y033504D01*
X004395Y033581D01*
X004472Y033581D01*
X004779Y033274D01*
X004779Y033581D01*
X004548Y032967D02*
X004548Y032813D01*
X009769Y035663D02*
X009769Y036124D01*
X009999Y036124D01*
X010075Y036047D01*
X010075Y035894D01*
X009999Y035817D01*
X009769Y035817D01*
X009922Y035817D02*
X010075Y035663D01*
X010229Y035894D02*
X010536Y035894D01*
X010689Y035970D02*
X010843Y036124D01*
X010843Y035663D01*
X010996Y035663D02*
X010689Y035663D01*
X010459Y035663D02*
X010459Y036124D01*
X010229Y035894D01*
X010075Y036463D02*
X009922Y036617D01*
X009999Y036617D02*
X009769Y036617D01*
X009769Y036463D02*
X009769Y036924D01*
X009999Y036924D01*
X010075Y036847D01*
X010075Y036694D01*
X009999Y036617D01*
X010229Y036694D02*
X010536Y036694D01*
X010689Y036847D02*
X010766Y036924D01*
X010919Y036924D01*
X010996Y036847D01*
X010689Y036540D01*
X010766Y036463D01*
X010919Y036463D01*
X010996Y036540D01*
X010996Y036847D01*
X010689Y036847D02*
X010689Y036540D01*
X010459Y036463D02*
X010459Y036924D01*
X010229Y036694D01*
X006429Y038893D02*
X006429Y039123D01*
X006352Y039199D01*
X006045Y039199D01*
X005968Y039123D01*
X005968Y038893D01*
X006429Y038893D01*
X006198Y039353D02*
X005968Y039583D01*
X006429Y039583D01*
X006198Y039660D02*
X006198Y039353D01*
X005479Y042393D02*
X005018Y042393D01*
X005479Y042393D02*
X005479Y042699D01*
X005479Y042853D02*
X005479Y043160D01*
X005479Y043006D02*
X005018Y043006D01*
X005172Y042853D01*
X012769Y049013D02*
X013075Y049013D01*
X013229Y049090D02*
X013306Y049013D01*
X013459Y049013D01*
X013536Y049090D01*
X013536Y049167D01*
X013459Y049244D01*
X013382Y049244D01*
X013459Y049244D02*
X013536Y049320D01*
X013536Y049397D01*
X013459Y049474D01*
X013306Y049474D01*
X013229Y049397D01*
X012769Y049474D02*
X012769Y049013D01*
X008059Y050182D02*
X007598Y050182D01*
X007598Y050412D01*
X007675Y050489D01*
X007828Y050489D01*
X007905Y050412D01*
X007905Y050182D01*
X007905Y050336D02*
X008059Y050489D01*
X008059Y050643D02*
X008059Y050949D01*
X008059Y050796D02*
X007598Y050796D01*
X007752Y050643D01*
X007675Y051103D02*
X007598Y051180D01*
X007598Y051333D01*
X007675Y051410D01*
X007752Y051410D01*
X008059Y051103D01*
X008059Y051410D01*
X005949Y051430D02*
X005949Y051123D01*
X005949Y051276D02*
X005488Y051276D01*
X005642Y051123D01*
X005949Y050969D02*
X005949Y050663D01*
X005949Y050816D02*
X005488Y050816D01*
X005642Y050663D01*
X005718Y050509D02*
X005795Y050432D01*
X005795Y050202D01*
X005949Y050202D02*
X005488Y050202D01*
X005488Y050432D01*
X005565Y050509D01*
X005718Y050509D01*
X005795Y050356D02*
X005949Y050509D01*
X005870Y051808D02*
X005409Y051808D01*
X005409Y052039D01*
X005486Y052115D01*
X005640Y052115D01*
X005716Y052039D01*
X005716Y051808D01*
X005716Y051962D02*
X005870Y052115D01*
X005793Y052269D02*
X005870Y052345D01*
X005870Y052499D01*
X005793Y052576D01*
X005486Y052576D01*
X005409Y052499D01*
X005409Y052345D01*
X005486Y052269D01*
X005563Y052269D01*
X005640Y052345D01*
X005640Y052576D01*
X003540Y052209D02*
X003463Y052209D01*
X003156Y052516D01*
X003079Y052516D01*
X003079Y052209D01*
X003156Y052055D02*
X003310Y052055D01*
X003386Y051979D01*
X003386Y051748D01*
X003540Y051748D02*
X003079Y051748D01*
X003079Y051979D01*
X003156Y052055D01*
X003386Y051902D02*
X003540Y052055D01*
X008148Y056063D02*
X008148Y056524D01*
X008378Y056524D01*
X008455Y056447D01*
X008455Y056294D01*
X008378Y056217D01*
X008148Y056217D01*
X008301Y056217D02*
X008455Y056063D01*
X008608Y056140D02*
X008608Y056217D01*
X008685Y056294D01*
X008838Y056294D01*
X008915Y056217D01*
X008915Y056140D01*
X008838Y056063D01*
X008685Y056063D01*
X008608Y056140D01*
X008685Y056294D02*
X008608Y056370D01*
X008608Y056447D01*
X008685Y056524D01*
X008838Y056524D01*
X008915Y056447D01*
X008915Y056370D01*
X008838Y056294D01*
X009958Y055844D02*
X010188Y055614D01*
X010188Y055921D01*
X009958Y055844D02*
X010419Y055844D01*
X010419Y055461D02*
X010419Y055154D01*
X010419Y055307D02*
X009958Y055307D01*
X010112Y055154D01*
X010035Y055000D02*
X009958Y054924D01*
X009958Y054770D01*
X010035Y054693D01*
X010342Y054693D01*
X010419Y054770D01*
X010419Y054924D01*
X010342Y055000D01*
X010103Y054039D02*
X010103Y053732D01*
X009873Y053963D01*
X010333Y053963D01*
X010256Y053579D02*
X009873Y053579D01*
X009873Y053272D02*
X010256Y053272D01*
X010333Y053349D01*
X010333Y053502D01*
X010256Y053579D01*
X011268Y053557D02*
X011729Y053557D01*
X011729Y053404D02*
X011729Y053711D01*
X011652Y053864D02*
X011729Y053941D01*
X011729Y054094D01*
X011652Y054171D01*
X011498Y054171D01*
X011422Y054094D01*
X011422Y054018D01*
X011498Y053864D01*
X011268Y053864D01*
X011268Y054171D01*
X011268Y053557D02*
X011422Y053404D01*
X011345Y053250D02*
X011268Y053174D01*
X011268Y053020D01*
X011345Y052943D01*
X011652Y052943D01*
X011729Y053020D01*
X011729Y053174D01*
X011652Y053250D01*
X012339Y053993D02*
X012339Y054454D01*
X012645Y054454D01*
X012799Y054300D02*
X012952Y054454D01*
X012952Y053993D01*
X012799Y053993D02*
X013106Y053993D01*
X012492Y054224D02*
X012339Y054224D01*
X009242Y058983D02*
X009319Y059060D01*
X009319Y059214D01*
X009242Y059290D01*
X009319Y059444D02*
X009319Y059751D01*
X009319Y059597D02*
X008858Y059597D01*
X009012Y059444D01*
X008935Y059290D02*
X008858Y059214D01*
X008858Y059060D01*
X008935Y058983D01*
X009242Y058983D01*
X008579Y058913D02*
X008118Y058913D01*
X008118Y059144D01*
X008195Y059220D01*
X008348Y059220D01*
X008425Y059144D01*
X008425Y058913D01*
X008425Y059067D02*
X008579Y059220D01*
X008579Y059374D02*
X008579Y059681D01*
X008579Y059527D02*
X008118Y059527D01*
X008272Y059374D01*
X008195Y059834D02*
X008118Y059911D01*
X008118Y060064D01*
X008195Y060141D01*
X008502Y059834D01*
X008579Y059911D01*
X008579Y060064D01*
X008502Y060141D01*
X008195Y060141D01*
X008195Y059834D02*
X008502Y059834D01*
X008935Y060058D02*
X009088Y059904D01*
X009088Y060134D01*
X009165Y060211D01*
X009242Y060211D01*
X009319Y060134D01*
X009319Y059981D01*
X009242Y059904D01*
X009088Y059904D01*
X008935Y060058D02*
X008858Y060211D01*
X016941Y061039D02*
X017401Y061346D01*
X017171Y061499D02*
X017171Y061806D01*
X016941Y061730D02*
X017171Y061499D01*
X016941Y061346D02*
X017401Y061039D01*
X017401Y061730D02*
X016941Y061730D01*
X022487Y061642D02*
X022487Y061489D01*
X022487Y061566D02*
X022871Y061566D01*
X022948Y061489D01*
X022948Y061412D01*
X022871Y061335D01*
X022948Y061796D02*
X022948Y062103D01*
X022948Y061949D02*
X022487Y061949D01*
X022641Y061796D01*
X022535Y057988D02*
X022458Y057988D01*
X022381Y057911D01*
X022381Y057758D01*
X022458Y057681D01*
X022458Y057527D02*
X022381Y057451D01*
X022381Y057221D01*
X022842Y057221D01*
X022842Y057451D01*
X022765Y057527D01*
X022458Y057527D01*
X022842Y057681D02*
X022535Y057988D01*
X022842Y057988D02*
X022842Y057681D01*
X029807Y050864D02*
X029807Y050480D01*
X029884Y050403D01*
X030038Y050403D01*
X030114Y050480D01*
X030114Y050864D01*
X030268Y050710D02*
X030421Y050864D01*
X030421Y050403D01*
X030268Y050403D02*
X030575Y050403D01*
X030728Y050480D02*
X031035Y050787D01*
X031035Y050480D01*
X030958Y050403D01*
X030805Y050403D01*
X030728Y050480D01*
X030728Y050787D01*
X030805Y050864D01*
X030958Y050864D01*
X031035Y050787D01*
X034786Y050864D02*
X034786Y050480D01*
X034863Y050403D01*
X035016Y050403D01*
X035093Y050480D01*
X035093Y050864D01*
X035247Y050710D02*
X035400Y050864D01*
X035400Y050403D01*
X035247Y050403D02*
X035554Y050403D01*
X035707Y050403D02*
X036014Y050403D01*
X035860Y050403D02*
X035860Y050864D01*
X035707Y050710D01*
X039715Y050864D02*
X039715Y050480D01*
X039792Y050403D01*
X039945Y050403D01*
X040022Y050480D01*
X040022Y050864D01*
X040175Y050710D02*
X040329Y050864D01*
X040329Y050403D01*
X040482Y050403D02*
X040175Y050403D01*
X040636Y050403D02*
X040943Y050710D01*
X040943Y050787D01*
X040866Y050864D01*
X040712Y050864D01*
X040636Y050787D01*
X040636Y050403D02*
X040943Y050403D01*
X044694Y050480D02*
X044770Y050403D01*
X044924Y050403D01*
X045001Y050480D01*
X045001Y050864D01*
X045154Y050710D02*
X045308Y050864D01*
X045308Y050403D01*
X045461Y050403D02*
X045154Y050403D01*
X044694Y050480D02*
X044694Y050864D01*
X045614Y050787D02*
X045691Y050864D01*
X045845Y050864D01*
X045921Y050787D01*
X045921Y050710D01*
X045845Y050634D01*
X045921Y050557D01*
X045921Y050480D01*
X045845Y050403D01*
X045691Y050403D01*
X045614Y050480D01*
X045768Y050634D02*
X045845Y050634D01*
X049772Y050480D02*
X049849Y050403D01*
X050003Y050403D01*
X050079Y050480D01*
X050079Y050864D01*
X050233Y050710D02*
X050386Y050864D01*
X050386Y050403D01*
X050233Y050403D02*
X050540Y050403D01*
X050693Y050634D02*
X051000Y050634D01*
X050923Y050864D02*
X050923Y050403D01*
X050693Y050634D02*
X050923Y050864D01*
X049772Y050864D02*
X049772Y050480D01*
X054601Y050480D02*
X054678Y050403D01*
X054831Y050403D01*
X054908Y050480D01*
X054908Y050864D01*
X055062Y050710D02*
X055215Y050864D01*
X055215Y050403D01*
X055062Y050403D02*
X055369Y050403D01*
X055522Y050480D02*
X055599Y050403D01*
X055752Y050403D01*
X055829Y050480D01*
X055829Y050634D01*
X055752Y050710D01*
X055675Y050710D01*
X055522Y050634D01*
X055522Y050864D01*
X055829Y050864D01*
X054601Y050864D02*
X054601Y050480D01*
X059480Y050480D02*
X059557Y050403D01*
X059710Y050403D01*
X059787Y050480D01*
X059787Y050864D01*
X059940Y050710D02*
X060094Y050864D01*
X060094Y050403D01*
X060247Y050403D02*
X059940Y050403D01*
X059480Y050480D02*
X059480Y050864D01*
X060401Y050634D02*
X060631Y050634D01*
X060708Y050557D01*
X060708Y050480D01*
X060631Y050403D01*
X060477Y050403D01*
X060401Y050480D01*
X060401Y050634D01*
X060554Y050787D01*
X060708Y050864D01*
X064659Y050864D02*
X064659Y050480D01*
X064735Y050403D01*
X064889Y050403D01*
X064966Y050480D01*
X064966Y050864D01*
X065119Y050710D02*
X065273Y050864D01*
X065273Y050403D01*
X065426Y050403D02*
X065119Y050403D01*
X065579Y050403D02*
X065579Y050480D01*
X065886Y050787D01*
X065886Y050864D01*
X065579Y050864D01*
X065392Y046084D02*
X065392Y045623D01*
X065239Y045623D02*
X065546Y045623D01*
X065699Y045700D02*
X065776Y045623D01*
X065929Y045623D01*
X066006Y045700D01*
X066006Y046007D01*
X065929Y046084D01*
X065776Y046084D01*
X065699Y046007D01*
X065699Y045930D01*
X065776Y045854D01*
X066006Y045854D01*
X065392Y046084D02*
X065239Y045930D01*
X065085Y045854D02*
X065009Y045777D01*
X064779Y045777D01*
X064932Y045777D02*
X065085Y045623D01*
X065085Y045854D02*
X065085Y046007D01*
X065009Y046084D01*
X064779Y046084D01*
X064779Y045623D01*
X060806Y045700D02*
X060729Y045623D01*
X060576Y045623D01*
X060499Y045700D01*
X060499Y045777D01*
X060576Y045854D01*
X060729Y045854D01*
X060806Y045777D01*
X060806Y045700D01*
X060729Y045854D02*
X060806Y045930D01*
X060806Y046007D01*
X060729Y046084D01*
X060576Y046084D01*
X060499Y046007D01*
X060499Y045930D01*
X060576Y045854D01*
X060346Y045623D02*
X060039Y045623D01*
X060192Y045623D02*
X060192Y046084D01*
X060039Y045930D01*
X059885Y045854D02*
X059809Y045777D01*
X059579Y045777D01*
X059732Y045777D02*
X059885Y045623D01*
X059885Y045854D02*
X059885Y046007D01*
X059809Y046084D01*
X059579Y046084D01*
X059579Y045623D01*
X056006Y046007D02*
X055699Y045700D01*
X055699Y045623D01*
X055546Y045623D02*
X055239Y045623D01*
X055392Y045623D02*
X055392Y046084D01*
X055239Y045930D01*
X055085Y045854D02*
X055009Y045777D01*
X054779Y045777D01*
X054932Y045777D02*
X055085Y045623D01*
X055085Y045854D02*
X055085Y046007D01*
X055009Y046084D01*
X054779Y046084D01*
X054779Y045623D01*
X055699Y046084D02*
X056006Y046084D01*
X056006Y046007D01*
X051156Y046084D02*
X051003Y046007D01*
X050849Y045854D01*
X051079Y045854D01*
X051156Y045777D01*
X051156Y045700D01*
X051079Y045623D01*
X050926Y045623D01*
X050849Y045700D01*
X050849Y045854D01*
X050696Y045623D02*
X050389Y045623D01*
X050542Y045623D02*
X050542Y046084D01*
X050389Y045930D01*
X050235Y045854D02*
X050159Y045777D01*
X049929Y045777D01*
X050082Y045777D02*
X050235Y045623D01*
X050235Y045854D02*
X050235Y046007D01*
X050159Y046084D01*
X049929Y046084D01*
X049929Y045623D01*
X046006Y045700D02*
X045929Y045623D01*
X045776Y045623D01*
X045699Y045700D01*
X045699Y045854D02*
X045853Y045930D01*
X045929Y045930D01*
X046006Y045854D01*
X046006Y045700D01*
X045699Y045854D02*
X045699Y046084D01*
X046006Y046084D01*
X045392Y046084D02*
X045392Y045623D01*
X045239Y045623D02*
X045546Y045623D01*
X045239Y045930D02*
X045392Y046084D01*
X045085Y046007D02*
X045085Y045854D01*
X045009Y045777D01*
X044779Y045777D01*
X044932Y045777D02*
X045085Y045623D01*
X044779Y045623D02*
X044779Y046084D01*
X045009Y046084D01*
X045085Y046007D01*
X041106Y045854D02*
X040799Y045854D01*
X041029Y046084D01*
X041029Y045623D01*
X040646Y045623D02*
X040339Y045623D01*
X040492Y045623D02*
X040492Y046084D01*
X040339Y045930D01*
X040185Y045854D02*
X040109Y045777D01*
X039879Y045777D01*
X040032Y045777D02*
X040185Y045623D01*
X040185Y045854D02*
X040185Y046007D01*
X040109Y046084D01*
X039879Y046084D01*
X039879Y045623D01*
X036156Y045700D02*
X036079Y045623D01*
X035926Y045623D01*
X035849Y045700D01*
X035696Y045623D02*
X035389Y045623D01*
X035542Y045623D02*
X035542Y046084D01*
X035389Y045930D01*
X035235Y045854D02*
X035159Y045777D01*
X034929Y045777D01*
X035082Y045777D02*
X035235Y045623D01*
X035235Y045854D02*
X035235Y046007D01*
X035159Y046084D01*
X034929Y046084D01*
X034929Y045623D01*
X035849Y046007D02*
X035926Y046084D01*
X036079Y046084D01*
X036156Y046007D01*
X036156Y045930D01*
X036079Y045854D01*
X036156Y045777D01*
X036156Y045700D01*
X036079Y045854D02*
X036003Y045854D01*
X030896Y045854D02*
X030589Y045854D01*
X030819Y046084D01*
X030819Y045623D01*
X030435Y045623D02*
X030282Y045777D01*
X030359Y045777D02*
X030129Y045777D01*
X030129Y045623D02*
X030129Y046084D01*
X030359Y046084D01*
X030435Y046007D01*
X030435Y045854D01*
X030359Y045777D01*
X030375Y041164D02*
X030298Y041087D01*
X030375Y041164D02*
X030528Y041164D01*
X030605Y041087D01*
X030605Y041010D01*
X030298Y040703D01*
X030605Y040703D01*
X030758Y040780D02*
X031065Y041087D01*
X031065Y040780D01*
X030988Y040703D01*
X030835Y040703D01*
X030758Y040780D01*
X030758Y041087D01*
X030835Y041164D01*
X030988Y041164D01*
X031065Y041087D01*
X030144Y041164D02*
X030144Y040780D01*
X030068Y040703D01*
X029914Y040703D01*
X029837Y040780D01*
X029837Y041164D01*
X034739Y041164D02*
X034739Y040780D01*
X034815Y040703D01*
X034969Y040703D01*
X035046Y040780D01*
X035046Y041164D01*
X035199Y041087D02*
X035276Y041164D01*
X035429Y041164D01*
X035506Y041087D01*
X035506Y041010D01*
X035199Y040703D01*
X035506Y040703D01*
X035659Y040703D02*
X035966Y040703D01*
X035813Y040703D02*
X035813Y041164D01*
X035659Y041010D01*
X039710Y041164D02*
X039710Y040780D01*
X039787Y040703D01*
X039940Y040703D01*
X040017Y040780D01*
X040017Y041164D01*
X040170Y041087D02*
X040247Y041164D01*
X040400Y041164D01*
X040477Y041087D01*
X040477Y041010D01*
X040170Y040703D01*
X040477Y040703D01*
X040631Y040703D02*
X040938Y041010D01*
X040938Y041087D01*
X040861Y041164D01*
X040707Y041164D01*
X040631Y041087D01*
X040631Y040703D02*
X040938Y040703D01*
X044681Y040780D02*
X044758Y040703D01*
X044911Y040703D01*
X044988Y040780D01*
X044988Y041164D01*
X045141Y041087D02*
X045218Y041164D01*
X045372Y041164D01*
X045448Y041087D01*
X045448Y041010D01*
X045141Y040703D01*
X045448Y040703D01*
X045602Y040780D02*
X045679Y040703D01*
X045832Y040703D01*
X045909Y040780D01*
X045909Y040857D01*
X045832Y040934D01*
X045755Y040934D01*
X045832Y040934D02*
X045909Y041010D01*
X045909Y041087D01*
X045832Y041164D01*
X045679Y041164D01*
X045602Y041087D01*
X044681Y041164D02*
X044681Y040780D01*
X049752Y040780D02*
X049829Y040703D01*
X049983Y040703D01*
X050059Y040780D01*
X050059Y041164D01*
X050213Y041087D02*
X050289Y041164D01*
X050443Y041164D01*
X050520Y041087D01*
X050520Y041010D01*
X050213Y040703D01*
X050520Y040703D01*
X050673Y040934D02*
X050980Y040934D01*
X050903Y041164D02*
X050673Y040934D01*
X050903Y040703D02*
X050903Y041164D01*
X049752Y041164D02*
X049752Y040780D01*
X054624Y040780D02*
X054700Y040703D01*
X054854Y040703D01*
X054931Y040780D01*
X054931Y041164D01*
X055084Y041087D02*
X055161Y041164D01*
X055314Y041164D01*
X055391Y041087D01*
X055391Y041010D01*
X055084Y040703D01*
X055391Y040703D01*
X055544Y040780D02*
X055621Y040703D01*
X055775Y040703D01*
X055851Y040780D01*
X055851Y040934D01*
X055775Y041010D01*
X055698Y041010D01*
X055544Y040934D01*
X055544Y041164D01*
X055851Y041164D01*
X054624Y041164D02*
X054624Y040780D01*
X059445Y040780D02*
X059522Y040703D01*
X059675Y040703D01*
X059752Y040780D01*
X059752Y041164D01*
X059905Y041087D02*
X059982Y041164D01*
X060135Y041164D01*
X060212Y041087D01*
X060212Y041010D01*
X059905Y040703D01*
X060212Y040703D01*
X060366Y040780D02*
X060442Y040703D01*
X060596Y040703D01*
X060673Y040780D01*
X060673Y040857D01*
X060596Y040934D01*
X060366Y040934D01*
X060366Y040780D01*
X060366Y040934D02*
X060519Y041087D01*
X060673Y041164D01*
X059445Y041164D02*
X059445Y040780D01*
X064616Y040780D02*
X064693Y040703D01*
X064846Y040703D01*
X064923Y040780D01*
X064923Y041164D01*
X065077Y041087D02*
X065153Y041164D01*
X065307Y041164D01*
X065383Y041087D01*
X065383Y041010D01*
X065077Y040703D01*
X065383Y040703D01*
X065537Y040703D02*
X065537Y040780D01*
X065844Y041087D01*
X065844Y041164D01*
X065537Y041164D01*
X064616Y041164D02*
X064616Y040780D01*
X064839Y035024D02*
X065069Y035024D01*
X065145Y034947D01*
X065145Y034794D01*
X065069Y034717D01*
X064839Y034717D01*
X064992Y034717D02*
X065145Y034563D01*
X065299Y034563D02*
X065606Y034870D01*
X065606Y034947D01*
X065529Y035024D01*
X065376Y035024D01*
X065299Y034947D01*
X065299Y034563D02*
X065606Y034563D01*
X065759Y034563D02*
X066066Y034563D01*
X065913Y034563D02*
X065913Y035024D01*
X065759Y034870D01*
X064839Y035024D02*
X064839Y034563D01*
X064824Y031664D02*
X064824Y031280D01*
X064748Y031203D01*
X064594Y031203D01*
X064517Y031280D01*
X064517Y031664D01*
X064978Y031587D02*
X065054Y031664D01*
X065208Y031664D01*
X065285Y031587D01*
X065285Y031510D01*
X065208Y031434D01*
X065285Y031357D01*
X065285Y031280D01*
X065208Y031203D01*
X065054Y031203D01*
X064978Y031280D01*
X065131Y031434D02*
X065208Y031434D01*
X065438Y031280D02*
X065438Y031203D01*
X065438Y031280D02*
X065745Y031587D01*
X065745Y031664D01*
X065438Y031664D01*
X060824Y031664D02*
X060670Y031587D01*
X060517Y031434D01*
X060747Y031434D01*
X060824Y031357D01*
X060824Y031280D01*
X060747Y031203D01*
X060594Y031203D01*
X060517Y031280D01*
X060517Y031434D01*
X060363Y031510D02*
X060287Y031434D01*
X060363Y031357D01*
X060363Y031280D01*
X060287Y031203D01*
X060133Y031203D01*
X060056Y031280D01*
X059903Y031280D02*
X059903Y031664D01*
X060056Y031587D02*
X060133Y031664D01*
X060287Y031664D01*
X060363Y031587D01*
X060363Y031510D01*
X060287Y031434D02*
X060210Y031434D01*
X059903Y031280D02*
X059826Y031203D01*
X059673Y031203D01*
X059596Y031280D01*
X059596Y031664D01*
X059589Y034543D02*
X059589Y035004D01*
X059819Y035004D01*
X059895Y034927D01*
X059895Y034774D01*
X059819Y034697D01*
X059589Y034697D01*
X059742Y034697D02*
X059895Y034543D01*
X060049Y034543D02*
X060356Y034850D01*
X060356Y034927D01*
X060279Y035004D01*
X060126Y035004D01*
X060049Y034927D01*
X060049Y034543D02*
X060356Y034543D01*
X060509Y034543D02*
X060816Y034850D01*
X060816Y034927D01*
X060739Y035004D01*
X060586Y035004D01*
X060509Y034927D01*
X060509Y034543D02*
X060816Y034543D01*
X056016Y034620D02*
X055939Y034543D01*
X055786Y034543D01*
X055709Y034620D01*
X055556Y034543D02*
X055249Y034543D01*
X055556Y034850D01*
X055556Y034927D01*
X055479Y035004D01*
X055326Y035004D01*
X055249Y034927D01*
X055095Y034927D02*
X055095Y034774D01*
X055019Y034697D01*
X054789Y034697D01*
X054942Y034697D02*
X055095Y034543D01*
X054789Y034543D02*
X054789Y035004D01*
X055019Y035004D01*
X055095Y034927D01*
X055709Y034927D02*
X055786Y035004D01*
X055939Y035004D01*
X056016Y034927D01*
X056016Y034850D01*
X055939Y034774D01*
X056016Y034697D01*
X056016Y034620D01*
X055939Y034774D02*
X055863Y034774D01*
X055903Y031664D02*
X055596Y031664D01*
X055596Y031434D01*
X055749Y031510D01*
X055826Y031510D01*
X055903Y031434D01*
X055903Y031280D01*
X055826Y031203D01*
X055672Y031203D01*
X055596Y031280D01*
X055442Y031280D02*
X055365Y031203D01*
X055212Y031203D01*
X055135Y031280D01*
X054982Y031280D02*
X054982Y031664D01*
X055135Y031587D02*
X055212Y031664D01*
X055365Y031664D01*
X055442Y031587D01*
X055442Y031510D01*
X055365Y031434D01*
X055442Y031357D01*
X055442Y031280D01*
X055365Y031434D02*
X055289Y031434D01*
X054982Y031280D02*
X054905Y031203D01*
X054752Y031203D01*
X054675Y031280D01*
X054675Y031664D01*
X050981Y031434D02*
X050674Y031434D01*
X050905Y031664D01*
X050905Y031203D01*
X050521Y031280D02*
X050444Y031203D01*
X050291Y031203D01*
X050214Y031280D01*
X050060Y031280D02*
X050060Y031664D01*
X050214Y031587D02*
X050291Y031664D01*
X050444Y031664D01*
X050521Y031587D01*
X050521Y031510D01*
X050444Y031434D01*
X050521Y031357D01*
X050521Y031280D01*
X050444Y031434D02*
X050367Y031434D01*
X050060Y031280D02*
X049984Y031203D01*
X049830Y031203D01*
X049754Y031280D01*
X049754Y031664D01*
X049929Y034543D02*
X049929Y035004D01*
X050159Y035004D01*
X050235Y034927D01*
X050235Y034774D01*
X050159Y034697D01*
X049929Y034697D01*
X050082Y034697D02*
X050235Y034543D01*
X050389Y034543D02*
X050696Y034850D01*
X050696Y034927D01*
X050619Y035004D01*
X050466Y035004D01*
X050389Y034927D01*
X050389Y034543D02*
X050696Y034543D01*
X050849Y034774D02*
X051156Y034774D01*
X051079Y035004D02*
X051079Y034543D01*
X050849Y034774D02*
X051079Y035004D01*
X046016Y034974D02*
X045709Y034974D01*
X045709Y034744D01*
X045863Y034820D01*
X045939Y034820D01*
X046016Y034744D01*
X046016Y034590D01*
X045939Y034513D01*
X045786Y034513D01*
X045709Y034590D01*
X045556Y034513D02*
X045249Y034513D01*
X045556Y034820D01*
X045556Y034897D01*
X045479Y034974D01*
X045326Y034974D01*
X045249Y034897D01*
X045095Y034897D02*
X045095Y034744D01*
X045019Y034667D01*
X044789Y034667D01*
X044942Y034667D02*
X045095Y034513D01*
X044789Y034513D02*
X044789Y034974D01*
X045019Y034974D01*
X045095Y034897D01*
X045139Y031664D02*
X045139Y031280D01*
X045062Y031203D01*
X044909Y031203D01*
X044832Y031280D01*
X044832Y031664D01*
X045293Y031587D02*
X045369Y031664D01*
X045523Y031664D01*
X045600Y031587D01*
X045600Y031510D01*
X045523Y031434D01*
X045600Y031357D01*
X045600Y031280D01*
X045523Y031203D01*
X045369Y031203D01*
X045293Y031280D01*
X045446Y031434D02*
X045523Y031434D01*
X045753Y031587D02*
X045830Y031664D01*
X045983Y031664D01*
X046060Y031587D01*
X046060Y031510D01*
X045983Y031434D01*
X046060Y031357D01*
X046060Y031280D01*
X045983Y031203D01*
X045830Y031203D01*
X045753Y031280D01*
X045907Y031434D02*
X045983Y031434D01*
X041139Y031510D02*
X041139Y031587D01*
X041062Y031664D01*
X040909Y031664D01*
X040832Y031587D01*
X040678Y031587D02*
X040678Y031510D01*
X040602Y031434D01*
X040678Y031357D01*
X040678Y031280D01*
X040602Y031203D01*
X040448Y031203D01*
X040371Y031280D01*
X040218Y031280D02*
X040218Y031664D01*
X040371Y031587D02*
X040448Y031664D01*
X040602Y031664D01*
X040678Y031587D01*
X040602Y031434D02*
X040525Y031434D01*
X040218Y031280D02*
X040141Y031203D01*
X039988Y031203D01*
X039911Y031280D01*
X039911Y031664D01*
X040832Y031203D02*
X041139Y031510D01*
X041139Y031203D02*
X040832Y031203D01*
X040826Y034513D02*
X040979Y034513D01*
X041056Y034590D01*
X041056Y034667D01*
X040979Y034744D01*
X040749Y034744D01*
X040749Y034590D01*
X040826Y034513D01*
X040596Y034513D02*
X040289Y034513D01*
X040596Y034820D01*
X040596Y034897D01*
X040519Y034974D01*
X040366Y034974D01*
X040289Y034897D01*
X040135Y034897D02*
X040135Y034744D01*
X040059Y034667D01*
X039829Y034667D01*
X039982Y034667D02*
X040135Y034513D01*
X039829Y034513D02*
X039829Y034974D01*
X040059Y034974D01*
X040135Y034897D01*
X040749Y034744D02*
X040903Y034897D01*
X041056Y034974D01*
X036056Y034974D02*
X036056Y034897D01*
X035749Y034590D01*
X035749Y034513D01*
X035596Y034513D02*
X035289Y034513D01*
X035596Y034820D01*
X035596Y034897D01*
X035519Y034974D01*
X035366Y034974D01*
X035289Y034897D01*
X035135Y034897D02*
X035059Y034974D01*
X034829Y034974D01*
X034829Y034513D01*
X034829Y034667D02*
X035059Y034667D01*
X035135Y034744D01*
X035135Y034897D01*
X034982Y034667D02*
X035135Y034513D01*
X035749Y034974D02*
X036056Y034974D01*
X036064Y031664D02*
X036064Y031203D01*
X035911Y031203D02*
X036217Y031203D01*
X035911Y031510D02*
X036064Y031664D01*
X035757Y031587D02*
X035757Y031510D01*
X035680Y031434D01*
X035757Y031357D01*
X035757Y031280D01*
X035680Y031203D01*
X035527Y031203D01*
X035450Y031280D01*
X035297Y031280D02*
X035297Y031664D01*
X035450Y031587D02*
X035527Y031664D01*
X035680Y031664D01*
X035757Y031587D01*
X035680Y031434D02*
X035604Y031434D01*
X035297Y031280D02*
X035220Y031203D01*
X035066Y031203D01*
X034990Y031280D01*
X034990Y031664D01*
X031296Y031587D02*
X030989Y031280D01*
X031066Y031203D01*
X031219Y031203D01*
X031296Y031280D01*
X031296Y031587D01*
X031219Y031664D01*
X031066Y031664D01*
X030989Y031587D01*
X030989Y031280D01*
X030836Y031280D02*
X030759Y031203D01*
X030606Y031203D01*
X030529Y031280D01*
X030375Y031280D02*
X030375Y031664D01*
X030529Y031587D02*
X030606Y031664D01*
X030759Y031664D01*
X030836Y031587D01*
X030836Y031510D01*
X030759Y031434D01*
X030836Y031357D01*
X030836Y031280D01*
X030759Y031434D02*
X030682Y031434D01*
X030375Y031280D02*
X030299Y031203D01*
X030145Y031203D01*
X030069Y031280D01*
X030069Y031664D01*
X030195Y034493D02*
X030042Y034647D01*
X030119Y034647D02*
X029889Y034647D01*
X029889Y034493D02*
X029889Y034954D01*
X030119Y034954D01*
X030195Y034877D01*
X030195Y034724D01*
X030119Y034647D01*
X030349Y034493D02*
X030656Y034800D01*
X030656Y034877D01*
X030579Y034954D01*
X030426Y034954D01*
X030349Y034877D01*
X030349Y034493D02*
X030656Y034493D01*
X030809Y034570D02*
X031116Y034877D01*
X031116Y034570D01*
X031039Y034493D01*
X030886Y034493D01*
X030809Y034570D01*
X030809Y034877D01*
X030886Y034954D01*
X031039Y034954D01*
X031116Y034877D01*
X023279Y032604D02*
X023202Y032681D01*
X022895Y032681D01*
X022818Y032604D01*
X022818Y032450D01*
X022895Y032374D01*
X022972Y032374D01*
X023048Y032450D01*
X023048Y032681D01*
X023279Y032604D02*
X023279Y032450D01*
X023202Y032374D01*
X023202Y032220D02*
X023279Y032144D01*
X023279Y031990D01*
X023202Y031913D01*
X022895Y031913D01*
X022818Y031990D01*
X022818Y032144D01*
X022895Y032220D01*
X016553Y036975D02*
X016553Y037435D01*
X016323Y037205D01*
X016630Y037205D01*
X016170Y037358D02*
X016093Y037435D01*
X015939Y037435D01*
X015863Y037358D01*
X015863Y037051D01*
X015939Y036975D01*
X016093Y036975D01*
X016170Y037051D01*
X014919Y037044D02*
X014919Y037351D01*
X014919Y037197D02*
X014458Y037197D01*
X014612Y037044D01*
X014535Y036890D02*
X014458Y036814D01*
X014458Y036660D01*
X014535Y036583D01*
X014842Y036583D01*
X014919Y036660D01*
X014919Y036814D01*
X014842Y036890D01*
X014882Y035752D02*
X014882Y035445D01*
X014882Y035599D02*
X014422Y035599D01*
X014576Y035445D01*
X014422Y035292D02*
X014806Y035292D01*
X014882Y035215D01*
X014882Y035061D01*
X014806Y034985D01*
X014422Y034985D01*
X009752Y025360D02*
X009829Y025283D01*
X009829Y025130D01*
X009752Y025053D01*
X009829Y024899D02*
X009675Y024746D01*
X009675Y024823D02*
X009675Y024593D01*
X009829Y024593D02*
X009368Y024593D01*
X009368Y024823D01*
X009445Y024899D01*
X009598Y024899D01*
X009675Y024823D01*
X009445Y025053D02*
X009368Y025130D01*
X009368Y025283D01*
X009445Y025360D01*
X009522Y025360D01*
X009598Y025283D01*
X009675Y025360D01*
X009752Y025360D01*
X009598Y025283D02*
X009598Y025206D01*
X007629Y025150D02*
X007629Y025304D01*
X007552Y025381D01*
X007475Y025381D01*
X007398Y025304D01*
X007398Y025074D01*
X007552Y025074D01*
X007629Y025150D01*
X007629Y024920D02*
X007475Y024767D01*
X007475Y024844D02*
X007475Y024613D01*
X007629Y024613D02*
X007168Y024613D01*
X007168Y024844D01*
X007245Y024920D01*
X007398Y024920D01*
X007475Y024844D01*
X007398Y025074D02*
X007245Y025227D01*
X007168Y025381D01*
X014226Y018331D02*
X014379Y018331D01*
X014302Y018331D02*
X014302Y017947D01*
X014226Y017870D01*
X014149Y017870D01*
X014072Y017947D01*
X014533Y017870D02*
X014839Y018177D01*
X014839Y018254D01*
X014763Y018331D01*
X014609Y018331D01*
X014533Y018254D01*
X014533Y017870D02*
X014839Y017870D01*
X017088Y017970D02*
X017088Y018124D01*
X017165Y018201D01*
X017242Y018201D01*
X017318Y018124D01*
X017395Y018201D01*
X017472Y018201D01*
X017549Y018124D01*
X017549Y017970D01*
X017472Y017894D01*
X017549Y017740D02*
X017395Y017587D01*
X017395Y017664D02*
X017395Y017433D01*
X017549Y017433D02*
X017088Y017433D01*
X017088Y017664D01*
X017165Y017740D01*
X017318Y017740D01*
X017395Y017664D01*
X017165Y017894D02*
X017088Y017970D01*
X017318Y018047D02*
X017318Y018124D01*
X017318Y018354D02*
X017318Y018584D01*
X017395Y018661D01*
X017472Y018661D01*
X017549Y018584D01*
X017549Y018431D01*
X017472Y018354D01*
X017318Y018354D01*
X017165Y018508D01*
X017088Y018661D01*
X017138Y014320D02*
X017215Y014320D01*
X017522Y014013D01*
X017599Y014013D01*
X017522Y013859D02*
X017599Y013783D01*
X017599Y013629D01*
X017522Y013553D01*
X017599Y013399D02*
X017445Y013246D01*
X017445Y013322D02*
X017445Y013092D01*
X017599Y013092D02*
X017138Y013092D01*
X017138Y013322D01*
X017215Y013399D01*
X017368Y013399D01*
X017445Y013322D01*
X017215Y013553D02*
X017138Y013629D01*
X017138Y013783D01*
X017215Y013859D01*
X017292Y013859D01*
X017368Y013783D01*
X017445Y013859D01*
X017522Y013859D01*
X017368Y013783D02*
X017368Y013706D01*
X017138Y014013D02*
X017138Y014320D01*
X015289Y012626D02*
X015289Y012472D01*
X015212Y012396D01*
X015059Y012549D02*
X015059Y012626D01*
X015136Y012703D01*
X015212Y012703D01*
X015289Y012626D01*
X015059Y012626D02*
X014982Y012703D01*
X014905Y012703D01*
X014829Y012626D01*
X014829Y012472D01*
X014905Y012396D01*
X014829Y012242D02*
X014829Y012089D01*
X014829Y012165D02*
X015212Y012165D01*
X015289Y012089D01*
X015289Y012012D01*
X015212Y011935D01*
X023622Y015073D02*
X023622Y015534D01*
X023853Y015534D01*
X023929Y015457D01*
X023929Y015304D01*
X023853Y015227D01*
X023622Y015227D01*
X023776Y015227D02*
X023929Y015073D01*
X024083Y015150D02*
X024159Y015073D01*
X024313Y015073D01*
X024390Y015150D01*
X024390Y015227D01*
X024313Y015304D01*
X024236Y015304D01*
X024313Y015304D02*
X024390Y015380D01*
X024390Y015457D01*
X024313Y015534D01*
X024159Y015534D01*
X024083Y015457D01*
X024543Y015457D02*
X024543Y015380D01*
X024620Y015304D01*
X024773Y015304D01*
X024850Y015227D01*
X024850Y015150D01*
X024773Y015073D01*
X024620Y015073D01*
X024543Y015150D01*
X024543Y015227D01*
X024620Y015304D01*
X024773Y015304D02*
X024850Y015380D01*
X024850Y015457D01*
X024773Y015534D01*
X024620Y015534D01*
X024543Y015457D01*
X021040Y022214D02*
X021117Y022291D01*
X021117Y022598D01*
X021040Y022675D01*
X020887Y022675D01*
X020810Y022598D01*
X020810Y022521D01*
X020887Y022445D01*
X021117Y022445D01*
X021040Y022214D02*
X020887Y022214D01*
X020810Y022291D01*
X020657Y022291D02*
X020580Y022214D01*
X020426Y022214D01*
X020350Y022291D01*
X020196Y022214D02*
X020043Y022368D01*
X020120Y022368D02*
X019889Y022368D01*
X019889Y022214D02*
X019889Y022675D01*
X020120Y022675D01*
X020196Y022598D01*
X020196Y022445D01*
X020120Y022368D01*
X020350Y022598D02*
X020426Y022675D01*
X020580Y022675D01*
X020657Y022598D01*
X020657Y022521D01*
X020580Y022445D01*
X020657Y022368D01*
X020657Y022291D01*
X020580Y022445D02*
X020503Y022445D01*
X030449Y022983D02*
X030449Y023444D01*
X030679Y023444D01*
X030755Y023367D01*
X030755Y023214D01*
X030679Y023137D01*
X030449Y023137D01*
X030602Y023137D02*
X030755Y022983D01*
X030909Y023060D02*
X030986Y022983D01*
X031139Y022983D01*
X031216Y023060D01*
X031216Y023137D01*
X031139Y023214D01*
X031062Y023214D01*
X031139Y023214D02*
X031216Y023290D01*
X031216Y023367D01*
X031139Y023444D01*
X030986Y023444D01*
X030909Y023367D01*
X031369Y023444D02*
X031369Y023214D01*
X031523Y023290D01*
X031599Y023290D01*
X031676Y023214D01*
X031676Y023060D01*
X031599Y022983D01*
X031446Y022983D01*
X031369Y023060D01*
X031369Y023444D02*
X031676Y023444D01*
X035089Y026203D02*
X035089Y026664D01*
X035319Y026664D01*
X035395Y026587D01*
X035395Y026434D01*
X035319Y026357D01*
X035089Y026357D01*
X035242Y026357D02*
X035395Y026203D01*
X035549Y026280D02*
X035626Y026203D01*
X035779Y026203D01*
X035856Y026280D01*
X035856Y026357D01*
X035779Y026434D01*
X035702Y026434D01*
X035779Y026434D02*
X035856Y026510D01*
X035856Y026587D01*
X035779Y026664D01*
X035626Y026664D01*
X035549Y026587D01*
X036009Y026434D02*
X036316Y026434D01*
X036239Y026664D02*
X036009Y026434D01*
X036239Y026203D02*
X036239Y026664D01*
X039999Y026674D02*
X039999Y026213D01*
X039999Y026367D02*
X040229Y026367D01*
X040305Y026444D01*
X040305Y026597D01*
X040229Y026674D01*
X039999Y026674D01*
X040152Y026367D02*
X040305Y026213D01*
X040459Y026290D02*
X040536Y026213D01*
X040689Y026213D01*
X040766Y026290D01*
X040766Y026367D01*
X040689Y026444D01*
X040612Y026444D01*
X040689Y026444D02*
X040766Y026520D01*
X040766Y026597D01*
X040689Y026674D01*
X040536Y026674D01*
X040459Y026597D01*
X040919Y026597D02*
X040996Y026674D01*
X041149Y026674D01*
X041226Y026597D01*
X041226Y026520D01*
X041149Y026444D01*
X041226Y026367D01*
X041226Y026290D01*
X041149Y026213D01*
X040996Y026213D01*
X040919Y026290D01*
X041073Y026444D02*
X041149Y026444D01*
X044899Y026347D02*
X045129Y026347D01*
X045205Y026424D01*
X045205Y026577D01*
X045129Y026654D01*
X044899Y026654D01*
X044899Y026193D01*
X045052Y026347D02*
X045205Y026193D01*
X045359Y026270D02*
X045436Y026193D01*
X045589Y026193D01*
X045666Y026270D01*
X045666Y026347D01*
X045589Y026424D01*
X045512Y026424D01*
X045589Y026424D02*
X045666Y026500D01*
X045666Y026577D01*
X045589Y026654D01*
X045436Y026654D01*
X045359Y026577D01*
X045819Y026577D02*
X045896Y026654D01*
X046049Y026654D01*
X046126Y026577D01*
X046126Y026500D01*
X045819Y026193D01*
X046126Y026193D01*
X049839Y026193D02*
X049839Y026654D01*
X050069Y026654D01*
X050145Y026577D01*
X050145Y026424D01*
X050069Y026347D01*
X049839Y026347D01*
X049992Y026347D02*
X050145Y026193D01*
X050299Y026270D02*
X050376Y026193D01*
X050529Y026193D01*
X050606Y026270D01*
X050606Y026347D01*
X050529Y026424D01*
X050452Y026424D01*
X050529Y026424D02*
X050606Y026500D01*
X050606Y026577D01*
X050529Y026654D01*
X050376Y026654D01*
X050299Y026577D01*
X050759Y026500D02*
X050913Y026654D01*
X050913Y026193D01*
X051066Y026193D02*
X050759Y026193D01*
X054789Y026273D02*
X054789Y026734D01*
X055019Y026734D01*
X055095Y026657D01*
X055095Y026504D01*
X055019Y026427D01*
X054789Y026427D01*
X054942Y026427D02*
X055095Y026273D01*
X055249Y026350D02*
X055326Y026273D01*
X055479Y026273D01*
X055556Y026350D01*
X055556Y026427D01*
X055479Y026504D01*
X055402Y026504D01*
X055479Y026504D02*
X055556Y026580D01*
X055556Y026657D01*
X055479Y026734D01*
X055326Y026734D01*
X055249Y026657D01*
X055709Y026657D02*
X055786Y026734D01*
X055939Y026734D01*
X056016Y026657D01*
X055709Y026350D01*
X055786Y026273D01*
X055939Y026273D01*
X056016Y026350D01*
X056016Y026657D01*
X055709Y026657D02*
X055709Y026350D01*
X059689Y026407D02*
X059919Y026407D01*
X059995Y026484D01*
X059995Y026637D01*
X059919Y026714D01*
X059689Y026714D01*
X059689Y026253D01*
X059842Y026407D02*
X059995Y026253D01*
X060149Y026253D02*
X060456Y026560D01*
X060456Y026637D01*
X060379Y026714D01*
X060226Y026714D01*
X060149Y026637D01*
X060149Y026253D02*
X060456Y026253D01*
X060609Y026330D02*
X060686Y026253D01*
X060839Y026253D01*
X060916Y026330D01*
X060916Y026637D01*
X060839Y026714D01*
X060686Y026714D01*
X060609Y026637D01*
X060609Y026560D01*
X060686Y026484D01*
X060916Y026484D01*
X064639Y026357D02*
X064869Y026357D01*
X064945Y026434D01*
X064945Y026587D01*
X064869Y026664D01*
X064639Y026664D01*
X064639Y026203D01*
X064792Y026357D02*
X064945Y026203D01*
X065099Y026203D02*
X065406Y026510D01*
X065406Y026587D01*
X065329Y026664D01*
X065176Y026664D01*
X065099Y026587D01*
X065099Y026203D02*
X065406Y026203D01*
X065559Y026280D02*
X065636Y026203D01*
X065789Y026203D01*
X065866Y026280D01*
X065866Y026357D01*
X065789Y026434D01*
X065636Y026434D01*
X065559Y026510D01*
X065559Y026587D01*
X065636Y026664D01*
X065789Y026664D01*
X065866Y026587D01*
X065866Y026510D01*
X065789Y026434D01*
X065636Y026434D02*
X065559Y026357D01*
X065559Y026280D01*
D19*
X021194Y030642D02*
X021095Y030544D01*
X015780Y030544D01*
X015682Y030642D01*
X015682Y035760D01*
X015977Y036055D01*
X021095Y036055D01*
X021194Y035957D01*
X021194Y030642D01*
X015977Y035662D02*
X015979Y035681D01*
X015984Y035700D01*
X015994Y035716D01*
X016006Y035731D01*
X016021Y035743D01*
X016037Y035753D01*
X016056Y035758D01*
X016075Y035760D01*
X016094Y035758D01*
X016113Y035753D01*
X016129Y035743D01*
X016144Y035731D01*
X016156Y035716D01*
X016166Y035700D01*
X016171Y035681D01*
X016173Y035662D01*
X016171Y035643D01*
X016166Y035624D01*
X016156Y035608D01*
X016144Y035593D01*
X016129Y035581D01*
X016113Y035571D01*
X016094Y035566D01*
X016075Y035564D01*
X016056Y035566D01*
X016037Y035571D01*
X016021Y035581D01*
X016006Y035593D01*
X015994Y035608D01*
X015984Y035624D01*
X015979Y035643D01*
X015977Y035662D01*
X013849Y045243D02*
X012349Y045243D01*
X010599Y046293D01*
X011599Y047743D02*
X011635Y047814D01*
X011674Y047884D01*
X011716Y047952D01*
X011761Y048018D01*
X011810Y048081D01*
X011862Y048142D01*
X011916Y048200D01*
X011973Y048256D01*
X012033Y048309D01*
X012095Y048359D01*
X012160Y048406D01*
X012227Y048450D01*
X012296Y048490D01*
X012367Y048527D01*
X012439Y048561D01*
X012513Y048591D01*
X012588Y048617D01*
X012665Y048640D01*
X012742Y048659D01*
X012821Y048674D01*
X012900Y048686D01*
X012979Y048694D01*
X013059Y048698D01*
X013139Y048698D01*
X013219Y048694D01*
X013298Y048686D01*
X013377Y048674D01*
X013456Y048659D01*
X013533Y048640D01*
X013610Y048617D01*
X013685Y048591D01*
X013759Y048561D01*
X013831Y048527D01*
X013902Y048490D01*
X013971Y048450D01*
X014038Y048406D01*
X014103Y048359D01*
X014165Y048309D01*
X014225Y048256D01*
X014282Y048200D01*
X014336Y048142D01*
X014388Y048081D01*
X014437Y048018D01*
X014482Y047952D01*
X014524Y047884D01*
X014563Y047814D01*
X014599Y047743D01*
X015599Y047793D02*
X013849Y048843D01*
X012349Y048843D01*
X010599Y047793D01*
X011599Y046343D02*
X011635Y046272D01*
X011674Y046202D01*
X011716Y046134D01*
X011761Y046068D01*
X011810Y046005D01*
X011862Y045944D01*
X011916Y045886D01*
X011973Y045830D01*
X012033Y045777D01*
X012095Y045727D01*
X012160Y045680D01*
X012227Y045636D01*
X012296Y045596D01*
X012367Y045559D01*
X012439Y045525D01*
X012513Y045495D01*
X012588Y045469D01*
X012665Y045446D01*
X012742Y045427D01*
X012821Y045412D01*
X012900Y045400D01*
X012979Y045392D01*
X013059Y045388D01*
X013139Y045388D01*
X013219Y045392D01*
X013298Y045400D01*
X013377Y045412D01*
X013456Y045427D01*
X013533Y045446D01*
X013610Y045469D01*
X013685Y045495D01*
X013759Y045525D01*
X013831Y045559D01*
X013902Y045596D01*
X013971Y045636D01*
X014038Y045680D01*
X014103Y045727D01*
X014165Y045777D01*
X014225Y045830D01*
X014282Y045886D01*
X014336Y045944D01*
X014388Y046005D01*
X014437Y046068D01*
X014482Y046134D01*
X014524Y046202D01*
X014563Y046272D01*
X014599Y046343D01*
X015599Y046293D02*
X013849Y045243D01*
X016773Y046963D02*
X017324Y046963D01*
X017049Y046471D01*
X016773Y046963D01*
X016768Y057636D02*
X012122Y057636D01*
X012122Y063837D01*
X016768Y063837D01*
X016768Y057636D01*
D20*
X016912Y055664D02*
X016789Y055541D01*
X016789Y055047D01*
X016912Y054923D01*
X017159Y054923D01*
X017282Y055047D01*
X017544Y055047D02*
X017544Y055170D01*
X017667Y055294D01*
X017914Y055294D01*
X018037Y055170D01*
X018037Y055047D01*
X017914Y054923D01*
X017667Y054923D01*
X017544Y055047D01*
X017667Y055294D02*
X017544Y055417D01*
X017544Y055541D01*
X017667Y055664D01*
X017914Y055664D01*
X018037Y055541D01*
X018037Y055417D01*
X017914Y055294D01*
X017282Y055541D02*
X017159Y055664D01*
X016912Y055664D01*
X021129Y055484D02*
X021129Y054743D01*
X021622Y054743D01*
X021884Y054743D02*
X022377Y055237D01*
X022377Y055361D01*
X022254Y055484D01*
X022007Y055484D01*
X021884Y055361D01*
X021884Y054743D02*
X022377Y054743D01*
X025799Y054647D02*
X025922Y054523D01*
X026169Y054523D01*
X026292Y054647D01*
X026554Y054523D02*
X027047Y054523D01*
X026800Y054523D02*
X026800Y055264D01*
X026554Y055017D01*
X026292Y055141D02*
X026169Y055264D01*
X025922Y055264D01*
X025799Y055141D01*
X025799Y054647D01*
X027309Y054523D02*
X027802Y055017D01*
X027802Y055141D01*
X027679Y055264D01*
X027432Y055264D01*
X027309Y055141D01*
X027309Y054523D02*
X027802Y054523D01*
X015750Y042604D02*
X015873Y042481D01*
X015873Y042357D01*
X015750Y042234D01*
X015873Y042111D01*
X015873Y041987D01*
X015750Y041864D01*
X015503Y041864D01*
X015380Y041987D01*
X015118Y041987D02*
X015118Y042604D01*
X015380Y042481D02*
X015503Y042604D01*
X015750Y042604D01*
X015750Y042234D02*
X015626Y042234D01*
X015118Y041987D02*
X014995Y041864D01*
X014748Y041864D01*
X014624Y041987D01*
X014624Y042604D01*
X009801Y052691D02*
X005785Y052691D01*
X005785Y054738D02*
X009801Y054738D01*
X009801Y052691D01*
X009006Y031567D02*
X004991Y031567D01*
X004991Y029520D01*
X009006Y029520D01*
D21*
X033483Y015098D03*
X053563Y015098D03*
X053295Y060274D03*
X033608Y060274D03*
D22*
X033608Y061924D03*
X053295Y061924D03*
X053563Y013448D03*
X033483Y013448D03*
D23*
X033998Y016673D03*
X035078Y016673D03*
X036158Y016673D03*
X037238Y016673D03*
X032918Y016673D03*
X031838Y016673D03*
X030758Y016673D03*
X029678Y016673D03*
X049758Y016673D03*
X050838Y016673D03*
X051918Y016673D03*
X052998Y016673D03*
X054078Y016673D03*
X055158Y016673D03*
X056238Y016673D03*
X057318Y016673D03*
X057100Y058699D03*
X056020Y058699D03*
X054940Y058699D03*
X053860Y058699D03*
X052780Y058699D03*
X051700Y058699D03*
X050620Y058699D03*
X049540Y058699D03*
X037413Y058699D03*
X036333Y058699D03*
X035253Y058699D03*
X034173Y058699D03*
X033093Y058699D03*
X032013Y058699D03*
X030933Y058699D03*
X029853Y058699D03*
D24*
X030393Y059199D03*
X031473Y059199D03*
X032553Y059199D03*
X033633Y059199D03*
X034713Y059199D03*
X035793Y059199D03*
X036873Y059199D03*
X050080Y059199D03*
X051160Y059199D03*
X052240Y059199D03*
X053320Y059199D03*
X054400Y059199D03*
X055480Y059199D03*
X056560Y059199D03*
X056778Y016173D03*
X055698Y016173D03*
X054618Y016173D03*
X053538Y016173D03*
X052458Y016173D03*
X051378Y016173D03*
X050298Y016173D03*
X036698Y016173D03*
X035618Y016173D03*
X034538Y016173D03*
X033458Y016173D03*
X032378Y016173D03*
X031298Y016173D03*
X030218Y016173D03*
D25*
X022213Y058407D02*
X021563Y058407D01*
X021563Y058604D02*
X022213Y058604D01*
X022213Y058407D01*
X022213Y058604D02*
X022213Y059194D01*
X019563Y059194D01*
X019713Y058604D02*
X019063Y058604D01*
X019063Y058407D01*
X019713Y058407D01*
X019614Y060375D02*
X019378Y060375D01*
X019378Y060769D01*
X019378Y061163D02*
X019378Y061556D01*
X019378Y061950D02*
X019378Y062344D01*
X019378Y062737D02*
X019378Y063131D01*
X019378Y063525D02*
X019378Y063919D01*
X021898Y063919D01*
X021898Y063525D01*
X021898Y063919D02*
X022410Y063919D01*
X022410Y059194D01*
X022213Y059194D01*
X022213Y062541D01*
X022410Y062541D01*
X022213Y062541D02*
X018866Y062541D01*
X018866Y063919D02*
X018866Y060694D01*
X020008Y060375D02*
X020244Y060375D01*
X021032Y060375D01*
X021268Y060375D01*
X021661Y060375D02*
X021898Y060375D01*
X021898Y060769D01*
X021898Y061163D02*
X021898Y061556D01*
X021898Y061950D02*
X021898Y062344D01*
X021898Y062737D02*
X021898Y063131D01*
X021032Y063131D02*
X021030Y063170D01*
X021024Y063208D01*
X021015Y063245D01*
X021002Y063282D01*
X020985Y063317D01*
X020966Y063350D01*
X020943Y063381D01*
X020917Y063410D01*
X020888Y063436D01*
X020857Y063459D01*
X020824Y063478D01*
X020789Y063495D01*
X020752Y063508D01*
X020715Y063517D01*
X020677Y063523D01*
X020638Y063525D01*
X020599Y063523D01*
X020561Y063517D01*
X020524Y063508D01*
X020487Y063495D01*
X020452Y063478D01*
X020419Y063459D01*
X020388Y063436D01*
X020359Y063410D01*
X020333Y063381D01*
X020310Y063350D01*
X020291Y063317D01*
X020274Y063282D01*
X020261Y063245D01*
X020252Y063208D01*
X020246Y063170D01*
X020244Y063131D01*
X019378Y063919D02*
X018866Y063919D01*
D26*
X006486Y057834D02*
X006486Y057772D01*
X006239Y057526D01*
X006239Y057464D01*
X006117Y057464D02*
X005871Y057464D01*
X006117Y057711D01*
X006117Y057772D01*
X006056Y057834D01*
X005932Y057834D01*
X005871Y057772D01*
X005749Y057772D02*
X005687Y057834D01*
X005564Y057834D01*
X005502Y057772D01*
X005502Y057526D01*
X005564Y057464D01*
X005687Y057464D01*
X005749Y057526D01*
X005687Y057134D02*
X005564Y057134D01*
X005502Y057072D01*
X005502Y056826D01*
X005564Y056764D01*
X005687Y056764D01*
X005749Y056826D01*
X005871Y056764D02*
X006117Y057011D01*
X006117Y057072D01*
X006056Y057134D01*
X005932Y057134D01*
X005871Y057072D01*
X005749Y057072D02*
X005687Y057134D01*
X005871Y056764D02*
X006117Y056764D01*
X006239Y056826D02*
X006239Y056887D01*
X006301Y056949D01*
X006424Y056949D01*
X006486Y056887D01*
X006486Y056826D01*
X006424Y056764D01*
X006301Y056764D01*
X006239Y056826D01*
X006301Y056949D02*
X006239Y057011D01*
X006239Y057072D01*
X006301Y057134D01*
X006424Y057134D01*
X006486Y057072D01*
X006486Y057011D01*
X006424Y056949D01*
X006424Y056384D02*
X006301Y056384D01*
X006239Y056322D01*
X006239Y056261D01*
X006301Y056199D01*
X006486Y056199D01*
X006486Y056322D02*
X006424Y056384D01*
X006486Y056322D02*
X006486Y056076D01*
X006424Y056014D01*
X006301Y056014D01*
X006239Y056076D01*
X006117Y056014D02*
X005871Y056014D01*
X006117Y056261D01*
X006117Y056322D01*
X006056Y056384D01*
X005932Y056384D01*
X005871Y056322D01*
X005749Y056322D02*
X005687Y056384D01*
X005564Y056384D01*
X005502Y056322D01*
X005502Y056076D01*
X005564Y056014D01*
X005687Y056014D01*
X005749Y056076D01*
X006239Y057834D02*
X006486Y057834D01*
X013889Y045121D02*
X014203Y044807D01*
X014046Y044807D02*
X014046Y045121D01*
X014203Y045121D02*
X013889Y044807D01*
X013889Y044964D02*
X014203Y044964D01*
X008277Y035048D02*
X008339Y034986D01*
X008339Y034863D01*
X008277Y034801D01*
X008154Y034801D02*
X008092Y034925D01*
X008092Y034986D01*
X008154Y035048D01*
X008277Y035048D01*
X008154Y034801D02*
X007969Y034801D01*
X007969Y035048D01*
X008030Y034680D02*
X007969Y034618D01*
X007969Y034495D01*
X008030Y034433D01*
X008030Y034311D02*
X007969Y034250D01*
X007969Y034126D01*
X008030Y034065D01*
X008277Y034065D01*
X008339Y034126D01*
X008339Y034250D01*
X008277Y034311D01*
X008339Y034433D02*
X008092Y034680D01*
X008030Y034680D01*
X008339Y034680D02*
X008339Y034433D01*
X009419Y029481D02*
X009481Y029481D01*
X009543Y029419D01*
X009543Y029295D01*
X009481Y029234D01*
X009419Y029234D01*
X009358Y029295D01*
X009358Y029419D01*
X009419Y029481D01*
X009543Y029419D02*
X009605Y029481D01*
X009666Y029481D01*
X009728Y029419D01*
X009728Y029295D01*
X009666Y029234D01*
X009605Y029234D01*
X009543Y029295D01*
X009728Y029112D02*
X009728Y028865D01*
X009728Y028989D02*
X009358Y028989D01*
X009481Y028865D01*
X009419Y028744D02*
X009358Y028682D01*
X009358Y028559D01*
X009419Y028497D01*
X009666Y028497D01*
X009728Y028559D01*
X009728Y028682D01*
X009666Y028744D01*
X010408Y026981D02*
X010469Y026857D01*
X010593Y026734D01*
X010593Y026919D01*
X010655Y026981D01*
X010716Y026981D01*
X010778Y026919D01*
X010778Y026795D01*
X010716Y026734D01*
X010593Y026734D01*
X010531Y026612D02*
X010778Y026365D01*
X010778Y026612D01*
X010531Y026612D02*
X010469Y026612D01*
X010408Y026551D01*
X010408Y026427D01*
X010469Y026365D01*
X010469Y026244D02*
X010408Y026182D01*
X010408Y026059D01*
X010469Y025997D01*
X010716Y025997D01*
X010778Y026059D01*
X010778Y026182D01*
X010716Y026244D01*
X007503Y026415D02*
X007442Y026353D01*
X007318Y026353D01*
X007256Y026415D01*
X007503Y026661D01*
X007503Y026415D01*
X007503Y026661D02*
X007442Y026723D01*
X007318Y026723D01*
X007256Y026661D01*
X007256Y026415D01*
X007135Y026415D02*
X007073Y026353D01*
X006950Y026353D01*
X006888Y026415D01*
X006767Y026415D02*
X006705Y026353D01*
X006582Y026353D01*
X006520Y026415D01*
X006520Y026661D01*
X006582Y026723D01*
X006705Y026723D01*
X006767Y026661D01*
X006888Y026661D02*
X006950Y026723D01*
X007073Y026723D01*
X007135Y026661D01*
X007135Y026600D01*
X007073Y026538D01*
X007135Y026476D01*
X007135Y026415D01*
X007073Y026538D02*
X007012Y026538D01*
X007073Y027103D02*
X006950Y027103D01*
X006888Y027165D01*
X006767Y027165D02*
X006705Y027103D01*
X006582Y027103D01*
X006520Y027165D01*
X006520Y027411D01*
X006582Y027473D01*
X006705Y027473D01*
X006767Y027411D01*
X006888Y027411D02*
X006950Y027473D01*
X007073Y027473D01*
X007135Y027411D01*
X007135Y027350D01*
X007073Y027288D01*
X007135Y027226D01*
X007135Y027165D01*
X007073Y027103D01*
X007256Y027103D02*
X007503Y027103D01*
X007380Y027103D02*
X007380Y027473D01*
X007256Y027350D01*
X007073Y027288D02*
X007012Y027288D01*
X007073Y027903D02*
X006950Y027903D01*
X006888Y027965D01*
X006767Y027965D02*
X006705Y027903D01*
X006582Y027903D01*
X006520Y027965D01*
X006520Y028211D01*
X006582Y028273D01*
X006705Y028273D01*
X006767Y028211D01*
X006888Y028211D02*
X006950Y028273D01*
X007073Y028273D01*
X007135Y028211D01*
X007135Y028150D01*
X007073Y028088D01*
X007135Y028026D01*
X007135Y027965D01*
X007073Y027903D01*
X007256Y027903D02*
X007503Y028150D01*
X007503Y028211D01*
X007442Y028273D01*
X007318Y028273D01*
X007256Y028211D01*
X007073Y028088D02*
X007012Y028088D01*
X007256Y027903D02*
X007503Y027903D01*
X004686Y027749D02*
X004439Y027749D01*
X004624Y027934D01*
X004624Y027564D01*
X004317Y027564D02*
X004071Y027564D01*
X004317Y027811D01*
X004317Y027872D01*
X004256Y027934D01*
X004132Y027934D01*
X004071Y027872D01*
X003949Y027872D02*
X003887Y027934D01*
X003764Y027934D01*
X003702Y027872D01*
X003702Y027626D01*
X003764Y027564D01*
X003887Y027564D01*
X003949Y027626D01*
D27*
X011574Y041243D03*
X007124Y046343D03*
G36*
X019516Y042705D02*
X019340Y042881D01*
X020046Y043587D01*
X020222Y043411D01*
X019516Y042705D01*
G37*
D28*
X020023Y020909D03*
D29*
X017049Y046451D03*
D30*
X020699Y046793D02*
X020699Y050793D01*
X028699Y050793D01*
X028699Y046793D01*
X020699Y046793D01*
M02*
