G75*
%MOIN*%
%OFA0B0*%
%FSLAX24Y24*%
%IPPOS*%
%LPD*%
%AMOC8*
5,1,8,0,0,1.08239X$1,22.5*
%
%ADD10C,0.0000*%
%ADD11C,0.1358*%
%ADD12C,0.1594*%
%ADD13OC8,0.0698*%
%ADD14C,0.0698*%
%ADD15C,0.0618*%
%ADD16R,0.0610X0.0728*%
%ADD17R,0.0728X0.0610*%
%ADD18R,0.0689X0.0610*%
%ADD19R,0.0689X0.0217*%
%ADD20R,0.0217X0.0689*%
%ADD21R,0.0610X0.0689*%
%ADD22C,0.0539*%
%ADD23C,0.0050*%
%ADD24OC8,0.0672*%
%ADD25C,0.1365*%
%ADD26R,0.0846X0.1437*%
%ADD27C,0.2098*%
%ADD28C,0.0958*%
%ADD29R,0.0858X0.0478*%
%ADD30C,0.0807*%
%ADD31C,0.1161*%
%ADD32C,0.1043*%
%ADD33C,0.1098*%
%ADD34R,0.0878X0.0318*%
%ADD35C,0.0220*%
%ADD36C,0.0498*%
%ADD37C,0.0925*%
%ADD38C,0.0658*%
%ADD39R,0.0650X0.0492*%
%ADD40R,0.0642X0.0276*%
%ADD41R,0.0925X0.0679*%
%ADD42R,0.0846X0.1033*%
%ADD43R,0.0846X0.0561*%
%ADD44R,0.0728X0.0558*%
%ADD45R,0.0720X0.0060*%
%ADD46R,0.0965X0.0807*%
%ADD47R,0.1248X0.1197*%
%ADD48OC8,0.1098*%
%ADD49R,0.2579X0.0965*%
%ADD50R,0.0613X0.0613*%
%ADD51C,0.0613*%
%ADD52R,0.0988X0.1478*%
%ADD53R,0.1698X0.0528*%
%ADD54R,0.1378X0.0398*%
D10*
X007949Y012893D02*
X007947Y013039D01*
X007941Y013186D01*
X007931Y013332D01*
X007918Y013478D01*
X007900Y013623D01*
X007879Y013768D01*
X007854Y013912D01*
X007825Y014056D01*
X007792Y014198D01*
X007755Y014340D01*
X007715Y014481D01*
X007671Y014620D01*
X007623Y014759D01*
X007571Y014896D01*
X007516Y015032D01*
X007457Y015166D01*
X007395Y015298D01*
X007329Y015429D01*
X007260Y015558D01*
X007188Y015685D01*
X007112Y015810D01*
X007032Y015933D01*
X006950Y016054D01*
X006864Y016173D01*
X006775Y016289D01*
X006683Y016403D01*
X006588Y016515D01*
X006490Y016624D01*
X006390Y016730D01*
X006286Y016834D01*
X006180Y016934D01*
X006071Y017032D01*
X005959Y017127D01*
X005845Y017219D01*
X005729Y017308D01*
X005610Y017394D01*
X005489Y017476D01*
X005366Y017556D01*
X005241Y017632D01*
X005114Y017704D01*
X004985Y017773D01*
X004854Y017839D01*
X004722Y017901D01*
X004588Y017960D01*
X004452Y018015D01*
X004315Y018067D01*
X004176Y018115D01*
X004037Y018159D01*
X003896Y018199D01*
X003754Y018236D01*
X003612Y018269D01*
X003468Y018298D01*
X003324Y018323D01*
X003179Y018344D01*
X003034Y018362D01*
X002888Y018375D01*
X002742Y018385D01*
X002595Y018391D01*
X002449Y018393D01*
X002449Y028593D01*
X002749Y028893D01*
X002749Y032193D01*
X002449Y032493D01*
X002428Y056993D01*
X002428Y056994D02*
X002573Y056997D01*
X002718Y057004D01*
X002863Y057015D01*
X003008Y057029D01*
X003152Y057048D01*
X003296Y057070D01*
X003439Y057096D01*
X003581Y057126D01*
X003722Y057160D01*
X003863Y057197D01*
X004002Y057238D01*
X004141Y057283D01*
X004278Y057331D01*
X004413Y057384D01*
X004548Y057439D01*
X004680Y057498D01*
X004811Y057561D01*
X004941Y057628D01*
X005068Y057697D01*
X005194Y057770D01*
X005318Y057847D01*
X005439Y057926D01*
X005559Y058009D01*
X005676Y058095D01*
X005791Y058184D01*
X005903Y058276D01*
X006013Y058371D01*
X006121Y058469D01*
X006225Y058570D01*
X006327Y058674D01*
X006427Y058780D01*
X006523Y058889D01*
X006617Y059000D01*
X006707Y059114D01*
X006794Y059230D01*
X006879Y059348D01*
X006960Y059469D01*
X007038Y059592D01*
X007112Y059716D01*
X007183Y059843D01*
X007251Y059972D01*
X007316Y060102D01*
X007376Y060234D01*
X007434Y060368D01*
X007487Y060503D01*
X007538Y060639D01*
X007584Y060777D01*
X007627Y060916D01*
X007666Y061056D01*
X007701Y061197D01*
X007733Y061339D01*
X007761Y061481D01*
X007785Y061625D01*
X007805Y061769D01*
X007821Y061913D01*
X007834Y062058D01*
X007842Y062203D01*
X007847Y062348D01*
X007848Y062494D01*
X007849Y062493D02*
X068499Y062493D01*
X068499Y062494D02*
X068495Y062350D01*
X068494Y062207D01*
X068498Y062064D01*
X068506Y061921D01*
X068517Y061778D01*
X068533Y061635D01*
X068552Y061493D01*
X068575Y061352D01*
X068602Y061211D01*
X068633Y061071D01*
X068667Y060932D01*
X068705Y060794D01*
X068747Y060657D01*
X068793Y060521D01*
X068842Y060387D01*
X068895Y060254D01*
X068952Y060122D01*
X069012Y059992D01*
X069076Y059864D01*
X069143Y059737D01*
X069213Y059612D01*
X069287Y059489D01*
X069364Y059369D01*
X069445Y059250D01*
X069528Y059134D01*
X069615Y059020D01*
X069705Y058908D01*
X069797Y058799D01*
X069893Y058692D01*
X069992Y058588D01*
X070093Y058487D01*
X070197Y058388D01*
X070304Y058292D01*
X070413Y058200D01*
X070525Y058110D01*
X070639Y058023D01*
X070755Y057940D01*
X070874Y057859D01*
X070994Y057782D01*
X071117Y057708D01*
X071242Y057638D01*
X071369Y057571D01*
X071497Y057507D01*
X071627Y057447D01*
X071759Y057390D01*
X071892Y057337D01*
X072026Y057288D01*
X072162Y057242D01*
X072299Y057200D01*
X072437Y057162D01*
X072576Y057128D01*
X072716Y057097D01*
X072857Y057070D01*
X072998Y057047D01*
X073140Y057028D01*
X073283Y057012D01*
X073426Y057001D01*
X073569Y056993D01*
X073712Y056989D01*
X073855Y056990D01*
X073999Y056994D01*
X073999Y056993D02*
X073999Y018393D01*
X073853Y018391D01*
X073706Y018385D01*
X073560Y018375D01*
X073414Y018362D01*
X073269Y018344D01*
X073124Y018323D01*
X072980Y018298D01*
X072836Y018269D01*
X072694Y018236D01*
X072552Y018199D01*
X072411Y018159D01*
X072272Y018115D01*
X072133Y018067D01*
X071996Y018015D01*
X071860Y017960D01*
X071726Y017901D01*
X071594Y017839D01*
X071463Y017773D01*
X071334Y017704D01*
X071207Y017632D01*
X071082Y017556D01*
X070959Y017476D01*
X070838Y017394D01*
X070719Y017308D01*
X070603Y017219D01*
X070489Y017127D01*
X070377Y017032D01*
X070268Y016934D01*
X070162Y016834D01*
X070058Y016730D01*
X069958Y016624D01*
X069860Y016515D01*
X069765Y016403D01*
X069673Y016289D01*
X069584Y016173D01*
X069498Y016054D01*
X069416Y015933D01*
X069336Y015810D01*
X069260Y015685D01*
X069188Y015558D01*
X069119Y015429D01*
X069053Y015298D01*
X068991Y015166D01*
X068932Y015032D01*
X068877Y014896D01*
X068825Y014759D01*
X068777Y014620D01*
X068733Y014481D01*
X068693Y014340D01*
X068656Y014198D01*
X068623Y014056D01*
X068594Y013912D01*
X068569Y013768D01*
X068548Y013623D01*
X068530Y013478D01*
X068517Y013332D01*
X068507Y013186D01*
X068501Y013039D01*
X068499Y012893D01*
X007949Y012893D01*
X009881Y018037D02*
X009883Y018087D01*
X009889Y018137D01*
X009899Y018186D01*
X009913Y018234D01*
X009930Y018281D01*
X009951Y018326D01*
X009976Y018370D01*
X010004Y018411D01*
X010036Y018450D01*
X010070Y018487D01*
X010107Y018521D01*
X010147Y018551D01*
X010189Y018578D01*
X010233Y018602D01*
X010279Y018623D01*
X010326Y018639D01*
X010374Y018652D01*
X010424Y018661D01*
X010473Y018666D01*
X010524Y018667D01*
X010574Y018664D01*
X010623Y018657D01*
X010672Y018646D01*
X010720Y018631D01*
X010766Y018613D01*
X010811Y018591D01*
X010854Y018565D01*
X010895Y018536D01*
X010934Y018504D01*
X010970Y018469D01*
X011002Y018431D01*
X011032Y018391D01*
X011059Y018348D01*
X011082Y018304D01*
X011101Y018258D01*
X011117Y018210D01*
X011129Y018161D01*
X011137Y018112D01*
X011141Y018062D01*
X011141Y018012D01*
X011137Y017962D01*
X011129Y017913D01*
X011117Y017864D01*
X011101Y017816D01*
X011082Y017770D01*
X011059Y017726D01*
X011032Y017683D01*
X011002Y017643D01*
X010970Y017605D01*
X010934Y017570D01*
X010895Y017538D01*
X010854Y017509D01*
X010811Y017483D01*
X010766Y017461D01*
X010720Y017443D01*
X010672Y017428D01*
X010623Y017417D01*
X010574Y017410D01*
X010524Y017407D01*
X010473Y017408D01*
X010424Y017413D01*
X010374Y017422D01*
X010326Y017435D01*
X010279Y017451D01*
X010233Y017472D01*
X010189Y017496D01*
X010147Y017523D01*
X010107Y017553D01*
X010070Y017587D01*
X010036Y017624D01*
X010004Y017663D01*
X009976Y017704D01*
X009951Y017748D01*
X009930Y017793D01*
X009913Y017840D01*
X009899Y017888D01*
X009889Y017937D01*
X009883Y017987D01*
X009881Y018037D01*
X018137Y013802D02*
X018139Y013839D01*
X018145Y013876D01*
X018154Y013911D01*
X018168Y013946D01*
X018184Y013979D01*
X018205Y014010D01*
X018228Y014039D01*
X018254Y014065D01*
X018283Y014088D01*
X018314Y014109D01*
X018347Y014125D01*
X018382Y014139D01*
X018417Y014148D01*
X018454Y014154D01*
X018491Y014156D01*
X018528Y014154D01*
X018565Y014148D01*
X018600Y014139D01*
X018635Y014125D01*
X018668Y014109D01*
X018699Y014088D01*
X018728Y014065D01*
X018754Y014039D01*
X018777Y014010D01*
X018798Y013979D01*
X018814Y013946D01*
X018828Y013911D01*
X018837Y013876D01*
X018843Y013839D01*
X018845Y013802D01*
X018843Y013765D01*
X018837Y013728D01*
X018828Y013693D01*
X018814Y013658D01*
X018798Y013625D01*
X018777Y013594D01*
X018754Y013565D01*
X018728Y013539D01*
X018699Y013516D01*
X018668Y013495D01*
X018635Y013479D01*
X018600Y013465D01*
X018565Y013456D01*
X018528Y013450D01*
X018491Y013448D01*
X018454Y013450D01*
X018417Y013456D01*
X018382Y013465D01*
X018347Y013479D01*
X018314Y013495D01*
X018283Y013516D01*
X018254Y013539D01*
X018228Y013565D01*
X018205Y013594D01*
X018184Y013625D01*
X018168Y013658D01*
X018154Y013693D01*
X018145Y013728D01*
X018139Y013765D01*
X018137Y013802D01*
X019633Y013802D02*
X019635Y013839D01*
X019641Y013876D01*
X019650Y013911D01*
X019664Y013946D01*
X019680Y013979D01*
X019701Y014010D01*
X019724Y014039D01*
X019750Y014065D01*
X019779Y014088D01*
X019810Y014109D01*
X019843Y014125D01*
X019878Y014139D01*
X019913Y014148D01*
X019950Y014154D01*
X019987Y014156D01*
X020024Y014154D01*
X020061Y014148D01*
X020096Y014139D01*
X020131Y014125D01*
X020164Y014109D01*
X020195Y014088D01*
X020224Y014065D01*
X020250Y014039D01*
X020273Y014010D01*
X020294Y013979D01*
X020310Y013946D01*
X020324Y013911D01*
X020333Y013876D01*
X020339Y013839D01*
X020341Y013802D01*
X020339Y013765D01*
X020333Y013728D01*
X020324Y013693D01*
X020310Y013658D01*
X020294Y013625D01*
X020273Y013594D01*
X020250Y013565D01*
X020224Y013539D01*
X020195Y013516D01*
X020164Y013495D01*
X020131Y013479D01*
X020096Y013465D01*
X020061Y013456D01*
X020024Y013450D01*
X019987Y013448D01*
X019950Y013450D01*
X019913Y013456D01*
X019878Y013465D01*
X019843Y013479D01*
X019810Y013495D01*
X019779Y013516D01*
X019750Y013539D01*
X019724Y013565D01*
X019701Y013594D01*
X019680Y013625D01*
X019664Y013658D01*
X019650Y013693D01*
X019641Y013728D01*
X019635Y013765D01*
X019633Y013802D01*
X065377Y018021D02*
X065379Y018076D01*
X065385Y018130D01*
X065395Y018184D01*
X065409Y018236D01*
X065426Y018288D01*
X065448Y018338D01*
X065473Y018387D01*
X065501Y018434D01*
X065533Y018478D01*
X065568Y018520D01*
X065606Y018559D01*
X065647Y018596D01*
X065690Y018629D01*
X065735Y018659D01*
X065783Y018686D01*
X065832Y018709D01*
X065883Y018729D01*
X065936Y018745D01*
X065989Y018757D01*
X066043Y018765D01*
X066098Y018769D01*
X066152Y018769D01*
X066207Y018765D01*
X066261Y018757D01*
X066314Y018745D01*
X066367Y018729D01*
X066418Y018709D01*
X066467Y018686D01*
X066515Y018659D01*
X066560Y018629D01*
X066603Y018596D01*
X066644Y018559D01*
X066682Y018520D01*
X066717Y018478D01*
X066749Y018434D01*
X066777Y018387D01*
X066802Y018338D01*
X066824Y018288D01*
X066841Y018236D01*
X066855Y018184D01*
X066865Y018130D01*
X066871Y018076D01*
X066873Y018021D01*
X066871Y017966D01*
X066865Y017912D01*
X066855Y017858D01*
X066841Y017806D01*
X066824Y017754D01*
X066802Y017704D01*
X066777Y017655D01*
X066749Y017608D01*
X066717Y017564D01*
X066682Y017522D01*
X066644Y017483D01*
X066603Y017446D01*
X066560Y017413D01*
X066515Y017383D01*
X066467Y017356D01*
X066418Y017333D01*
X066367Y017313D01*
X066314Y017297D01*
X066261Y017285D01*
X066207Y017277D01*
X066152Y017273D01*
X066098Y017273D01*
X066043Y017277D01*
X065989Y017285D01*
X065936Y017297D01*
X065883Y017313D01*
X065832Y017333D01*
X065783Y017356D01*
X065735Y017383D01*
X065690Y017413D01*
X065647Y017446D01*
X065606Y017483D01*
X065568Y017522D01*
X065533Y017564D01*
X065501Y017608D01*
X065473Y017655D01*
X065448Y017704D01*
X065426Y017754D01*
X065409Y017806D01*
X065395Y017858D01*
X065385Y017912D01*
X065379Y017966D01*
X065377Y018021D01*
X065377Y057391D02*
X065379Y057446D01*
X065385Y057500D01*
X065395Y057554D01*
X065409Y057606D01*
X065426Y057658D01*
X065448Y057708D01*
X065473Y057757D01*
X065501Y057804D01*
X065533Y057848D01*
X065568Y057890D01*
X065606Y057929D01*
X065647Y057966D01*
X065690Y057999D01*
X065735Y058029D01*
X065783Y058056D01*
X065832Y058079D01*
X065883Y058099D01*
X065936Y058115D01*
X065989Y058127D01*
X066043Y058135D01*
X066098Y058139D01*
X066152Y058139D01*
X066207Y058135D01*
X066261Y058127D01*
X066314Y058115D01*
X066367Y058099D01*
X066418Y058079D01*
X066467Y058056D01*
X066515Y058029D01*
X066560Y057999D01*
X066603Y057966D01*
X066644Y057929D01*
X066682Y057890D01*
X066717Y057848D01*
X066749Y057804D01*
X066777Y057757D01*
X066802Y057708D01*
X066824Y057658D01*
X066841Y057606D01*
X066855Y057554D01*
X066865Y057500D01*
X066871Y057446D01*
X066873Y057391D01*
X066871Y057336D01*
X066865Y057282D01*
X066855Y057228D01*
X066841Y057176D01*
X066824Y057124D01*
X066802Y057074D01*
X066777Y057025D01*
X066749Y056978D01*
X066717Y056934D01*
X066682Y056892D01*
X066644Y056853D01*
X066603Y056816D01*
X066560Y056783D01*
X066515Y056753D01*
X066467Y056726D01*
X066418Y056703D01*
X066367Y056683D01*
X066314Y056667D01*
X066261Y056655D01*
X066207Y056647D01*
X066152Y056643D01*
X066098Y056643D01*
X066043Y056647D01*
X065989Y056655D01*
X065936Y056667D01*
X065883Y056683D01*
X065832Y056703D01*
X065783Y056726D01*
X065735Y056753D01*
X065690Y056783D01*
X065647Y056816D01*
X065606Y056853D01*
X065568Y056892D01*
X065533Y056934D01*
X065501Y056978D01*
X065473Y057025D01*
X065448Y057074D01*
X065426Y057124D01*
X065409Y057176D01*
X065395Y057228D01*
X065385Y057282D01*
X065379Y057336D01*
X065377Y057391D01*
X009668Y057391D02*
X009670Y057446D01*
X009676Y057500D01*
X009686Y057554D01*
X009700Y057606D01*
X009717Y057658D01*
X009739Y057708D01*
X009764Y057757D01*
X009792Y057804D01*
X009824Y057848D01*
X009859Y057890D01*
X009897Y057929D01*
X009938Y057966D01*
X009981Y057999D01*
X010026Y058029D01*
X010074Y058056D01*
X010123Y058079D01*
X010174Y058099D01*
X010227Y058115D01*
X010280Y058127D01*
X010334Y058135D01*
X010389Y058139D01*
X010443Y058139D01*
X010498Y058135D01*
X010552Y058127D01*
X010605Y058115D01*
X010658Y058099D01*
X010709Y058079D01*
X010758Y058056D01*
X010806Y058029D01*
X010851Y057999D01*
X010894Y057966D01*
X010935Y057929D01*
X010973Y057890D01*
X011008Y057848D01*
X011040Y057804D01*
X011068Y057757D01*
X011093Y057708D01*
X011115Y057658D01*
X011132Y057606D01*
X011146Y057554D01*
X011156Y057500D01*
X011162Y057446D01*
X011164Y057391D01*
X011162Y057336D01*
X011156Y057282D01*
X011146Y057228D01*
X011132Y057176D01*
X011115Y057124D01*
X011093Y057074D01*
X011068Y057025D01*
X011040Y056978D01*
X011008Y056934D01*
X010973Y056892D01*
X010935Y056853D01*
X010894Y056816D01*
X010851Y056783D01*
X010806Y056753D01*
X010758Y056726D01*
X010709Y056703D01*
X010658Y056683D01*
X010605Y056667D01*
X010552Y056655D01*
X010498Y056647D01*
X010443Y056643D01*
X010389Y056643D01*
X010334Y056647D01*
X010280Y056655D01*
X010227Y056667D01*
X010174Y056683D01*
X010123Y056703D01*
X010074Y056726D01*
X010026Y056753D01*
X009981Y056783D01*
X009938Y056816D01*
X009897Y056853D01*
X009859Y056892D01*
X009824Y056934D01*
X009792Y056978D01*
X009764Y057025D01*
X009739Y057074D01*
X009717Y057124D01*
X009700Y057176D01*
X009686Y057228D01*
X009676Y057282D01*
X009670Y057336D01*
X009668Y057391D01*
D11*
X010511Y018037D03*
D12*
X010416Y057391D03*
X066125Y057391D03*
X066125Y018021D03*
D13*
X057318Y018448D03*
X056238Y018448D03*
X055158Y018448D03*
X054078Y018448D03*
X052998Y018448D03*
X051918Y018448D03*
X050838Y018448D03*
X049758Y018448D03*
X050298Y017448D03*
X051378Y017448D03*
X052458Y017448D03*
X053538Y017448D03*
X054618Y017448D03*
X055698Y017448D03*
X056778Y017448D03*
X037238Y018448D03*
X036158Y018448D03*
X035078Y018448D03*
X033998Y018448D03*
X032918Y018448D03*
X031838Y018448D03*
X030758Y018448D03*
X029678Y018448D03*
X030218Y017448D03*
X031298Y017448D03*
X032378Y017448D03*
X033458Y017448D03*
X034538Y017448D03*
X035618Y017448D03*
X036698Y017448D03*
X025849Y023993D03*
X024849Y023993D03*
X024849Y024993D03*
X025849Y024993D03*
X025849Y025993D03*
X024849Y025993D03*
X024849Y026993D03*
X025849Y026993D03*
X025849Y027993D03*
X024849Y027993D03*
X024799Y031343D03*
X025799Y031343D03*
X025799Y032343D03*
X025799Y033343D03*
X024799Y033343D03*
X024799Y032343D03*
X024799Y034343D03*
X025799Y034343D03*
X025799Y035343D03*
X024799Y035343D03*
X022049Y038293D03*
X022049Y039293D03*
X021049Y039293D03*
X020049Y039293D03*
X019049Y039293D03*
X018049Y039293D03*
X017049Y039293D03*
X016049Y039293D03*
X015049Y039293D03*
X015049Y038293D03*
X016049Y038293D03*
X017049Y038293D03*
X018049Y038293D03*
X019049Y038293D03*
X020049Y038293D03*
X021049Y038293D03*
X024899Y038693D03*
X025899Y038693D03*
X025899Y039693D03*
X025899Y040693D03*
X024899Y040693D03*
X024899Y039693D03*
X024899Y041693D03*
X025899Y041693D03*
X025899Y042693D03*
X024899Y042693D03*
X012899Y033193D03*
X011899Y033193D03*
X011899Y032193D03*
X012899Y032193D03*
X012899Y031193D03*
X011899Y031193D03*
X029853Y056924D03*
X030933Y056924D03*
X032013Y056924D03*
X033093Y056924D03*
X034173Y056924D03*
X035253Y056924D03*
X036333Y056924D03*
X037413Y056924D03*
X036873Y057924D03*
X035793Y057924D03*
X034713Y057924D03*
X033633Y057924D03*
X032553Y057924D03*
X031473Y057924D03*
X030393Y057924D03*
X049540Y056924D03*
X050620Y056924D03*
X051700Y056924D03*
X052780Y056924D03*
X053860Y056924D03*
X054940Y056924D03*
X056020Y056924D03*
X057100Y056924D03*
X056560Y057924D03*
X055480Y057924D03*
X054400Y057924D03*
X053320Y057924D03*
X052240Y057924D03*
X051160Y057924D03*
X050080Y057924D03*
D14*
X013389Y028673D02*
X013389Y028073D01*
X011609Y028073D02*
X011609Y028673D01*
X011609Y026113D02*
X011609Y025513D01*
X013389Y025513D02*
X013389Y026113D01*
X003749Y033143D02*
X003149Y033143D01*
X003149Y034143D02*
X003749Y034143D01*
X003749Y035143D02*
X003149Y035143D01*
X003149Y036143D02*
X003749Y036143D01*
X003749Y037143D02*
X003149Y037143D01*
X003149Y038143D02*
X003749Y038143D01*
D15*
X016602Y028007D03*
X018502Y028007D03*
D16*
X015092Y029993D03*
X014305Y029993D03*
X013348Y024602D03*
X012561Y024602D03*
X006192Y026493D03*
X005405Y026493D03*
X005405Y027293D03*
X006192Y027293D03*
X006192Y028093D03*
X005405Y028093D03*
X004592Y028343D03*
X003805Y028343D03*
X016899Y037215D03*
X017686Y037215D03*
X007642Y056193D03*
X007642Y056943D03*
X007642Y057693D03*
X006855Y057693D03*
X006855Y056943D03*
X006855Y056193D03*
D17*
X009099Y057850D03*
X009099Y058637D03*
X010849Y055637D03*
X010849Y054850D03*
X010849Y053987D03*
X010849Y053200D03*
X015299Y037317D03*
X015299Y036530D03*
X008149Y033737D03*
X008149Y032950D03*
X009549Y030687D03*
X009549Y029900D03*
X010599Y028137D03*
X010599Y027350D03*
X016577Y026576D03*
X016577Y025789D03*
X018477Y025789D03*
X018477Y026576D03*
X023049Y033150D03*
X023049Y033937D03*
D18*
X014549Y027717D03*
X014549Y026969D03*
X008949Y025367D03*
X008949Y024619D03*
X008049Y024619D03*
X008049Y025367D03*
X018968Y021637D03*
X019964Y021637D03*
X019964Y018015D03*
X018968Y018015D03*
X017349Y017028D03*
X017349Y016359D03*
X017349Y015428D03*
X017349Y014759D03*
X007149Y050459D03*
X007149Y051128D03*
X006349Y051128D03*
X006349Y050459D03*
X005000Y051745D03*
X003900Y051745D03*
X003900Y052493D03*
X005000Y052493D03*
X008349Y057909D03*
X008349Y058578D03*
D19*
X015288Y035662D03*
X015288Y035465D03*
X015288Y035268D03*
X015288Y035071D03*
X015288Y034874D03*
X015288Y034678D03*
X015288Y034481D03*
X015288Y034284D03*
X015288Y034087D03*
X015288Y033890D03*
X015288Y033693D03*
X015288Y033496D03*
X015288Y033300D03*
X015288Y033103D03*
X015288Y032906D03*
X015288Y032709D03*
X015288Y032512D03*
X015288Y032315D03*
X015288Y032118D03*
X015288Y031922D03*
X015288Y031725D03*
X015288Y031528D03*
X015288Y031331D03*
X015288Y031134D03*
X015288Y030937D03*
X021587Y030937D03*
X021587Y031134D03*
X021587Y031331D03*
X021587Y031528D03*
X021587Y031725D03*
X021587Y031922D03*
X021587Y032118D03*
X021587Y032315D03*
X021587Y032512D03*
X021587Y032709D03*
X021587Y032906D03*
X021587Y033103D03*
X021587Y033300D03*
X021587Y033496D03*
X021587Y033693D03*
X021587Y033890D03*
X021587Y034087D03*
X021587Y034284D03*
X021587Y034481D03*
X021587Y034678D03*
X021587Y034874D03*
X021587Y035071D03*
X021587Y035268D03*
X021587Y035465D03*
X021587Y035662D03*
D20*
X020800Y036449D03*
X020603Y036449D03*
X020406Y036449D03*
X020209Y036449D03*
X020012Y036449D03*
X019816Y036449D03*
X019619Y036449D03*
X019422Y036449D03*
X019225Y036449D03*
X019028Y036449D03*
X018831Y036449D03*
X018635Y036449D03*
X018438Y036449D03*
X018241Y036449D03*
X018044Y036449D03*
X017847Y036449D03*
X017650Y036449D03*
X017453Y036449D03*
X017257Y036449D03*
X017060Y036449D03*
X016863Y036449D03*
X016666Y036449D03*
X016469Y036449D03*
X016272Y036449D03*
X016075Y036449D03*
X016075Y030150D03*
X016272Y030150D03*
X016469Y030150D03*
X016666Y030150D03*
X016863Y030150D03*
X017060Y030150D03*
X017257Y030150D03*
X017453Y030150D03*
X017650Y030150D03*
X017847Y030150D03*
X018044Y030150D03*
X018241Y030150D03*
X018438Y030150D03*
X018635Y030150D03*
X018831Y030150D03*
X019028Y030150D03*
X019225Y030150D03*
X019422Y030150D03*
X019619Y030150D03*
X019816Y030150D03*
X020012Y030150D03*
X020209Y030150D03*
X020406Y030150D03*
X020603Y030150D03*
X020800Y030150D03*
D21*
X012823Y029793D03*
X012074Y029793D03*
X010383Y035243D03*
X009714Y035243D03*
X009714Y036043D03*
X010383Y036043D03*
X020166Y023044D03*
X020835Y023044D03*
X023989Y015893D03*
X024658Y015893D03*
X030674Y022573D03*
X031423Y022573D03*
X035274Y025793D03*
X036023Y025793D03*
X040224Y025793D03*
X040973Y025793D03*
X045124Y025793D03*
X045873Y025793D03*
X050074Y025793D03*
X050823Y025793D03*
X055024Y025843D03*
X055773Y025843D03*
X059924Y025843D03*
X060673Y025843D03*
X064874Y025793D03*
X065623Y025793D03*
X065823Y034143D03*
X065074Y034143D03*
X060573Y034143D03*
X059824Y034143D03*
X055773Y034143D03*
X055024Y034143D03*
X050923Y034143D03*
X050174Y034143D03*
X045773Y034143D03*
X045024Y034143D03*
X040823Y034143D03*
X040074Y034143D03*
X035823Y034143D03*
X035074Y034143D03*
X030873Y034143D03*
X030124Y034143D03*
X030374Y045243D03*
X031123Y045243D03*
X035174Y045243D03*
X035923Y045243D03*
X040124Y045243D03*
X040873Y045243D03*
X045024Y045243D03*
X045773Y045243D03*
X050174Y045243D03*
X050923Y045243D03*
X055024Y045243D03*
X055773Y045243D03*
X059824Y045243D03*
X060573Y045243D03*
X065024Y045243D03*
X065773Y045243D03*
X009083Y056943D03*
X008414Y056943D03*
D22*
X005030Y054159D02*
X004970Y054159D01*
X005030Y054159D02*
X005030Y054099D01*
X004970Y054099D01*
X004970Y054159D01*
X004970Y053259D02*
X005030Y053259D01*
X005030Y053199D01*
X004970Y053199D01*
X004970Y053259D01*
X004030Y053259D02*
X003970Y053259D01*
X004030Y053259D02*
X004030Y053199D01*
X003970Y053199D01*
X003970Y053259D01*
X003970Y054159D02*
X004030Y054159D01*
X004030Y054099D01*
X003970Y054099D01*
X003970Y054159D01*
X008019Y027123D02*
X008079Y027123D01*
X008079Y027063D01*
X008019Y027063D01*
X008019Y027123D01*
X008919Y027123D02*
X008979Y027123D01*
X008979Y027063D01*
X008919Y027063D01*
X008919Y027123D01*
X008919Y026223D02*
X008979Y026223D01*
X008979Y026163D01*
X008919Y026163D01*
X008919Y026223D01*
X008079Y026223D02*
X008019Y026223D01*
X008079Y026223D02*
X008079Y026163D01*
X008019Y026163D01*
X008019Y026223D01*
X014519Y026163D02*
X014579Y026163D01*
X014519Y026163D02*
X014519Y026223D01*
X014579Y026223D01*
X014579Y026163D01*
X014579Y025263D02*
X014519Y025263D01*
X014519Y025323D01*
X014579Y025323D01*
X014579Y025263D01*
D23*
X008761Y029435D02*
X008563Y029435D01*
X008761Y029435D02*
X008761Y028797D01*
X008563Y028797D01*
X008563Y029435D01*
X008563Y028846D02*
X008761Y028846D01*
X008761Y028895D02*
X008563Y028895D01*
X008563Y028944D02*
X008761Y028944D01*
X008761Y028993D02*
X008563Y028993D01*
X008563Y029042D02*
X008761Y029042D01*
X008761Y029091D02*
X008563Y029091D01*
X008563Y029140D02*
X008761Y029140D01*
X008761Y029189D02*
X008563Y029189D01*
X008563Y029238D02*
X008761Y029238D01*
X008761Y029287D02*
X008563Y029287D01*
X008563Y029336D02*
X008761Y029336D01*
X008761Y029385D02*
X008563Y029385D01*
X008563Y029434D02*
X008761Y029434D01*
X008505Y029435D02*
X008307Y029435D01*
X008505Y029435D02*
X008505Y028797D01*
X008307Y028797D01*
X008307Y029435D01*
X008307Y028846D02*
X008505Y028846D01*
X008505Y028895D02*
X008307Y028895D01*
X008307Y028944D02*
X008505Y028944D01*
X008505Y028993D02*
X008307Y028993D01*
X008307Y029042D02*
X008505Y029042D01*
X008505Y029091D02*
X008307Y029091D01*
X008307Y029140D02*
X008505Y029140D01*
X008505Y029189D02*
X008307Y029189D01*
X008307Y029238D02*
X008505Y029238D01*
X008505Y029287D02*
X008307Y029287D01*
X008307Y029336D02*
X008505Y029336D01*
X008505Y029385D02*
X008307Y029385D01*
X008307Y029434D02*
X008505Y029434D01*
X008249Y029435D02*
X008051Y029435D01*
X008249Y029435D02*
X008249Y028797D01*
X008051Y028797D01*
X008051Y029435D01*
X008051Y028846D02*
X008249Y028846D01*
X008249Y028895D02*
X008051Y028895D01*
X008051Y028944D02*
X008249Y028944D01*
X008249Y028993D02*
X008051Y028993D01*
X008051Y029042D02*
X008249Y029042D01*
X008249Y029091D02*
X008051Y029091D01*
X008051Y029140D02*
X008249Y029140D01*
X008249Y029189D02*
X008051Y029189D01*
X008051Y029238D02*
X008249Y029238D01*
X008249Y029287D02*
X008051Y029287D01*
X008051Y029336D02*
X008249Y029336D01*
X008249Y029385D02*
X008051Y029385D01*
X008051Y029434D02*
X008249Y029434D01*
X007993Y029435D02*
X007795Y029435D01*
X007993Y029435D02*
X007993Y028797D01*
X007795Y028797D01*
X007795Y029435D01*
X007795Y028846D02*
X007993Y028846D01*
X007993Y028895D02*
X007795Y028895D01*
X007795Y028944D02*
X007993Y028944D01*
X007993Y028993D02*
X007795Y028993D01*
X007795Y029042D02*
X007993Y029042D01*
X007993Y029091D02*
X007795Y029091D01*
X007795Y029140D02*
X007993Y029140D01*
X007993Y029189D02*
X007795Y029189D01*
X007795Y029238D02*
X007993Y029238D01*
X007993Y029287D02*
X007795Y029287D01*
X007795Y029336D02*
X007993Y029336D01*
X007993Y029385D02*
X007795Y029385D01*
X007795Y029434D02*
X007993Y029434D01*
X007737Y029435D02*
X007539Y029435D01*
X007737Y029435D02*
X007737Y028797D01*
X007539Y028797D01*
X007539Y029435D01*
X007539Y028846D02*
X007737Y028846D01*
X007737Y028895D02*
X007539Y028895D01*
X007539Y028944D02*
X007737Y028944D01*
X007737Y028993D02*
X007539Y028993D01*
X007539Y029042D02*
X007737Y029042D01*
X007737Y029091D02*
X007539Y029091D01*
X007539Y029140D02*
X007737Y029140D01*
X007737Y029189D02*
X007539Y029189D01*
X007539Y029238D02*
X007737Y029238D01*
X007737Y029287D02*
X007539Y029287D01*
X007539Y029336D02*
X007737Y029336D01*
X007737Y029385D02*
X007539Y029385D01*
X007539Y029434D02*
X007737Y029434D01*
X007481Y029435D02*
X007283Y029435D01*
X007481Y029435D02*
X007481Y028797D01*
X007283Y028797D01*
X007283Y029435D01*
X007283Y028846D02*
X007481Y028846D01*
X007481Y028895D02*
X007283Y028895D01*
X007283Y028944D02*
X007481Y028944D01*
X007481Y028993D02*
X007283Y028993D01*
X007283Y029042D02*
X007481Y029042D01*
X007481Y029091D02*
X007283Y029091D01*
X007283Y029140D02*
X007481Y029140D01*
X007481Y029189D02*
X007283Y029189D01*
X007283Y029238D02*
X007481Y029238D01*
X007481Y029287D02*
X007283Y029287D01*
X007283Y029336D02*
X007481Y029336D01*
X007481Y029385D02*
X007283Y029385D01*
X007283Y029434D02*
X007481Y029434D01*
X007225Y029435D02*
X007027Y029435D01*
X007225Y029435D02*
X007225Y028797D01*
X007027Y028797D01*
X007027Y029435D01*
X007027Y028846D02*
X007225Y028846D01*
X007225Y028895D02*
X007027Y028895D01*
X007027Y028944D02*
X007225Y028944D01*
X007225Y028993D02*
X007027Y028993D01*
X007027Y029042D02*
X007225Y029042D01*
X007225Y029091D02*
X007027Y029091D01*
X007027Y029140D02*
X007225Y029140D01*
X007225Y029189D02*
X007027Y029189D01*
X007027Y029238D02*
X007225Y029238D01*
X007225Y029287D02*
X007027Y029287D01*
X007027Y029336D02*
X007225Y029336D01*
X007225Y029385D02*
X007027Y029385D01*
X007027Y029434D02*
X007225Y029434D01*
X006970Y029435D02*
X006772Y029435D01*
X006970Y029435D02*
X006970Y028797D01*
X006772Y028797D01*
X006772Y029435D01*
X006772Y028846D02*
X006970Y028846D01*
X006970Y028895D02*
X006772Y028895D01*
X006772Y028944D02*
X006970Y028944D01*
X006970Y028993D02*
X006772Y028993D01*
X006772Y029042D02*
X006970Y029042D01*
X006970Y029091D02*
X006772Y029091D01*
X006772Y029140D02*
X006970Y029140D01*
X006970Y029189D02*
X006772Y029189D01*
X006772Y029238D02*
X006970Y029238D01*
X006970Y029287D02*
X006772Y029287D01*
X006772Y029336D02*
X006970Y029336D01*
X006970Y029385D02*
X006772Y029385D01*
X006772Y029434D02*
X006970Y029434D01*
X006714Y029435D02*
X006516Y029435D01*
X006714Y029435D02*
X006714Y028797D01*
X006516Y028797D01*
X006516Y029435D01*
X006516Y028846D02*
X006714Y028846D01*
X006714Y028895D02*
X006516Y028895D01*
X006516Y028944D02*
X006714Y028944D01*
X006714Y028993D02*
X006516Y028993D01*
X006516Y029042D02*
X006714Y029042D01*
X006714Y029091D02*
X006516Y029091D01*
X006516Y029140D02*
X006714Y029140D01*
X006714Y029189D02*
X006516Y029189D01*
X006516Y029238D02*
X006714Y029238D01*
X006714Y029287D02*
X006516Y029287D01*
X006516Y029336D02*
X006714Y029336D01*
X006714Y029385D02*
X006516Y029385D01*
X006516Y029434D02*
X006714Y029434D01*
X006458Y029435D02*
X006260Y029435D01*
X006458Y029435D02*
X006458Y028797D01*
X006260Y028797D01*
X006260Y029435D01*
X006260Y028846D02*
X006458Y028846D01*
X006458Y028895D02*
X006260Y028895D01*
X006260Y028944D02*
X006458Y028944D01*
X006458Y028993D02*
X006260Y028993D01*
X006260Y029042D02*
X006458Y029042D01*
X006458Y029091D02*
X006260Y029091D01*
X006260Y029140D02*
X006458Y029140D01*
X006458Y029189D02*
X006260Y029189D01*
X006260Y029238D02*
X006458Y029238D01*
X006458Y029287D02*
X006260Y029287D01*
X006260Y029336D02*
X006458Y029336D01*
X006458Y029385D02*
X006260Y029385D01*
X006260Y029434D02*
X006458Y029434D01*
X006202Y029435D02*
X006004Y029435D01*
X006202Y029435D02*
X006202Y028797D01*
X006004Y028797D01*
X006004Y029435D01*
X006004Y028846D02*
X006202Y028846D01*
X006202Y028895D02*
X006004Y028895D01*
X006004Y028944D02*
X006202Y028944D01*
X006202Y028993D02*
X006004Y028993D01*
X006004Y029042D02*
X006202Y029042D01*
X006202Y029091D02*
X006004Y029091D01*
X006004Y029140D02*
X006202Y029140D01*
X006202Y029189D02*
X006004Y029189D01*
X006004Y029238D02*
X006202Y029238D01*
X006202Y029287D02*
X006004Y029287D01*
X006004Y029336D02*
X006202Y029336D01*
X006202Y029385D02*
X006004Y029385D01*
X006004Y029434D02*
X006202Y029434D01*
X005946Y029435D02*
X005748Y029435D01*
X005946Y029435D02*
X005946Y028797D01*
X005748Y028797D01*
X005748Y029435D01*
X005748Y028846D02*
X005946Y028846D01*
X005946Y028895D02*
X005748Y028895D01*
X005748Y028944D02*
X005946Y028944D01*
X005946Y028993D02*
X005748Y028993D01*
X005748Y029042D02*
X005946Y029042D01*
X005946Y029091D02*
X005748Y029091D01*
X005748Y029140D02*
X005946Y029140D01*
X005946Y029189D02*
X005748Y029189D01*
X005748Y029238D02*
X005946Y029238D01*
X005946Y029287D02*
X005748Y029287D01*
X005748Y029336D02*
X005946Y029336D01*
X005946Y029385D02*
X005748Y029385D01*
X005748Y029434D02*
X005946Y029434D01*
X005690Y029435D02*
X005492Y029435D01*
X005690Y029435D02*
X005690Y028797D01*
X005492Y028797D01*
X005492Y029435D01*
X005492Y028846D02*
X005690Y028846D01*
X005690Y028895D02*
X005492Y028895D01*
X005492Y028944D02*
X005690Y028944D01*
X005690Y028993D02*
X005492Y028993D01*
X005492Y029042D02*
X005690Y029042D01*
X005690Y029091D02*
X005492Y029091D01*
X005492Y029140D02*
X005690Y029140D01*
X005690Y029189D02*
X005492Y029189D01*
X005492Y029238D02*
X005690Y029238D01*
X005690Y029287D02*
X005492Y029287D01*
X005492Y029336D02*
X005690Y029336D01*
X005690Y029385D02*
X005492Y029385D01*
X005492Y029434D02*
X005690Y029434D01*
X005434Y029435D02*
X005236Y029435D01*
X005434Y029435D02*
X005434Y028797D01*
X005236Y028797D01*
X005236Y029435D01*
X005236Y028846D02*
X005434Y028846D01*
X005434Y028895D02*
X005236Y028895D01*
X005236Y028944D02*
X005434Y028944D01*
X005434Y028993D02*
X005236Y028993D01*
X005236Y029042D02*
X005434Y029042D01*
X005434Y029091D02*
X005236Y029091D01*
X005236Y029140D02*
X005434Y029140D01*
X005434Y029189D02*
X005236Y029189D01*
X005236Y029238D02*
X005434Y029238D01*
X005434Y029287D02*
X005236Y029287D01*
X005236Y029336D02*
X005434Y029336D01*
X005434Y029385D02*
X005236Y029385D01*
X005236Y029434D02*
X005434Y029434D01*
X005434Y032289D02*
X005236Y032289D01*
X005434Y032289D02*
X005434Y031651D01*
X005236Y031651D01*
X005236Y032289D01*
X005236Y031700D02*
X005434Y031700D01*
X005434Y031749D02*
X005236Y031749D01*
X005236Y031798D02*
X005434Y031798D01*
X005434Y031847D02*
X005236Y031847D01*
X005236Y031896D02*
X005434Y031896D01*
X005434Y031945D02*
X005236Y031945D01*
X005236Y031994D02*
X005434Y031994D01*
X005434Y032043D02*
X005236Y032043D01*
X005236Y032092D02*
X005434Y032092D01*
X005434Y032141D02*
X005236Y032141D01*
X005236Y032190D02*
X005434Y032190D01*
X005434Y032239D02*
X005236Y032239D01*
X005236Y032288D02*
X005434Y032288D01*
X005492Y032289D02*
X005690Y032289D01*
X005690Y031651D01*
X005492Y031651D01*
X005492Y032289D01*
X005492Y031700D02*
X005690Y031700D01*
X005690Y031749D02*
X005492Y031749D01*
X005492Y031798D02*
X005690Y031798D01*
X005690Y031847D02*
X005492Y031847D01*
X005492Y031896D02*
X005690Y031896D01*
X005690Y031945D02*
X005492Y031945D01*
X005492Y031994D02*
X005690Y031994D01*
X005690Y032043D02*
X005492Y032043D01*
X005492Y032092D02*
X005690Y032092D01*
X005690Y032141D02*
X005492Y032141D01*
X005492Y032190D02*
X005690Y032190D01*
X005690Y032239D02*
X005492Y032239D01*
X005492Y032288D02*
X005690Y032288D01*
X005748Y032289D02*
X005946Y032289D01*
X005946Y031651D01*
X005748Y031651D01*
X005748Y032289D01*
X005748Y031700D02*
X005946Y031700D01*
X005946Y031749D02*
X005748Y031749D01*
X005748Y031798D02*
X005946Y031798D01*
X005946Y031847D02*
X005748Y031847D01*
X005748Y031896D02*
X005946Y031896D01*
X005946Y031945D02*
X005748Y031945D01*
X005748Y031994D02*
X005946Y031994D01*
X005946Y032043D02*
X005748Y032043D01*
X005748Y032092D02*
X005946Y032092D01*
X005946Y032141D02*
X005748Y032141D01*
X005748Y032190D02*
X005946Y032190D01*
X005946Y032239D02*
X005748Y032239D01*
X005748Y032288D02*
X005946Y032288D01*
X006004Y032289D02*
X006202Y032289D01*
X006202Y031651D01*
X006004Y031651D01*
X006004Y032289D01*
X006004Y031700D02*
X006202Y031700D01*
X006202Y031749D02*
X006004Y031749D01*
X006004Y031798D02*
X006202Y031798D01*
X006202Y031847D02*
X006004Y031847D01*
X006004Y031896D02*
X006202Y031896D01*
X006202Y031945D02*
X006004Y031945D01*
X006004Y031994D02*
X006202Y031994D01*
X006202Y032043D02*
X006004Y032043D01*
X006004Y032092D02*
X006202Y032092D01*
X006202Y032141D02*
X006004Y032141D01*
X006004Y032190D02*
X006202Y032190D01*
X006202Y032239D02*
X006004Y032239D01*
X006004Y032288D02*
X006202Y032288D01*
X006260Y032289D02*
X006458Y032289D01*
X006458Y031651D01*
X006260Y031651D01*
X006260Y032289D01*
X006260Y031700D02*
X006458Y031700D01*
X006458Y031749D02*
X006260Y031749D01*
X006260Y031798D02*
X006458Y031798D01*
X006458Y031847D02*
X006260Y031847D01*
X006260Y031896D02*
X006458Y031896D01*
X006458Y031945D02*
X006260Y031945D01*
X006260Y031994D02*
X006458Y031994D01*
X006458Y032043D02*
X006260Y032043D01*
X006260Y032092D02*
X006458Y032092D01*
X006458Y032141D02*
X006260Y032141D01*
X006260Y032190D02*
X006458Y032190D01*
X006458Y032239D02*
X006260Y032239D01*
X006260Y032288D02*
X006458Y032288D01*
X006516Y032289D02*
X006714Y032289D01*
X006714Y031651D01*
X006516Y031651D01*
X006516Y032289D01*
X006516Y031700D02*
X006714Y031700D01*
X006714Y031749D02*
X006516Y031749D01*
X006516Y031798D02*
X006714Y031798D01*
X006714Y031847D02*
X006516Y031847D01*
X006516Y031896D02*
X006714Y031896D01*
X006714Y031945D02*
X006516Y031945D01*
X006516Y031994D02*
X006714Y031994D01*
X006714Y032043D02*
X006516Y032043D01*
X006516Y032092D02*
X006714Y032092D01*
X006714Y032141D02*
X006516Y032141D01*
X006516Y032190D02*
X006714Y032190D01*
X006714Y032239D02*
X006516Y032239D01*
X006516Y032288D02*
X006714Y032288D01*
X006772Y032289D02*
X006970Y032289D01*
X006970Y031651D01*
X006772Y031651D01*
X006772Y032289D01*
X006772Y031700D02*
X006970Y031700D01*
X006970Y031749D02*
X006772Y031749D01*
X006772Y031798D02*
X006970Y031798D01*
X006970Y031847D02*
X006772Y031847D01*
X006772Y031896D02*
X006970Y031896D01*
X006970Y031945D02*
X006772Y031945D01*
X006772Y031994D02*
X006970Y031994D01*
X006970Y032043D02*
X006772Y032043D01*
X006772Y032092D02*
X006970Y032092D01*
X006970Y032141D02*
X006772Y032141D01*
X006772Y032190D02*
X006970Y032190D01*
X006970Y032239D02*
X006772Y032239D01*
X006772Y032288D02*
X006970Y032288D01*
X007027Y032289D02*
X007225Y032289D01*
X007225Y031651D01*
X007027Y031651D01*
X007027Y032289D01*
X007027Y031700D02*
X007225Y031700D01*
X007225Y031749D02*
X007027Y031749D01*
X007027Y031798D02*
X007225Y031798D01*
X007225Y031847D02*
X007027Y031847D01*
X007027Y031896D02*
X007225Y031896D01*
X007225Y031945D02*
X007027Y031945D01*
X007027Y031994D02*
X007225Y031994D01*
X007225Y032043D02*
X007027Y032043D01*
X007027Y032092D02*
X007225Y032092D01*
X007225Y032141D02*
X007027Y032141D01*
X007027Y032190D02*
X007225Y032190D01*
X007225Y032239D02*
X007027Y032239D01*
X007027Y032288D02*
X007225Y032288D01*
X007283Y032289D02*
X007481Y032289D01*
X007481Y031651D01*
X007283Y031651D01*
X007283Y032289D01*
X007283Y031700D02*
X007481Y031700D01*
X007481Y031749D02*
X007283Y031749D01*
X007283Y031798D02*
X007481Y031798D01*
X007481Y031847D02*
X007283Y031847D01*
X007283Y031896D02*
X007481Y031896D01*
X007481Y031945D02*
X007283Y031945D01*
X007283Y031994D02*
X007481Y031994D01*
X007481Y032043D02*
X007283Y032043D01*
X007283Y032092D02*
X007481Y032092D01*
X007481Y032141D02*
X007283Y032141D01*
X007283Y032190D02*
X007481Y032190D01*
X007481Y032239D02*
X007283Y032239D01*
X007283Y032288D02*
X007481Y032288D01*
X007539Y032289D02*
X007737Y032289D01*
X007737Y031651D01*
X007539Y031651D01*
X007539Y032289D01*
X007539Y031700D02*
X007737Y031700D01*
X007737Y031749D02*
X007539Y031749D01*
X007539Y031798D02*
X007737Y031798D01*
X007737Y031847D02*
X007539Y031847D01*
X007539Y031896D02*
X007737Y031896D01*
X007737Y031945D02*
X007539Y031945D01*
X007539Y031994D02*
X007737Y031994D01*
X007737Y032043D02*
X007539Y032043D01*
X007539Y032092D02*
X007737Y032092D01*
X007737Y032141D02*
X007539Y032141D01*
X007539Y032190D02*
X007737Y032190D01*
X007737Y032239D02*
X007539Y032239D01*
X007539Y032288D02*
X007737Y032288D01*
X007795Y032289D02*
X007993Y032289D01*
X007993Y031651D01*
X007795Y031651D01*
X007795Y032289D01*
X007795Y031700D02*
X007993Y031700D01*
X007993Y031749D02*
X007795Y031749D01*
X007795Y031798D02*
X007993Y031798D01*
X007993Y031847D02*
X007795Y031847D01*
X007795Y031896D02*
X007993Y031896D01*
X007993Y031945D02*
X007795Y031945D01*
X007795Y031994D02*
X007993Y031994D01*
X007993Y032043D02*
X007795Y032043D01*
X007795Y032092D02*
X007993Y032092D01*
X007993Y032141D02*
X007795Y032141D01*
X007795Y032190D02*
X007993Y032190D01*
X007993Y032239D02*
X007795Y032239D01*
X007795Y032288D02*
X007993Y032288D01*
X008051Y032289D02*
X008249Y032289D01*
X008249Y031651D01*
X008051Y031651D01*
X008051Y032289D01*
X008051Y031700D02*
X008249Y031700D01*
X008249Y031749D02*
X008051Y031749D01*
X008051Y031798D02*
X008249Y031798D01*
X008249Y031847D02*
X008051Y031847D01*
X008051Y031896D02*
X008249Y031896D01*
X008249Y031945D02*
X008051Y031945D01*
X008051Y031994D02*
X008249Y031994D01*
X008249Y032043D02*
X008051Y032043D01*
X008051Y032092D02*
X008249Y032092D01*
X008249Y032141D02*
X008051Y032141D01*
X008051Y032190D02*
X008249Y032190D01*
X008249Y032239D02*
X008051Y032239D01*
X008051Y032288D02*
X008249Y032288D01*
X008307Y032289D02*
X008505Y032289D01*
X008505Y031651D01*
X008307Y031651D01*
X008307Y032289D01*
X008307Y031700D02*
X008505Y031700D01*
X008505Y031749D02*
X008307Y031749D01*
X008307Y031798D02*
X008505Y031798D01*
X008505Y031847D02*
X008307Y031847D01*
X008307Y031896D02*
X008505Y031896D01*
X008505Y031945D02*
X008307Y031945D01*
X008307Y031994D02*
X008505Y031994D01*
X008505Y032043D02*
X008307Y032043D01*
X008307Y032092D02*
X008505Y032092D01*
X008505Y032141D02*
X008307Y032141D01*
X008307Y032190D02*
X008505Y032190D01*
X008505Y032239D02*
X008307Y032239D01*
X008307Y032288D02*
X008505Y032288D01*
X008563Y032289D02*
X008761Y032289D01*
X008761Y031651D01*
X008563Y031651D01*
X008563Y032289D01*
X008563Y031700D02*
X008761Y031700D01*
X008761Y031749D02*
X008563Y031749D01*
X008563Y031798D02*
X008761Y031798D01*
X008761Y031847D02*
X008563Y031847D01*
X008563Y031896D02*
X008761Y031896D01*
X008761Y031945D02*
X008563Y031945D01*
X008563Y031994D02*
X008761Y031994D01*
X008761Y032043D02*
X008563Y032043D01*
X008563Y032092D02*
X008761Y032092D01*
X008761Y032141D02*
X008563Y032141D01*
X008563Y032190D02*
X008761Y032190D01*
X008761Y032239D02*
X008563Y032239D01*
X008563Y032288D02*
X008761Y032288D01*
X008787Y051968D02*
X008589Y051968D01*
X008589Y052606D01*
X008787Y052606D01*
X008787Y051968D01*
X008787Y052017D02*
X008589Y052017D01*
X008589Y052066D02*
X008787Y052066D01*
X008787Y052115D02*
X008589Y052115D01*
X008589Y052164D02*
X008787Y052164D01*
X008787Y052213D02*
X008589Y052213D01*
X008589Y052262D02*
X008787Y052262D01*
X008787Y052311D02*
X008589Y052311D01*
X008589Y052360D02*
X008787Y052360D01*
X008787Y052409D02*
X008589Y052409D01*
X008589Y052458D02*
X008787Y052458D01*
X008787Y052507D02*
X008589Y052507D01*
X008589Y052556D02*
X008787Y052556D01*
X008787Y052605D02*
X008589Y052605D01*
X008531Y051968D02*
X008333Y051968D01*
X008333Y052606D01*
X008531Y052606D01*
X008531Y051968D01*
X008531Y052017D02*
X008333Y052017D01*
X008333Y052066D02*
X008531Y052066D01*
X008531Y052115D02*
X008333Y052115D01*
X008333Y052164D02*
X008531Y052164D01*
X008531Y052213D02*
X008333Y052213D01*
X008333Y052262D02*
X008531Y052262D01*
X008531Y052311D02*
X008333Y052311D01*
X008333Y052360D02*
X008531Y052360D01*
X008531Y052409D02*
X008333Y052409D01*
X008333Y052458D02*
X008531Y052458D01*
X008531Y052507D02*
X008333Y052507D01*
X008333Y052556D02*
X008531Y052556D01*
X008531Y052605D02*
X008333Y052605D01*
X008276Y051968D02*
X008078Y051968D01*
X008078Y052606D01*
X008276Y052606D01*
X008276Y051968D01*
X008276Y052017D02*
X008078Y052017D01*
X008078Y052066D02*
X008276Y052066D01*
X008276Y052115D02*
X008078Y052115D01*
X008078Y052164D02*
X008276Y052164D01*
X008276Y052213D02*
X008078Y052213D01*
X008078Y052262D02*
X008276Y052262D01*
X008276Y052311D02*
X008078Y052311D01*
X008078Y052360D02*
X008276Y052360D01*
X008276Y052409D02*
X008078Y052409D01*
X008078Y052458D02*
X008276Y052458D01*
X008276Y052507D02*
X008078Y052507D01*
X008078Y052556D02*
X008276Y052556D01*
X008276Y052605D02*
X008078Y052605D01*
X008020Y051968D02*
X007822Y051968D01*
X007822Y052606D01*
X008020Y052606D01*
X008020Y051968D01*
X008020Y052017D02*
X007822Y052017D01*
X007822Y052066D02*
X008020Y052066D01*
X008020Y052115D02*
X007822Y052115D01*
X007822Y052164D02*
X008020Y052164D01*
X008020Y052213D02*
X007822Y052213D01*
X007822Y052262D02*
X008020Y052262D01*
X008020Y052311D02*
X007822Y052311D01*
X007822Y052360D02*
X008020Y052360D01*
X008020Y052409D02*
X007822Y052409D01*
X007822Y052458D02*
X008020Y052458D01*
X008020Y052507D02*
X007822Y052507D01*
X007822Y052556D02*
X008020Y052556D01*
X008020Y052605D02*
X007822Y052605D01*
X007764Y051968D02*
X007566Y051968D01*
X007566Y052606D01*
X007764Y052606D01*
X007764Y051968D01*
X007764Y052017D02*
X007566Y052017D01*
X007566Y052066D02*
X007764Y052066D01*
X007764Y052115D02*
X007566Y052115D01*
X007566Y052164D02*
X007764Y052164D01*
X007764Y052213D02*
X007566Y052213D01*
X007566Y052262D02*
X007764Y052262D01*
X007764Y052311D02*
X007566Y052311D01*
X007566Y052360D02*
X007764Y052360D01*
X007764Y052409D02*
X007566Y052409D01*
X007566Y052458D02*
X007764Y052458D01*
X007764Y052507D02*
X007566Y052507D01*
X007566Y052556D02*
X007764Y052556D01*
X007764Y052605D02*
X007566Y052605D01*
X007508Y051968D02*
X007310Y051968D01*
X007310Y052606D01*
X007508Y052606D01*
X007508Y051968D01*
X007508Y052017D02*
X007310Y052017D01*
X007310Y052066D02*
X007508Y052066D01*
X007508Y052115D02*
X007310Y052115D01*
X007310Y052164D02*
X007508Y052164D01*
X007508Y052213D02*
X007310Y052213D01*
X007310Y052262D02*
X007508Y052262D01*
X007508Y052311D02*
X007310Y052311D01*
X007310Y052360D02*
X007508Y052360D01*
X007508Y052409D02*
X007310Y052409D01*
X007310Y052458D02*
X007508Y052458D01*
X007508Y052507D02*
X007310Y052507D01*
X007310Y052556D02*
X007508Y052556D01*
X007508Y052605D02*
X007310Y052605D01*
X007252Y051968D02*
X007054Y051968D01*
X007054Y052606D01*
X007252Y052606D01*
X007252Y051968D01*
X007252Y052017D02*
X007054Y052017D01*
X007054Y052066D02*
X007252Y052066D01*
X007252Y052115D02*
X007054Y052115D01*
X007054Y052164D02*
X007252Y052164D01*
X007252Y052213D02*
X007054Y052213D01*
X007054Y052262D02*
X007252Y052262D01*
X007252Y052311D02*
X007054Y052311D01*
X007054Y052360D02*
X007252Y052360D01*
X007252Y052409D02*
X007054Y052409D01*
X007054Y052458D02*
X007252Y052458D01*
X007252Y052507D02*
X007054Y052507D01*
X007054Y052556D02*
X007252Y052556D01*
X007252Y052605D02*
X007054Y052605D01*
X006996Y051968D02*
X006798Y051968D01*
X006798Y052606D01*
X006996Y052606D01*
X006996Y051968D01*
X006996Y052017D02*
X006798Y052017D01*
X006798Y052066D02*
X006996Y052066D01*
X006996Y052115D02*
X006798Y052115D01*
X006798Y052164D02*
X006996Y052164D01*
X006996Y052213D02*
X006798Y052213D01*
X006798Y052262D02*
X006996Y052262D01*
X006996Y052311D02*
X006798Y052311D01*
X006798Y052360D02*
X006996Y052360D01*
X006996Y052409D02*
X006798Y052409D01*
X006798Y052458D02*
X006996Y052458D01*
X006996Y052507D02*
X006798Y052507D01*
X006798Y052556D02*
X006996Y052556D01*
X006996Y052605D02*
X006798Y052605D01*
X006740Y051968D02*
X006542Y051968D01*
X006542Y052606D01*
X006740Y052606D01*
X006740Y051968D01*
X006740Y052017D02*
X006542Y052017D01*
X006542Y052066D02*
X006740Y052066D01*
X006740Y052115D02*
X006542Y052115D01*
X006542Y052164D02*
X006740Y052164D01*
X006740Y052213D02*
X006542Y052213D01*
X006542Y052262D02*
X006740Y052262D01*
X006740Y052311D02*
X006542Y052311D01*
X006542Y052360D02*
X006740Y052360D01*
X006740Y052409D02*
X006542Y052409D01*
X006542Y052458D02*
X006740Y052458D01*
X006740Y052507D02*
X006542Y052507D01*
X006542Y052556D02*
X006740Y052556D01*
X006740Y052605D02*
X006542Y052605D01*
X006484Y051968D02*
X006286Y051968D01*
X006286Y052606D01*
X006484Y052606D01*
X006484Y051968D01*
X006484Y052017D02*
X006286Y052017D01*
X006286Y052066D02*
X006484Y052066D01*
X006484Y052115D02*
X006286Y052115D01*
X006286Y052164D02*
X006484Y052164D01*
X006484Y052213D02*
X006286Y052213D01*
X006286Y052262D02*
X006484Y052262D01*
X006484Y052311D02*
X006286Y052311D01*
X006286Y052360D02*
X006484Y052360D01*
X006484Y052409D02*
X006286Y052409D01*
X006286Y052458D02*
X006484Y052458D01*
X006484Y052507D02*
X006286Y052507D01*
X006286Y052556D02*
X006484Y052556D01*
X006484Y052605D02*
X006286Y052605D01*
X006228Y051968D02*
X006030Y051968D01*
X006030Y052606D01*
X006228Y052606D01*
X006228Y051968D01*
X006228Y052017D02*
X006030Y052017D01*
X006030Y052066D02*
X006228Y052066D01*
X006228Y052115D02*
X006030Y052115D01*
X006030Y052164D02*
X006228Y052164D01*
X006228Y052213D02*
X006030Y052213D01*
X006030Y052262D02*
X006228Y052262D01*
X006228Y052311D02*
X006030Y052311D01*
X006030Y052360D02*
X006228Y052360D01*
X006228Y052409D02*
X006030Y052409D01*
X006030Y052458D02*
X006228Y052458D01*
X006228Y052507D02*
X006030Y052507D01*
X006030Y052556D02*
X006228Y052556D01*
X006228Y052605D02*
X006030Y052605D01*
X006030Y054823D02*
X006228Y054823D01*
X006030Y054823D02*
X006030Y055461D01*
X006228Y055461D01*
X006228Y054823D01*
X006228Y054872D02*
X006030Y054872D01*
X006030Y054921D02*
X006228Y054921D01*
X006228Y054970D02*
X006030Y054970D01*
X006030Y055019D02*
X006228Y055019D01*
X006228Y055068D02*
X006030Y055068D01*
X006030Y055117D02*
X006228Y055117D01*
X006228Y055166D02*
X006030Y055166D01*
X006030Y055215D02*
X006228Y055215D01*
X006228Y055264D02*
X006030Y055264D01*
X006030Y055313D02*
X006228Y055313D01*
X006228Y055362D02*
X006030Y055362D01*
X006030Y055411D02*
X006228Y055411D01*
X006228Y055460D02*
X006030Y055460D01*
X006286Y054823D02*
X006484Y054823D01*
X006286Y054823D02*
X006286Y055461D01*
X006484Y055461D01*
X006484Y054823D01*
X006484Y054872D02*
X006286Y054872D01*
X006286Y054921D02*
X006484Y054921D01*
X006484Y054970D02*
X006286Y054970D01*
X006286Y055019D02*
X006484Y055019D01*
X006484Y055068D02*
X006286Y055068D01*
X006286Y055117D02*
X006484Y055117D01*
X006484Y055166D02*
X006286Y055166D01*
X006286Y055215D02*
X006484Y055215D01*
X006484Y055264D02*
X006286Y055264D01*
X006286Y055313D02*
X006484Y055313D01*
X006484Y055362D02*
X006286Y055362D01*
X006286Y055411D02*
X006484Y055411D01*
X006484Y055460D02*
X006286Y055460D01*
X006542Y054823D02*
X006740Y054823D01*
X006542Y054823D02*
X006542Y055461D01*
X006740Y055461D01*
X006740Y054823D01*
X006740Y054872D02*
X006542Y054872D01*
X006542Y054921D02*
X006740Y054921D01*
X006740Y054970D02*
X006542Y054970D01*
X006542Y055019D02*
X006740Y055019D01*
X006740Y055068D02*
X006542Y055068D01*
X006542Y055117D02*
X006740Y055117D01*
X006740Y055166D02*
X006542Y055166D01*
X006542Y055215D02*
X006740Y055215D01*
X006740Y055264D02*
X006542Y055264D01*
X006542Y055313D02*
X006740Y055313D01*
X006740Y055362D02*
X006542Y055362D01*
X006542Y055411D02*
X006740Y055411D01*
X006740Y055460D02*
X006542Y055460D01*
X006798Y054823D02*
X006996Y054823D01*
X006798Y054823D02*
X006798Y055461D01*
X006996Y055461D01*
X006996Y054823D01*
X006996Y054872D02*
X006798Y054872D01*
X006798Y054921D02*
X006996Y054921D01*
X006996Y054970D02*
X006798Y054970D01*
X006798Y055019D02*
X006996Y055019D01*
X006996Y055068D02*
X006798Y055068D01*
X006798Y055117D02*
X006996Y055117D01*
X006996Y055166D02*
X006798Y055166D01*
X006798Y055215D02*
X006996Y055215D01*
X006996Y055264D02*
X006798Y055264D01*
X006798Y055313D02*
X006996Y055313D01*
X006996Y055362D02*
X006798Y055362D01*
X006798Y055411D02*
X006996Y055411D01*
X006996Y055460D02*
X006798Y055460D01*
X007054Y054823D02*
X007252Y054823D01*
X007054Y054823D02*
X007054Y055461D01*
X007252Y055461D01*
X007252Y054823D01*
X007252Y054872D02*
X007054Y054872D01*
X007054Y054921D02*
X007252Y054921D01*
X007252Y054970D02*
X007054Y054970D01*
X007054Y055019D02*
X007252Y055019D01*
X007252Y055068D02*
X007054Y055068D01*
X007054Y055117D02*
X007252Y055117D01*
X007252Y055166D02*
X007054Y055166D01*
X007054Y055215D02*
X007252Y055215D01*
X007252Y055264D02*
X007054Y055264D01*
X007054Y055313D02*
X007252Y055313D01*
X007252Y055362D02*
X007054Y055362D01*
X007054Y055411D02*
X007252Y055411D01*
X007252Y055460D02*
X007054Y055460D01*
X007310Y054823D02*
X007508Y054823D01*
X007310Y054823D02*
X007310Y055461D01*
X007508Y055461D01*
X007508Y054823D01*
X007508Y054872D02*
X007310Y054872D01*
X007310Y054921D02*
X007508Y054921D01*
X007508Y054970D02*
X007310Y054970D01*
X007310Y055019D02*
X007508Y055019D01*
X007508Y055068D02*
X007310Y055068D01*
X007310Y055117D02*
X007508Y055117D01*
X007508Y055166D02*
X007310Y055166D01*
X007310Y055215D02*
X007508Y055215D01*
X007508Y055264D02*
X007310Y055264D01*
X007310Y055313D02*
X007508Y055313D01*
X007508Y055362D02*
X007310Y055362D01*
X007310Y055411D02*
X007508Y055411D01*
X007508Y055460D02*
X007310Y055460D01*
X007566Y054823D02*
X007764Y054823D01*
X007566Y054823D02*
X007566Y055461D01*
X007764Y055461D01*
X007764Y054823D01*
X007764Y054872D02*
X007566Y054872D01*
X007566Y054921D02*
X007764Y054921D01*
X007764Y054970D02*
X007566Y054970D01*
X007566Y055019D02*
X007764Y055019D01*
X007764Y055068D02*
X007566Y055068D01*
X007566Y055117D02*
X007764Y055117D01*
X007764Y055166D02*
X007566Y055166D01*
X007566Y055215D02*
X007764Y055215D01*
X007764Y055264D02*
X007566Y055264D01*
X007566Y055313D02*
X007764Y055313D01*
X007764Y055362D02*
X007566Y055362D01*
X007566Y055411D02*
X007764Y055411D01*
X007764Y055460D02*
X007566Y055460D01*
X007822Y054823D02*
X008020Y054823D01*
X007822Y054823D02*
X007822Y055461D01*
X008020Y055461D01*
X008020Y054823D01*
X008020Y054872D02*
X007822Y054872D01*
X007822Y054921D02*
X008020Y054921D01*
X008020Y054970D02*
X007822Y054970D01*
X007822Y055019D02*
X008020Y055019D01*
X008020Y055068D02*
X007822Y055068D01*
X007822Y055117D02*
X008020Y055117D01*
X008020Y055166D02*
X007822Y055166D01*
X007822Y055215D02*
X008020Y055215D01*
X008020Y055264D02*
X007822Y055264D01*
X007822Y055313D02*
X008020Y055313D01*
X008020Y055362D02*
X007822Y055362D01*
X007822Y055411D02*
X008020Y055411D01*
X008020Y055460D02*
X007822Y055460D01*
X008078Y054823D02*
X008276Y054823D01*
X008078Y054823D02*
X008078Y055461D01*
X008276Y055461D01*
X008276Y054823D01*
X008276Y054872D02*
X008078Y054872D01*
X008078Y054921D02*
X008276Y054921D01*
X008276Y054970D02*
X008078Y054970D01*
X008078Y055019D02*
X008276Y055019D01*
X008276Y055068D02*
X008078Y055068D01*
X008078Y055117D02*
X008276Y055117D01*
X008276Y055166D02*
X008078Y055166D01*
X008078Y055215D02*
X008276Y055215D01*
X008276Y055264D02*
X008078Y055264D01*
X008078Y055313D02*
X008276Y055313D01*
X008276Y055362D02*
X008078Y055362D01*
X008078Y055411D02*
X008276Y055411D01*
X008276Y055460D02*
X008078Y055460D01*
X008333Y054823D02*
X008531Y054823D01*
X008333Y054823D02*
X008333Y055461D01*
X008531Y055461D01*
X008531Y054823D01*
X008531Y054872D02*
X008333Y054872D01*
X008333Y054921D02*
X008531Y054921D01*
X008531Y054970D02*
X008333Y054970D01*
X008333Y055019D02*
X008531Y055019D01*
X008531Y055068D02*
X008333Y055068D01*
X008333Y055117D02*
X008531Y055117D01*
X008531Y055166D02*
X008333Y055166D01*
X008333Y055215D02*
X008531Y055215D01*
X008531Y055264D02*
X008333Y055264D01*
X008333Y055313D02*
X008531Y055313D01*
X008531Y055362D02*
X008333Y055362D01*
X008333Y055411D02*
X008531Y055411D01*
X008531Y055460D02*
X008333Y055460D01*
X008589Y054823D02*
X008787Y054823D01*
X008589Y054823D02*
X008589Y055461D01*
X008787Y055461D01*
X008787Y054823D01*
X008787Y054872D02*
X008589Y054872D01*
X008589Y054921D02*
X008787Y054921D01*
X008787Y054970D02*
X008589Y054970D01*
X008589Y055019D02*
X008787Y055019D01*
X008787Y055068D02*
X008589Y055068D01*
X008589Y055117D02*
X008787Y055117D01*
X008787Y055166D02*
X008589Y055166D01*
X008589Y055215D02*
X008787Y055215D01*
X008787Y055264D02*
X008589Y055264D01*
X008589Y055313D02*
X008787Y055313D01*
X008787Y055362D02*
X008589Y055362D01*
X008589Y055411D02*
X008787Y055411D01*
X008787Y055460D02*
X008589Y055460D01*
X008845Y054823D02*
X009043Y054823D01*
X008845Y054823D02*
X008845Y055461D01*
X009043Y055461D01*
X009043Y054823D01*
X009043Y054872D02*
X008845Y054872D01*
X008845Y054921D02*
X009043Y054921D01*
X009043Y054970D02*
X008845Y054970D01*
X008845Y055019D02*
X009043Y055019D01*
X009043Y055068D02*
X008845Y055068D01*
X008845Y055117D02*
X009043Y055117D01*
X009043Y055166D02*
X008845Y055166D01*
X008845Y055215D02*
X009043Y055215D01*
X009043Y055264D02*
X008845Y055264D01*
X008845Y055313D02*
X009043Y055313D01*
X009043Y055362D02*
X008845Y055362D01*
X008845Y055411D02*
X009043Y055411D01*
X009043Y055460D02*
X008845Y055460D01*
X009101Y054823D02*
X009299Y054823D01*
X009101Y054823D02*
X009101Y055461D01*
X009299Y055461D01*
X009299Y054823D01*
X009299Y054872D02*
X009101Y054872D01*
X009101Y054921D02*
X009299Y054921D01*
X009299Y054970D02*
X009101Y054970D01*
X009101Y055019D02*
X009299Y055019D01*
X009299Y055068D02*
X009101Y055068D01*
X009101Y055117D02*
X009299Y055117D01*
X009299Y055166D02*
X009101Y055166D01*
X009101Y055215D02*
X009299Y055215D01*
X009299Y055264D02*
X009101Y055264D01*
X009101Y055313D02*
X009299Y055313D01*
X009299Y055362D02*
X009101Y055362D01*
X009101Y055411D02*
X009299Y055411D01*
X009299Y055460D02*
X009101Y055460D01*
X009357Y054823D02*
X009555Y054823D01*
X009357Y054823D02*
X009357Y055461D01*
X009555Y055461D01*
X009555Y054823D01*
X009555Y054872D02*
X009357Y054872D01*
X009357Y054921D02*
X009555Y054921D01*
X009555Y054970D02*
X009357Y054970D01*
X009357Y055019D02*
X009555Y055019D01*
X009555Y055068D02*
X009357Y055068D01*
X009357Y055117D02*
X009555Y055117D01*
X009555Y055166D02*
X009357Y055166D01*
X009357Y055215D02*
X009555Y055215D01*
X009555Y055264D02*
X009357Y055264D01*
X009357Y055313D02*
X009555Y055313D01*
X009555Y055362D02*
X009357Y055362D01*
X009357Y055411D02*
X009555Y055411D01*
X009555Y055460D02*
X009357Y055460D01*
X009357Y051968D02*
X009555Y051968D01*
X009357Y051968D02*
X009357Y052606D01*
X009555Y052606D01*
X009555Y051968D01*
X009555Y052017D02*
X009357Y052017D01*
X009357Y052066D02*
X009555Y052066D01*
X009555Y052115D02*
X009357Y052115D01*
X009357Y052164D02*
X009555Y052164D01*
X009555Y052213D02*
X009357Y052213D01*
X009357Y052262D02*
X009555Y052262D01*
X009555Y052311D02*
X009357Y052311D01*
X009357Y052360D02*
X009555Y052360D01*
X009555Y052409D02*
X009357Y052409D01*
X009357Y052458D02*
X009555Y052458D01*
X009555Y052507D02*
X009357Y052507D01*
X009357Y052556D02*
X009555Y052556D01*
X009555Y052605D02*
X009357Y052605D01*
X009299Y051968D02*
X009101Y051968D01*
X009101Y052606D01*
X009299Y052606D01*
X009299Y051968D01*
X009299Y052017D02*
X009101Y052017D01*
X009101Y052066D02*
X009299Y052066D01*
X009299Y052115D02*
X009101Y052115D01*
X009101Y052164D02*
X009299Y052164D01*
X009299Y052213D02*
X009101Y052213D01*
X009101Y052262D02*
X009299Y052262D01*
X009299Y052311D02*
X009101Y052311D01*
X009101Y052360D02*
X009299Y052360D01*
X009299Y052409D02*
X009101Y052409D01*
X009101Y052458D02*
X009299Y052458D01*
X009299Y052507D02*
X009101Y052507D01*
X009101Y052556D02*
X009299Y052556D01*
X009299Y052605D02*
X009101Y052605D01*
X009043Y051968D02*
X008845Y051968D01*
X008845Y052606D01*
X009043Y052606D01*
X009043Y051968D01*
X009043Y052017D02*
X008845Y052017D01*
X008845Y052066D02*
X009043Y052066D01*
X009043Y052115D02*
X008845Y052115D01*
X008845Y052164D02*
X009043Y052164D01*
X009043Y052213D02*
X008845Y052213D01*
X008845Y052262D02*
X009043Y052262D01*
X009043Y052311D02*
X008845Y052311D01*
X008845Y052360D02*
X009043Y052360D01*
X009043Y052409D02*
X008845Y052409D01*
X008845Y052458D02*
X009043Y052458D01*
X009043Y052507D02*
X008845Y052507D01*
X008845Y052556D02*
X009043Y052556D01*
X009043Y052605D02*
X008845Y052605D01*
D24*
X013953Y057986D03*
X013953Y058774D03*
X014937Y058774D03*
X014937Y057986D03*
D25*
X016807Y059841D03*
X012083Y059841D03*
D26*
X011881Y055243D03*
X013416Y055243D03*
X006816Y033193D03*
X005281Y033193D03*
D27*
X026898Y017948D03*
X040018Y017948D03*
X046978Y017948D03*
X060098Y017948D03*
X059880Y057424D03*
X046760Y057424D03*
X040193Y057424D03*
X027073Y057424D03*
D28*
X021068Y058505D02*
X020208Y058505D01*
X018748Y059256D02*
X018748Y060116D01*
X020208Y060867D02*
X021068Y060867D01*
D29*
X029337Y049583D03*
X029337Y048583D03*
X029337Y047633D03*
X032887Y047583D03*
X032887Y048533D03*
X032887Y049533D03*
X034316Y049583D03*
X034316Y048583D03*
X034316Y047633D03*
X037866Y047583D03*
X039245Y047633D03*
X039245Y048583D03*
X039245Y049583D03*
X037866Y049533D03*
X037866Y048533D03*
X042795Y048533D03*
X042795Y049533D03*
X044224Y049583D03*
X044224Y048583D03*
X044224Y047633D03*
X042795Y047583D03*
X047774Y047583D03*
X047774Y048533D03*
X047774Y049533D03*
X049302Y049583D03*
X049302Y048583D03*
X049302Y047633D03*
X052852Y047583D03*
X054131Y047633D03*
X054131Y048583D03*
X054131Y049583D03*
X052852Y049533D03*
X052852Y048533D03*
X057681Y048533D03*
X057681Y049533D03*
X059010Y049583D03*
X059010Y048583D03*
X059010Y047633D03*
X057681Y047583D03*
X062560Y047583D03*
X062560Y048533D03*
X062560Y049533D03*
X064189Y049583D03*
X064189Y048583D03*
X064189Y047633D03*
X067739Y047583D03*
X067739Y048533D03*
X067739Y049533D03*
X067696Y039833D03*
X067696Y038833D03*
X067696Y037883D03*
X064146Y037933D03*
X064146Y038883D03*
X064146Y039883D03*
X062525Y039833D03*
X062525Y038833D03*
X062525Y037883D03*
X058975Y037933D03*
X058975Y038883D03*
X058975Y039883D03*
X057704Y039833D03*
X057704Y038833D03*
X057704Y037883D03*
X054154Y037933D03*
X054154Y038883D03*
X052832Y038833D03*
X052832Y037883D03*
X052832Y039833D03*
X054154Y039883D03*
X049282Y039883D03*
X049282Y038883D03*
X049282Y037933D03*
X047761Y037883D03*
X047761Y038833D03*
X047761Y039833D03*
X044211Y039883D03*
X044211Y038883D03*
X044211Y037933D03*
X042790Y037883D03*
X042790Y038833D03*
X042790Y039833D03*
X039240Y039883D03*
X037819Y039833D03*
X037819Y038833D03*
X037819Y037883D03*
X039240Y037933D03*
X039240Y038883D03*
X034269Y038883D03*
X034269Y037933D03*
X032917Y037883D03*
X032917Y038833D03*
X032917Y039833D03*
X034269Y039883D03*
X029367Y039883D03*
X029367Y038883D03*
X029367Y037933D03*
X029599Y030383D03*
X029599Y029383D03*
X029599Y028433D03*
X033149Y028383D03*
X033149Y029333D03*
X033149Y030333D03*
X034520Y030383D03*
X034520Y029383D03*
X034520Y028433D03*
X038070Y028383D03*
X038070Y029333D03*
X039441Y029383D03*
X039441Y028433D03*
X039441Y030383D03*
X038070Y030333D03*
X042991Y030333D03*
X042991Y029333D03*
X042991Y028383D03*
X044362Y028433D03*
X044362Y029383D03*
X044362Y030383D03*
X047912Y030333D03*
X047912Y029333D03*
X047912Y028383D03*
X049284Y028433D03*
X049284Y029383D03*
X049284Y030383D03*
X052834Y030333D03*
X054205Y030383D03*
X054205Y029383D03*
X054205Y028433D03*
X052834Y028383D03*
X052834Y029333D03*
X057755Y029333D03*
X057755Y028383D03*
X059126Y028433D03*
X059126Y029383D03*
X059126Y030383D03*
X057755Y030333D03*
X062676Y030333D03*
X064047Y030383D03*
X064047Y029383D03*
X064047Y028433D03*
X062676Y028383D03*
X062676Y029333D03*
X067597Y029333D03*
X067597Y028383D03*
X067597Y030333D03*
D30*
X019987Y013802D03*
X018491Y013802D03*
D31*
X018491Y015672D03*
X019987Y015672D03*
D32*
X019711Y016853D02*
X018767Y016853D01*
D33*
X016322Y017740D03*
X015422Y016740D03*
X012722Y017390D03*
X015397Y014090D03*
X006999Y039343D03*
X010349Y041243D03*
X008349Y046343D03*
X018915Y044013D03*
D34*
X016144Y044044D03*
X016144Y044544D03*
X016144Y043544D03*
X016144Y043044D03*
X014204Y043044D03*
X014204Y043544D03*
X014204Y044044D03*
X014204Y044544D03*
D35*
X020401Y042270D02*
X020511Y042160D01*
X020147Y042160D01*
X019891Y042416D01*
X019891Y042780D01*
X020147Y043036D01*
X020511Y043036D01*
X020767Y042780D01*
X020767Y042416D01*
X020511Y042160D01*
X020442Y042325D01*
X020216Y042325D01*
X020056Y042485D01*
X020056Y042711D01*
X020216Y042871D01*
X020442Y042871D01*
X020602Y042711D01*
X020602Y042485D01*
X020442Y042325D01*
X020374Y042489D01*
X020284Y042489D01*
X020220Y042553D01*
X020220Y042643D01*
X020284Y042707D01*
X020374Y042707D01*
X020438Y042643D01*
X020438Y042553D01*
X020374Y042489D01*
D36*
X021599Y016793D03*
X021599Y015893D03*
X022599Y015893D03*
X022599Y016793D03*
D37*
X024043Y055429D03*
X024043Y061531D03*
D38*
X003879Y050643D02*
X003319Y050643D01*
X003319Y049643D02*
X003879Y049643D01*
X003879Y048643D02*
X003319Y048643D01*
D39*
X004765Y039417D03*
X004765Y038669D03*
X005632Y039043D03*
D40*
X004349Y031055D03*
X004349Y030799D03*
X004349Y030543D03*
X004349Y030287D03*
X004349Y030031D03*
D41*
X004207Y029574D03*
X004207Y031513D03*
D42*
X003301Y031690D03*
X003301Y029397D03*
D43*
X003301Y030209D03*
X003301Y030866D03*
D44*
X010599Y029693D03*
X010599Y029093D03*
D45*
X010599Y029393D03*
D46*
X017049Y045939D03*
X017049Y047947D03*
D47*
X015177Y047043D03*
X011020Y047043D03*
D48*
X006349Y046343D03*
X012349Y041243D03*
D49*
X006999Y041002D03*
X006999Y042581D03*
D50*
X022699Y047793D03*
D51*
X021699Y047793D03*
X021699Y049793D03*
X027699Y049793D03*
X027699Y047793D03*
D52*
X023509Y052993D03*
X021289Y052993D03*
D53*
X018629Y052993D03*
X016169Y052993D03*
D54*
X025949Y052993D03*
X027849Y052993D03*
M02*
